<svg width="343" height="343" xmlns="http://www.w3.org/2000/svg" xmlns:xlink="http://www.w3.org/1999/xlink" xml:space="preserve" overflow="hidden"><g transform="translate(-1219 -747)"><g><path d="M1220 782.804C1220 763.582 1235.58 748 1254.8 748L1445.2 748C1464.42 748 1480 763.582 1480 782.804L1480 973.196C1480 992.418 1464.42 1008 1445.2 1008L1254.8 1008C1235.58 1008 1220 992.418 1220 973.196Z" fill="#0E3052" fill-rule="evenodd" fill-opacity="1"/><rect x="1220" y="749" width="341" height="341" fill="#156082" fill-opacity="0"/><g><g><g><path d="M1391.75 871.997 1402.58 861.164C1404.7 859.048 1404.7 855.619 1402.58 853.503L1391.75 842.67C1389.63 840.555 1386.2 840.555 1384.09 842.67 1381.97 844.785 1381.97 848.215 1384.09 850.33L1385.67 851.917 1301.25 851.917C1298.26 851.917 1295.83 854.342 1295.83 857.333 1295.83 860.325 1298.26 862.75 1301.25 862.75L1331.51 862.75 1340.75 871.997C1342.87 874.112 1346.3 874.112 1348.41 871.997 1350.53 869.882 1350.53 866.452 1348.41 864.337L1346.83 862.75 1385.67 862.75 1384.09 864.336C1381.97 866.452 1381.97 869.882 1384.09 871.997 1386.2 874.112 1389.63 874.112 1391.75 871.997Z" fill="#FFFFFF" fill-rule="nonzero" fill-opacity="1"/><path d="M1393.33 895.25C1396.32 895.25 1398.75 897.675 1398.75 900.667L1398.75 916.917C1398.75 919.908 1396.32 922.333 1393.33 922.333L1377.08 922.333C1374.09 922.333 1371.67 919.908 1371.67 916.917 1371.67 913.925 1374.09 911.5 1377.08 911.5L1380.26 911.5 1373.25 904.497C1371.14 902.382 1371.14 898.952 1373.25 896.837 1375.37 894.722 1378.8 894.722 1380.91 896.837L1387.92 903.84 1387.92 900.667C1387.92 897.675 1390.34 895.25 1393.33 895.25Z" fill="#FFFFFF" fill-rule="nonzero" fill-opacity="1"/><path d="M1370.08 893.664C1372.2 891.549 1372.2 888.119 1370.08 886.004L1359.25 875.17C1357.13 873.055 1353.7 873.055 1351.59 875.17 1349.47 877.286 1349.47 880.715 1351.59 882.831L1362.42 893.664C1364.53 895.779 1367.96 895.779 1370.08 893.664Z" fill="#FFFFFF" fill-rule="nonzero" fill-opacity="1"/></g></g></g><path d="M1413 1009.5C1413 972.773 1443 943 1480 943 1517 943 1547 972.773 1547 1009.5 1547 1046.23 1517 1076 1480 1076 1443 1076 1413 1046.23 1413 1009.5Z" stroke="#FFFFFF" stroke-width="10.3125" stroke-linecap="butt" stroke-linejoin="miter" stroke-miterlimit="8" stroke-opacity="1" fill="#3F6DAA" fill-rule="evenodd" fill-opacity="1"/><path d="M1513.26 998.396C1515.64 995.959 1515.57 992.076 1513.11 989.722 1510.71 987.426 1506.9 987.426 1504.5 989.722L1471.71 1022.19 1457.5 1008.13C1455.04 1005.77 1451.12 1005.84 1448.74 1008.28 1446.42 1010.65 1446.42 1014.42 1448.74 1016.8L1467.33 1035.2C1469.75 1037.6 1473.67 1037.6 1476.09 1035.2L1513.26 998.396Z" fill="#FFFFFF" fill-rule="evenodd" fill-opacity="1"/></g></g></svg>