<svg width="4468" height="1237" xmlns="http://www.w3.org/2000/svg" xmlns:xlink="http://www.w3.org/1999/xlink" xml:space="preserve" overflow="hidden"><g transform="translate(-275 -857)"><g><path d="M277 958.928C277 903.187 322.187 858 377.928 858L1330.07 858C1385.81 858 1431 903.187 1431 958.928L1431 1990.07C1431 2045.81 1385.81 2091 1330.07 2091L377.928 2091C322.187 2091 277 2045.81 277 1990.07Z" fill="#C5CFDB" fill-rule="evenodd" fill-opacity="1"/><g><g><g><path d="M555.75 1165C549.053 1165 543.625 1170.43 543.625 1177.12 543.625 1183.82 549.053 1189.25 555.75 1189.25L592.125 1189.25C598.822 1189.25 604.25 1183.82 604.25 1177.12 604.25 1170.43 598.822 1165 592.125 1165L555.75 1165Z" fill="#0E3052" fill-rule="nonzero" fill-opacity="1"/><path d="M410.25 1031.63C410.25 1011.54 426.536 995.25 446.625 995.25L616.375 995.25C636.465 995.25 652.75 1011.54 652.75 1031.63L652.75 1201.38C652.75 1221.46 636.465 1237.75 616.375 1237.75L446.625 1237.75C426.536 1237.75 410.25 1221.46 410.25 1201.38L410.25 1031.63ZM446.625 1019.5C439.929 1019.5 434.5 1024.93 434.5 1031.63L434.5 1201.38C434.5 1208.07 439.929 1213.5 446.625 1213.5L616.375 1213.5C623.071 1213.5 628.5 1208.07 628.5 1201.38L628.5 1031.63C628.5 1024.93 623.071 1019.5 616.375 1019.5L567.875 1019.5 567.875 1055.88C567.875 1062.57 562.447 1068 555.75 1068L507.25 1068C500.553 1068 495.125 1062.57 495.125 1055.88L495.125 1019.5 446.625 1019.5ZM519.375 1019.5 519.375 1043.75 543.625 1043.75 543.625 1019.5 519.375 1019.5Z" fill="#0E3052" fill-rule="nonzero" fill-opacity="1"/></g></g></g><text fill="#0E3052" fill-opacity="1" font-family="Inter SemiBold,Inter SemiBold_MSFontService,sans-serif" font-style="normal" font-variant="normal" font-weight="600" font-stretch="normal" font-size="128" text-anchor="start" direction="ltr" writing-mode="lr-tb" unicode-bidi="normal" text-decoration="none" transform="matrix(1 0 0 1 419.083 1651)">Requested </text><text fill="#0E3052" fill-opacity="1" font-family="Inter SemiBold,Inter SemiBold_MSFontService,sans-serif" font-style="normal" font-variant="normal" font-weight="600" font-stretch="normal" font-size="128" text-anchor="start" direction="ltr" writing-mode="lr-tb" unicode-bidi="normal" text-decoration="none" transform="matrix(1 0 0 1 419.083 1805)">Item</text><text fill="#0E3052" fill-opacity="1" font-family="Inter SemiBold,Inter SemiBold_MSFontService,sans-serif" font-style="normal" font-variant="normal" font-weight="600" font-stretch="normal" font-size="128" text-anchor="start" direction="ltr" writing-mode="lr-tb" unicode-bidi="normal" text-decoration="none" transform="matrix(1 0 0 1 700.958 1805)"> </text><text fill="#0E3052" fill-opacity="1" font-family="Inter,Inter_MSFontService,sans-serif" font-style="normal" font-variant="normal" font-weight="700" font-stretch="normal" font-size="83" text-anchor="start" direction="ltr" writing-mode="lr-tb" unicode-bidi="normal" text-decoration="none" transform="matrix(1 0 0 1 419.083 1409)">RITM#</text><text fill="#0E3052" fill-opacity="1" font-family="Inter,Inter_MSFontService,sans-serif" font-style="normal" font-variant="normal" font-weight="700" font-stretch="normal" font-size="83" text-anchor="start" direction="ltr" writing-mode="lr-tb" unicode-bidi="normal" text-decoration="none" transform="matrix(1 0 0 1 704.396 1409)"> </text><path d="M1794 958.928C1794 903.187 1839.19 858 1894.93 858L2847.07 858C2902.81 858 2948 903.187 2948 958.928L2948 1990.07C2948 2045.81 2902.81 2091 2847.07 2091L1894.93 2091C1839.19 2091 1794 2045.81 1794 1990.07Z" fill="#3F6DAA" fill-rule="evenodd" fill-opacity="1"/><g><g><g><path d="M204.055 48.5 206.125 48.5C226.215 48.5 242.5 64.7857 242.5 84.8749L242.5 230.375C242.5 250.465 226.215 266.75 206.125 266.75L84.8749 266.75C64.7857 266.75 48.5 250.465 48.5 230.375L48.5 84.8749C48.5 64.7857 64.7857 48.5 84.8749 48.5L86.9448 48.5C91.9382 34.372 105.412 24.25 121.25 24.25L169.75 24.25C185.588 24.25 199.062 34.372 204.055 48.5ZM86.9448 72.7499 84.8749 72.7499C78.1786 72.7499 72.7499 78.1786 72.7499 84.8749L72.7499 230.375C72.7499 237.071 78.1786 242.5 84.8749 242.5L206.125 242.5C212.821 242.5 218.25 237.071 218.25 230.375L218.25 84.8749C218.25 78.1786 212.821 72.7499 206.125 72.7499L204.055 72.7499C199.062 86.8779 185.588 96.9999 169.75 96.9999L121.25 96.9999C105.412 96.9999 91.9382 86.8779 86.9448 72.7499ZM109.125 60.625C109.125 53.9286 114.554 48.5 121.25 48.5L169.75 48.5C176.447 48.5 181.875 53.9286 181.875 60.625 181.875 67.3214 176.447 72.7499 169.75 72.7499L121.25 72.7499C114.554 72.7499 109.125 67.3214 109.125 60.625Z" fill="#FFFFFF" fill-rule="evenodd" fill-opacity="1" transform="matrix(1 0 0 1 1903 971)"/></g></g></g><text fill="#FFFFFF" fill-opacity="1" font-family="Inter SemiBold,Inter SemiBold_MSFontService,sans-serif" font-style="normal" font-variant="normal" font-weight="600" font-stretch="normal" font-size="128" text-anchor="start" direction="ltr" writing-mode="lr-tb" unicode-bidi="normal" text-decoration="none" transform="matrix(1 0 0 1 1936.45 1651)">Service </text><text fill="#FFFFFF" fill-opacity="1" font-family="Inter SemiBold,Inter SemiBold_MSFontService,sans-serif" font-style="normal" font-variant="normal" font-weight="600" font-stretch="normal" font-size="128" text-anchor="start" direction="ltr" writing-mode="lr-tb" unicode-bidi="normal" text-decoration="none" transform="matrix(1 0 0 1 1936.45 1805)">Catalog Task</text><text fill="#FFFFFF" fill-opacity="1" font-family="Inter SemiBold,Inter SemiBold_MSFontService,sans-serif" font-style="normal" font-variant="normal" font-weight="600" font-stretch="normal" font-size="128" text-anchor="start" direction="ltr" writing-mode="lr-tb" unicode-bidi="normal" text-decoration="none" transform="matrix(1 0 0 1 2768.9 1805)"> </text><text fill="#FFFFFF" fill-opacity="1" font-family="Inter,Inter_MSFontService,sans-serif" font-style="normal" font-variant="normal" font-weight="700" font-stretch="normal" font-size="83" text-anchor="start" direction="ltr" writing-mode="lr-tb" unicode-bidi="normal" text-decoration="none" transform="matrix(1 0 0 1 1936.45 1409)">SCTASK#</text><text fill="#FFFFFF" fill-opacity="1" font-family="Inter,Inter_MSFontService,sans-serif" font-style="normal" font-variant="normal" font-weight="700" font-stretch="normal" font-size="83" text-anchor="start" direction="ltr" writing-mode="lr-tb" unicode-bidi="normal" text-decoration="none" transform="matrix(1 0 0 1 2358.12 1409)"> </text><path d="M3311 958.928C3311 903.187 3356.19 858 3411.93 858L4364.07 858C4419.81 858 4465 903.187 4465 958.928L4465 1990.07C4465 2045.81 4419.81 2091 4364.07 2091L3411.93 2091C3356.19 2091 3311 2045.81 3311 1990.07Z" fill="#3F6DAA" fill-rule="evenodd" fill-opacity="1"/><g><g><g><path d="M203.354 48.3334 205.417 48.3334C225.438 48.3334 241.667 64.5631 241.667 84.5834L241.667 229.583C241.667 249.604 225.438 265.833 205.417 265.833L84.5834 265.833C64.5631 265.833 48.3334 249.604 48.3334 229.583L48.3334 84.5834C48.3334 64.5631 64.5631 48.3334 84.5834 48.3334L86.6461 48.3334C91.6224 34.254 105.05 24.1667 120.833 24.1667L169.167 24.1667C184.95 24.1667 198.378 34.254 203.354 48.3334ZM86.6461 72.5 84.5834 72.5C77.91 72.5 72.5 77.91 72.5 84.5834L72.5 229.583C72.5 236.257 77.91 241.667 84.5834 241.667L205.417 241.667C212.09 241.667 217.5 236.257 217.5 229.583L217.5 84.5834C217.5 77.91 212.09 72.5 205.417 72.5L203.354 72.5C198.378 86.5794 184.95 96.6667 169.167 96.6667L120.833 96.6667C105.05 96.6667 91.6224 86.5794 86.6461 72.5ZM108.75 60.4167C108.75 53.7433 114.16 48.3334 120.833 48.3334L169.167 48.3334C175.84 48.3334 181.25 53.7433 181.25 60.4167 181.25 67.0901 175.84 72.5 169.167 72.5L120.833 72.5C114.16 72.5 108.75 67.0901 108.75 60.4167Z" fill="#FFFFFF" fill-rule="evenodd" fill-opacity="1" transform="matrix(1 0 0 1.00345 3421 971)"/></g></g></g><text fill="#FFFFFF" fill-opacity="1" font-family="Inter SemiBold,Inter SemiBold_MSFontService,sans-serif" font-style="normal" font-variant="normal" font-weight="600" font-stretch="normal" font-size="128" text-anchor="start" direction="ltr" writing-mode="lr-tb" unicode-bidi="normal" text-decoration="none" transform="matrix(1 0 0 1 3453.83 1651)">Service </text><text fill="#FFFFFF" fill-opacity="1" font-family="Inter SemiBold,Inter SemiBold_MSFontService,sans-serif" font-style="normal" font-variant="normal" font-weight="600" font-stretch="normal" font-size="128" text-anchor="start" direction="ltr" writing-mode="lr-tb" unicode-bidi="normal" text-decoration="none" transform="matrix(1 0 0 1 3453.83 1805)">Catalog Task</text><text fill="#FFFFFF" fill-opacity="1" font-family="Inter SemiBold,Inter SemiBold_MSFontService,sans-serif" font-style="normal" font-variant="normal" font-weight="600" font-stretch="normal" font-size="128" text-anchor="start" direction="ltr" writing-mode="lr-tb" unicode-bidi="normal" text-decoration="none" transform="matrix(1 0 0 1 4286.27 1805)"> </text><text fill="#FFFFFF" fill-opacity="1" font-family="Inter,Inter_MSFontService,sans-serif" font-style="normal" font-variant="normal" font-weight="700" font-stretch="normal" font-size="83" text-anchor="start" direction="ltr" writing-mode="lr-tb" unicode-bidi="normal" text-decoration="none" transform="matrix(1 0 0 1 3453.83 1409)">SCTASK#</text><text fill="#FFFFFF" fill-opacity="1" font-family="Inter,Inter_MSFontService,sans-serif" font-style="normal" font-variant="normal" font-weight="700" font-stretch="normal" font-size="83" text-anchor="start" direction="ltr" writing-mode="lr-tb" unicode-bidi="normal" text-decoration="none" transform="matrix(1 0 0 1 3875.49 1409)"> </text><path d="M1535.5 1469.2 1681.24 1469.2 1681.24 1481.8 1535.5 1481.8ZM1647.46 1439.15 1691.08 1475.5 1647.46 1511.85C1644.79 1514.08 1640.81 1513.72 1638.59 1511.04 1636.36 1508.37 1636.72 1504.4 1639.39 1502.17L1677.21 1470.66 1677.21 1480.34 1639.39 1448.83C1636.72 1446.6 1636.36 1442.63 1638.59 1439.95 1640.81 1437.28 1644.79 1436.92 1647.46 1439.15Z" fill="#0E3052" fill-rule="nonzero" fill-opacity="1"/><path d="M3052.5 1469.2 3198.24 1469.2 3198.24 1481.8 3052.5 1481.8ZM3164.46 1439.15 3208.08 1475.5 3164.46 1511.85C3161.79 1514.08 3157.81 1513.72 3155.59 1511.04 3153.36 1508.37 3153.72 1504.4 3156.39 1502.17L3194.21 1470.66 3194.21 1480.34 3156.39 1448.83C3153.72 1446.6 3153.36 1442.63 3155.59 1439.95 3157.81 1437.28 3161.79 1436.92 3164.46 1439.15Z" fill="#0E3052" fill-rule="nonzero" fill-opacity="1"/></g></g></svg>