<svg xmlns="http://www.w3.org/2000/svg" width="24" height="24" fill="none" viewBox="0 0 24 24"><path fill="#000" d="M8.5 5.5a3.5 3.5 0 1 1 6.165 2.269A4.996 4.996 0 0 1 17 12v.087a4 4 0 0 0-.83-.087H7.83c-.282 0-.56.03-.831.087V12c0-1.782.932-3.346 2.335-4.231A3.486 3.486 0 0 1 8.5 5.5Zm10.646 7.828.603.672H20a3 3 0 0 0 3-3v-.143c0-1.274-.63-2.378-1.586-3.075a3 3 0 0 0-4.243-4.16A5.49 5.49 0 0 1 17.5 5.5c0 .634-.107 1.242-.304 1.809A6.974 6.974 0 0 1 19 12v1.174c.05.05.099.101.146.154ZM4 14h.251l.603-.672A3.98 3.98 0 0 1 5 13.174V12c0-1.805.683-3.45 1.804-4.691A5.492 5.492 0 0 1 6.5 5.5c0-.66.116-1.292.329-1.878a3 3 0 0 0-4.243 4.16C1.63 8.479 1 9.583 1 10.857V11a3 3 0 0 0 3 3Zm2.342.664A2 2 0 0 1 7.831 14h8.338a2 2 0 0 1 1.489.664l3.59 4c1.155 1.288.241 3.336-1.49 3.336H4.242c-1.73 0-2.644-2.048-1.488-3.336l3.59-4Z"/></svg>