<svg width="24" height="24" viewBox="0 0 24 24" fill="none" xmlns="http://www.w3.org/2000/svg"><path fill-rule="evenodd" clip-rule="evenodd" d="M12 3C8.96084 3 6.44944 5.2596 6.05415 8.19044C7.19097 8.61718 8 9.71411 8 11V14C8 15.6569 6.65685 17 5 17C3.68867 17 2.57384 16.1586 2.1659 14.9863C2.11194 14.9953 2.05652 15 2 15C1.44772 15 1 14.5523 1 14V11C1 10.4477 1.44772 10 2 10C2.05652 10 2.11194 10.0047 2.1659 10.0137C2.46987 9.14017 3.16629 8.4504 4.04404 8.15553C4.46593 4.13421 7.86695 1 12 1C16.1331 1 19.5341 4.13421 19.956 8.15553C20.8337 8.4504 21.5301 9.14017 21.8341 10.0137C21.8881 10.0047 21.9435 10 22 10C22.5523 10 23 10.4477 23 11V14C23 14.5523 22.5523 15 22 15C21.9435 15 21.8881 14.9953 21.8341 14.9863C21.5268 15.8693 20.8186 16.5645 19.9274 16.8539C19.5222 19.2085 17.4703 21 15 21H14.7324C14.3866 21.5978 13.7403 22 13 22C11.8954 22 11 21.1046 11 20C11 18.8954 11.8954 18 13 18C13.7403 18 14.3866 18.4022 14.7324 19H15C16.3835 19 17.5482 18.0635 17.8949 16.7899C16.7849 16.3499 16 15.2666 16 14V11C16 9.71411 16.809 8.61718 17.9459 8.19044C17.5506 5.2596 15.0392 3 12 3ZM20 14C20 14.5523 19.5523 15 19 15C18.4477 15 18 14.5523 18 14V11C18 10.4477 18.4477 10 19 10C19.5523 10 20 10.4477 20 11V14ZM5 10C4.44772 10 4 10.4477 4 11V14C4 14.5523 4.44772 15 5 15C5.55228 15 6 14.5523 6 14V11C6 10.4477 5.55228 10 5 10Z" fill="black"/></svg>