<svg xmlns="http://www.w3.org/2000/svg" width="24" height="24" fill="none" viewBox="0 0 24 24"><path fill="#000" d="M14.665 7.769a3.5 3.5 0 1 0-5.33 0c-.39.246-.743.544-1.05.884a3.941 3.941 0 0 0-.871-.871 3 3 0 1 0-4.827 0C1.63 8.479 1 9.583 1 10.857V11a3 3 0 0 0 3 3h.251l.603-.672A4 4 0 0 1 7.831 12H9a3 3 0 1 1 6 0h1.17a4 4 0 0 1 2.976 1.328l.603.672H20a3 3 0 0 0 3-3v-.143c0-1.274-.63-2.378-1.586-3.075a3 3 0 1 0-4.827 0c-.335.244-.63.538-.872.871a5.024 5.024 0 0 0-1.05-.884ZM12 4a1.5 1.5 0 1 1 0 3 1.5 1.5 0 0 1 0-3ZM4 6a1 1 0 1 1 2 0 1 1 0 0 1-2 0Zm-1 4.857C3 9.877 3.849 9 5 9s2 .877 2 1.857V11a1 1 0 0 1-1 1H4a1 1 0 0 1-1-1v-.143Zm14 0C17 9.877 17.849 9 19 9s2 .877 2 1.857V11a1 1 0 0 1-1 1h-2a1 1 0 0 1-1-1v-.143ZM19 7a1 1 0 1 1 0-2 1 1 0 0 1 0 2ZM7.83 14a2 2 0 0 0-1.488.664l-3.59 4C1.598 19.952 2.512 22 4.243 22H19.76c1.73 0 2.644-2.048 1.488-3.336l-3.59-4A2 2 0 0 0 16.17 14H7.831Zm-3.589 6 3.59-4h8.338l3.59 4H4.24Z"/></svg>