<svg width="24" height="24" viewBox="0 0 24 24" fill="none" xmlns="http://www.w3.org/2000/svg"><path fill-rule="evenodd" clip-rule="evenodd" d="M1 12C1 5.92487 5.92487 1 12 1C18.0751 1 23 5.92487 23 12C23 18.0751 18.0751 23 12 23C5.92487 23 1 18.0751 1 12ZM15.8944 6.55279C15.7214 6.20667 15.3642 5.99147 14.9773 6.00026C14.5904 6.00905 14.2434 6.24025 14.0862 6.59386L10.9468 13.6575L8.89443 9.55279C8.73501 9.23395 8.41792 9.02408 8.06214 9.00193C7.70636 8.97978 7.36568 9.1487 7.16795 9.4453L5.46482 12H4C3.44772 12 3 12.4477 3 13C3 13.5523 3.44772 14 4 14H6C6.33435 14 6.64658 13.8329 6.83205 13.5547L7.8762 11.9885L10.1056 16.4472C10.2786 16.7933 10.6358 17.0085 11.0227 16.9997C11.4096 16.991 11.7566 16.7598 11.9138 16.4061L15.0532 9.34249L17.1056 13.4472C17.275 13.786 17.6212 14 18 14H20C20.5523 14 21 13.5523 21 13C21 12.4477 20.5523 12 20 12H18.618L15.8944 6.55279Z" fill="black"/></svg>