<svg width="24" height="24" viewBox="0 0 24 24" fill="none" xmlns="http://www.w3.org/2000/svg"><path fill-rule="evenodd" clip-rule="evenodd" d="M6 2C4.34315 2 3 3.34315 3 5V7.17071C1.83481 7.58254 1 8.69378 1 10V19C1 20.6569 2.34315 22 4 22H20C21.6569 22 23 20.6569 23 19V10C23 8.69378 22.1652 7.58254 21 7.17071V5C21 3.34315 19.6569 2 18 2H6ZM19 5V10.4397L12.6644 16.0714C12.2855 16.4081 11.7146 16.4081 11.3357 16.0714L5 10.4396V5C5 4.44772 5.44772 4 6 4H18C18.5523 4 19 4.44772 19 5ZM7.32236 15.1799L3 18.7818V11.3378L7.32236 15.1799ZM4.66228 20L8.83402 16.5236L10.007 17.5662C11.1436 18.5765 12.8565 18.5765 13.9931 17.5662L15.1661 16.5236L19.3378 20H4.66228ZM21 18.7817V11.3379L16.6777 15.1799L21 18.7817ZM12 6C12.5523 6 13 6.44772 13 7V9H15C15.5523 9 16 9.44772 16 10C16 10.5523 15.5523 11 15 11H13V13C13 13.5523 12.5523 14 12 14C11.4477 14 11 13.5523 11 13V11H9C8.44772 11 8 10.5523 8 10C8 9.44771 8.44772 9 9 9H11V7C11 6.44772 11.4477 6 12 6Z" fill="black"/></svg>