<svg width="24" height="24" viewBox="0 0 24 24" fill="none" xmlns="http://www.w3.org/2000/svg"><path fill-rule="evenodd" clip-rule="evenodd" d="M7 11C7 10.4477 7.44772 10 8 10H16C16.5523 10 17 10.4477 17 11V14C17 14.5523 16.5523 15 16 15H8C7.44772 15 7 14.5523 7 14V11ZM9 12V13H15V12H9Z" fill="black"/><path d="M8 16C7.44772 16 7 16.4477 7 17C7 17.5523 7.44772 18 8 18H16C16.5523 18 17 17.5523 17 17C17 16.4477 16.5523 16 16 16H8Z" fill="black"/><path fill-rule="evenodd" clip-rule="evenodd" d="M6 2C4.34314 2 3 3.34315 3 5V19C3 20.6569 4.34315 22 6 22H18C19.6569 22 21 20.6569 21 19V8.24978C21 7.42169 20.6577 6.63044 20.0542 6.06342L16.5954 2.81364C16.0391 2.29096 15.3045 2 14.5412 2H6ZM5 5C5 4.44771 5.44771 4 6 4H14V6C14 7.65685 15.3431 9 17 9H19V19C19 19.5523 18.5523 20 18 20H6C5.44772 20 5 19.5523 5 19V5ZM18.1302 7L16 4.99852V6C16 6.55228 16.4477 7 17 7H18.1302Z" fill="black"/></svg>