<svg xmlns="http://www.w3.org/2000/svg" width="24" height="24" fill="none" viewBox="0 0 24 24"><path fill="#000" d="M17.688 4.15a2.456 2.456 0 0 0-3.385.112l-8.497 8.645a4.458 4.458 0 0 0 6.325 6.286l5.308-5.283a1.25 1.25 0 1 1 1.764 1.773l-5.309 5.282a6.958 6.958 0 0 1-9.209.537c-3.26-2.563-3.568-7.39-.662-10.347L12.52 2.51a4.956 4.956 0 0 1 7.076 6.94l-8.444 8.627a2.997 2.997 0 1 1-4.257-4.22l6.6-6.576a1.25 1.25 0 1 1 1.764 1.771l-6.6 6.576a.497.497 0 1 0 .706.7l8.444-8.626a2.456 2.456 0 0 0-.121-3.552Z"/></svg>