<svg width="1880" height="715" xmlns="http://www.w3.org/2000/svg" xmlns:xlink="http://www.w3.org/1999/xlink" xml:space="preserve" overflow="hidden"><g transform="translate(-2002 -229)"><g><rect x="2003" y="230" width="625" height="714" fill="#FFFFFF" fill-opacity="1"/><text fill="#172E4C" fill-opacity="1" font-family="Inter,Inter_MSFontService,sans-serif" font-style="normal" font-variant="normal" font-weight="700" font-stretch="normal" font-size="83" text-anchor="start" direction="ltr" writing-mode="lr-tb" unicode-bidi="normal" text-decoration="none" transform="matrix(1 0 0 1 2075.62 760)">Record only</text><text fill="#172E4C" fill-opacity="1" font-family="Inter,Inter_MSFontService,sans-serif" font-style="normal" font-variant="normal" font-weight="700" font-stretch="normal" font-size="83" text-anchor="start" direction="ltr" writing-mode="lr-tb" unicode-bidi="normal" text-decoration="none" transform="matrix(1 0 0 1 2555.15 760)"> </text><rect x="2628" y="230" width="625" height="714" fill="#FFFFFF" fill-opacity="1"/><text fill="#172E4C" fill-opacity="1" font-family="Inter,Inter_MSFontService,sans-serif" font-style="normal" font-variant="normal" font-weight="700" font-stretch="normal" font-size="83" text-anchor="start" direction="ltr" writing-mode="lr-tb" unicode-bidi="normal" text-decoration="none" transform="matrix(1 0 0 1 2745.63 760)">Split view</text><text fill="#172E4C" fill-opacity="1" font-family="Inter,Inter_MSFontService,sans-serif" font-style="normal" font-variant="normal" font-weight="700" font-stretch="normal" font-size="83" text-anchor="start" direction="ltr" writing-mode="lr-tb" unicode-bidi="normal" text-decoration="none" transform="matrix(1 0 0 1 3135.79 760)"> </text><rect x="3253" y="230" width="626" height="714" fill="#FFFFFF" fill-opacity="1"/><text fill="#172E4C" fill-opacity="1" font-family="Inter,Inter_MSFontService,sans-serif" font-style="normal" font-variant="normal" font-weight="700" font-stretch="normal" font-size="83" text-anchor="start" direction="ltr" writing-mode="lr-tb" unicode-bidi="normal" text-decoration="none" transform="matrix(1 0 0 1 3408.77 760)">Activity </text><text fill="#172E4C" fill-opacity="1" font-family="Inter,Inter_MSFontService,sans-serif" font-style="normal" font-variant="normal" font-weight="700" font-stretch="normal" font-size="83" text-anchor="start" direction="ltr" writing-mode="lr-tb" unicode-bidi="normal" text-decoration="none" transform="matrix(1 0 0 1 3327.99 859)">stream only</text><text fill="#172E4C" fill-opacity="1" font-family="Inter,Inter_MSFontService,sans-serif" font-style="normal" font-variant="normal" font-weight="700" font-stretch="normal" font-size="83" text-anchor="start" direction="ltr" writing-mode="lr-tb" unicode-bidi="normal" text-decoration="none" transform="matrix(1 0 0 1 3804.08 859)"> </text><g><g><g><path d="M2201.25 393.875C2201.25 389.388 2204.89 385.75 2209.37 385.75L2420.62 385.75C2425.11 385.75 2428.75 389.388 2428.75 393.875 2428.75 398.362 2425.11 402 2420.62 402L2209.37 402C2204.89 402 2201.25 398.362 2201.25 393.875ZM2201.25 442.625C2201.25 438.138 2204.89 434.5 2209.37 434.5L2420.62 434.5C2425.11 434.5 2428.75 438.138 2428.75 442.625 2428.75 447.112 2425.11 450.75 2420.62 450.75L2209.37 450.75C2204.89 450.75 2201.25 447.112 2201.25 442.625ZM2201.25 491.375C2201.25 486.888 2204.89 483.25 2209.37 483.25L2420.62 483.25C2425.11 483.25 2428.75 486.888 2428.75 491.375 2428.75 495.862 2425.11 499.5 2420.62 499.5L2209.37 499.5C2204.89 499.5 2201.25 495.862 2201.25 491.375ZM2201.25 540.125C2201.25 535.638 2204.89 532 2209.37 532L2420.62 532C2425.11 532 2428.75 535.638 2428.75 540.125 2428.75 544.612 2425.11 548.25 2420.62 548.25L2209.37 548.25C2204.89 548.25 2201.25 544.612 2201.25 540.125Z" fill="#172E4C" fill-rule="evenodd" fill-opacity="1"/></g></g></g><g><g><g><path d="M2957.25 393.875C2957.25 389.388 2960.89 385.75 2965.38 385.75L3046.62 385.75C3051.11 385.75 3054.75 389.388 3054.75 393.875L3054.75 540.125C3054.75 544.612 3051.11 548.25 3046.62 548.25L2965.38 548.25C2960.89 548.25 2957.25 544.612 2957.25 540.125L2957.25 393.875ZM2973.5 402 2973.5 532 3038.5 532 3038.5 402 2973.5 402Z" fill="#172E4C" fill-rule="evenodd" fill-opacity="1"/><path d="M2827.25 393.875C2827.25 389.388 2830.89 385.75 2835.37 385.75L2932.87 385.75C2937.36 385.75 2941 389.388 2941 393.875 2941 398.362 2937.36 402 2932.87 402L2835.37 402C2830.89 402 2827.25 398.362 2827.25 393.875ZM2827.25 442.625C2827.25 438.138 2830.89 434.5 2835.37 434.5L2932.87 434.5C2937.36 434.5 2941 438.138 2941 442.625 2941 447.112 2937.36 450.75 2932.87 450.75L2835.37 450.75C2830.89 450.75 2827.25 447.112 2827.25 442.625ZM2827.25 491.375C2827.25 486.888 2830.89 483.25 2835.37 483.25L2932.87 483.25C2937.36 483.25 2941 486.888 2941 491.375 2941 495.862 2937.36 499.5 2932.87 499.5L2835.37 499.5C2830.89 499.5 2827.25 495.862 2827.25 491.375ZM2827.25 540.125C2827.25 535.638 2830.89 532 2835.37 532L2932.87 532C2937.36 532 2941 535.638 2941 540.125 2941 544.612 2937.36 548.25 2932.87 548.25L2835.37 548.25C2830.89 548.25 2827.25 544.612 2827.25 540.125Z" fill="#172E4C" fill-rule="evenodd" fill-opacity="1"/></g></g></g><g><g><g><path d="M16.25 48.75C16.25 44.2627 19.8877 40.625 24.375 40.625L235.625 40.625C240.112 40.625 243.75 44.2627 243.75 48.75L243.75 211.25C243.75 215.737 240.112 219.375 235.625 219.375L24.375 219.375C19.8877 219.375 16.25 215.737 16.25 211.25L16.25 48.75ZM32.5 56.875 32.5 203.125 227.5 203.125 227.5 56.875 32.5 56.875Z" fill="#172E4C" fill-rule="evenodd" fill-opacity="1" transform="matrix(1 0 0 1 3436 337)"/></g></g></g></g></g></svg>