<svg width="24" height="24" viewBox="0 0 24 24" fill="none" xmlns="http://www.w3.org/2000/svg"><path fill-rule="evenodd" clip-rule="evenodd" d="M12 1C5.92487 1 1 5.92487 1 12C1 18.0751 5.92487 23 12 23C18.0751 23 23 18.0751 23 12C23 5.92487 18.0751 1 12 1ZM3 12C3 7.02944 7.02944 3 12 3C16.9706 3 21 7.02944 21 12L18.618 12L15.8944 6.55279C15.7214 6.20667 15.3642 5.99147 14.9773 6.00026C14.5904 6.00905 14.2434 6.24025 14.0862 6.59386L10.9468 13.6575L8.89443 9.55279C8.73501 9.23395 8.41792 9.02408 8.06214 9.00193C7.70636 8.97978 7.36568 9.1487 7.16795 9.4453L5.46482 12L3 12ZM3.22302 14C4.13248 18.008 7.71683 21 12 21C16.2832 21 19.8675 18.008 20.777 14H18C17.6212 14 17.275 13.786 17.1056 13.4472L15.0532 9.34249L11.9138 16.4061C11.7566 16.7598 11.4096 16.991 11.0227 16.9997C10.6358 17.0085 10.2786 16.7933 10.1056 16.4472L7.8762 11.9885L6.83205 13.5547C6.64658 13.8329 6.33435 14 6 14H3.22302Z" fill="black"/></svg>