<svg xmlns="http://www.w3.org/2000/svg" viewBox="0 0 1153.19 189"><defs><style>.cls-1{fill:#fff;}</style></defs><g id="Layer_2" data-name="Layer 2"><g id="Layer_1-2" data-name="Layer 1"><path class="cls-1" d="M0,20.52H38.34l61,78.21V20.52h40.37v148h-36L40.37,87.31v81.17H0Z"/><path class="cls-1" d="M241.07,171.44a78,78,0,0,1-29.8-5.7,72.9,72.9,0,0,1-24.2-16,76.91,76.91,0,0,1-22.31-54.86V94.5A77.18,77.18,0,0,1,187,39.86a74.21,74.21,0,0,1,24.62-16.39,80.75,80.75,0,0,1,31.19-5.91,89.35,89.35,0,0,1,20.71,2.22,70.9,70.9,0,0,1,17,6.34A68.1,68.1,0,0,1,294.45,36a81.4,81.4,0,0,1,11.1,12.47L274.68,72.31a53,53,0,0,0-13.95-12.69Q253.13,55,242.34,55A32.88,32.88,0,0,0,228.07,58,34.09,34.09,0,0,0,217,66.39a39,39,0,0,0-7.3,12.47A43.76,43.76,0,0,0,207,94.08v.42A45.29,45.29,0,0,0,209.68,110a38.93,38.93,0,0,0,7.3,12.58A34.06,34.06,0,0,0,228.07,131,32.74,32.74,0,0,0,242.34,134a40.43,40.43,0,0,0,10.47-1.27,31.71,31.71,0,0,0,8.66-3.7,46.45,46.45,0,0,0,7.4-5.71,85,85,0,0,0,6.87-7.29l30.86,22a108.42,108.42,0,0,1-11.52,13.32,65.85,65.85,0,0,1-14.16,10.57,73.8,73.8,0,0,1-17.76,7A88.53,88.53,0,0,1,241.07,171.44Z"/><path class="cls-1" d="M330.33,20.52H387.4q19.88,0,35.41,5.39A74.71,74.71,0,0,1,449,41,64.57,64.57,0,0,1,465.3,64.17a75.92,75.92,0,0,1,5.6,29.49v.42a76.06,76.06,0,0,1-5.71,29.7,66.65,66.65,0,0,1-16.49,23.57,76.21,76.21,0,0,1-26.53,15.53q-15.75,5.61-35.62,5.6H330.33ZM388.1,132.13q18.45,0,29.7-9.73T429,94.71v-.42q0-17.76-11.24-27.59t-29.7-9.83H371.34v75.26Z"/><path class="cls-1" d="M495.85,20.52h41.22v148H495.85Z"/><path class="cls-1" d="M606.41,56.45H562V20.52H691.81V56.45H647.42v112h-41Z"/><path class="cls-1" d="M772.41,147V42a21.61,21.61,0,1,0-13.9,0V147a21.6,21.6,0,1,0,13.9,0ZM765.46,13.9a7.71,7.71,0,1,1-7.71,7.7A7.7,7.7,0,0,1,765.46,13.9Zm0,161.2a7.71,7.71,0,1,1,7.7-7.7A7.71,7.71,0,0,1,765.46,175.1Z"/><path class="cls-1" d="M840.87,18.78h2.42l14.45,18.38V18.78h2.53V41.71H858.2l-14.81-18.8v18.8h-2.52Z"/><path class="cls-1" d="M865.89,30.31v-.06a11.7,11.7,0,1,1,23.39-.07v.07a11.7,11.7,0,1,1-23.39.06Zm20.7,0v-.06c0-5.21-3.8-9.47-9-9.47s-9,4.19-9,9.4v.07c0,5.21,3.8,9.47,9,9.47S886.59,35.52,886.59,30.31Z"/><path class="cls-1" d="M894.9,18.78h9.86a9,9,0,0,1,6.52,2.29,6.32,6.32,0,0,1,1.77,4.52v.07c0,3.8-2.62,6-6.22,6.68l7,9.37h-3.18L904,32.8h-6.55v8.91H894.9Zm9.63,11.7c3.44,0,5.9-1.77,5.9-4.72v-.07c0-2.82-2.16-4.52-5.87-4.52h-7.07v9.31Z"/><path class="cls-1" d="M924.56,21.17h-7.7V18.78h18v2.39h-7.7V41.71h-2.62Z"/><path class="cls-1" d="M939.88,18.78h2.58V29H955.7V18.78h2.59V41.71H955.7V31.39H942.46V41.71h-2.58Z"/><path class="cls-1" d="M971.54,30.23v-.06a11.56,11.56,0,0,1,11.6-11.87,11.93,11.93,0,0,1,8.94,3.64l-1.77,1.9a10,10,0,0,0-7.21-3.14c-5.07,0-8.88,4.13-8.88,9.4v.07c0,5.3,3.84,9.46,8.88,9.46,3.15,0,5.22-1.21,7.41-3.31l1.7,1.68A12,12,0,0,1,983,42,11.44,11.44,0,0,1,971.54,30.23Z"/><path class="cls-1" d="M1005.36,18.53h2.43l10.45,23.1h-2.78l-2.69-6.06h-12.49l-2.72,6.06h-2.65Zm6.39,14.68-5.21-11.66-5.24,11.66Z"/><path class="cls-1" d="M1022.91,18.7h9.86a9,9,0,0,1,6.52,2.29,6.3,6.3,0,0,1,1.77,4.52v.07c0,3.8-2.62,6-6.22,6.68l7,9.37h-3.18l-6.65-8.91h-6.55v8.91h-2.59Zm9.63,11.69c3.44,0,5.9-1.76,5.9-4.71v-.07c0-2.82-2.16-4.52-5.86-4.52h-7.08v9.3Z"/><path class="cls-1" d="M1045.73,30.23v-.06a11.7,11.7,0,1,1,23.39-.07v.07a11.7,11.7,0,1,1-23.39.06Zm20.71,0v-.06c0-5.21-3.81-9.47-9-9.47s-9,4.19-9,9.4v.07c0,5.2,3.81,9.46,9,9.46S1066.44,35.44,1066.44,30.23Z"/><path class="cls-1" d="M1074.74,18.7h2.59V39.24h12.91v2.39h-15.5Z"/><path class="cls-1" d="M1095.39,18.7H1098V41.63h-2.59Z"/><path class="cls-1" d="M1104.84,18.7h2.42l14.45,18.38V18.7h2.52V41.63h-2.06l-14.81-18.8v18.8h-2.52Z"/><path class="cls-1" d="M1139.35,18.53h2.43l10.45,23.1h-2.78l-2.69-6.06h-12.49l-2.72,6.06h-2.65Zm6.39,14.68-5.21-11.66-5.24,11.66Z"/><path class="cls-1" d="M840.87,59.72h8c7.21,0,12.19,5,12.19,11.41v.06c0,6.46-5,11.47-12.19,11.47h-8Zm2.59,2.4V80.27h5.37c5.8,0,9.5-3.93,9.5-9v-.07c0-5.08-3.7-9.07-9.5-9.07Z"/><path class="cls-1" d="M868.18,59.72h16.58v2.36h-14v7.83h12.51v2.36H870.77v8h14.15v2.36H868.18Z"/><path class="cls-1" d="M891.82,59.72h8.58c5.18,0,8.59,2.76,8.59,7.28v.06c0,5-4.13,7.51-9,7.51H894.4v8.09h-2.58Zm8.25,12.49c3.81,0,6.3-2,6.3-5V67.1c0-3.28-2.46-5-6.16-5H894.4V72.21Z"/><path class="cls-1" d="M921.58,59.56H924l10.45,23.1h-2.78L929,76.6H916.5l-2.72,6.06h-2.66ZM928,74.24l-5.21-11.66-5.25,11.66Z"/><path class="cls-1" d="M940.67,59.72h9.86A9,9,0,0,1,957,62a6.3,6.3,0,0,1,1.77,4.52v.07c0,3.8-2.62,6-6.22,6.68l7,9.37h-3.17l-6.65-8.91h-6.56v8.91h-2.58Zm9.63,11.7c3.44,0,5.89-1.77,5.89-4.72v-.06c0-2.82-2.16-4.52-5.86-4.52h-7.08v9.3Z"/><path class="cls-1" d="M971.87,62.12h-7.7v-2.4h18v2.4h-7.7V82.66h-2.62Z"/><path class="cls-1" d="M988.72,59.72h2.62l8.36,12.52,8.35-12.52h2.62V82.66h-2.59V64.08l-8.35,12.29h-.13l-8.36-12.25V82.66h-2.52Z"/><path class="cls-1" d="M1018.85,59.72h16.58v2.36h-14v7.83H1034v2.36h-12.52v8h14.15v2.36h-16.74Z"/><path class="cls-1" d="M1042.49,59.72h2.42l14.45,18.39V59.72h2.52V82.66h-2.06L1045,63.85V82.66h-2.52Z"/><path class="cls-1" d="M1076.12,62.12h-7.7v-2.4h18v2.4h-7.7V82.66h-2.62Z"/><path class="cls-1" d="M1106.15,71.18v-.07a11.7,11.7,0,1,1,23.4-.06v.06A11.63,11.63,0,0,1,1117.81,83,11.51,11.51,0,0,1,1106.15,71.18Zm20.71,0v-.07c0-5.21-3.8-9.47-9-9.47s-9,4.19-9,9.41v.06c0,5.21,3.8,9.47,9,9.47S1126.86,76.39,1126.86,71.18Z"/><path class="cls-1" d="M1136.71,59.64h16.48V62h-13.9v8.2h12.42v2.36h-12.42v10h-2.58Z"/><path class="cls-1" d="M841.2,100.56h4.54v25.82H841.2Z"/><path class="cls-1" d="M858.76,100.56H863l13.84,17.85V100.56h4.46v25.82h-3.8L863.22,108v18.37h-4.46Z"/><path class="cls-1" d="M891.86,100.56h19.22v4.13H896.4v7h13v4.13h-13v10.51h-4.54Z"/><path class="cls-1" d="M917.62,113.54v-.07a13.5,13.5,0,0,1,27-.07v.07a13.5,13.5,0,0,1-27,.07Zm22.24,0v-.07c0-5-3.65-9.19-8.78-9.19s-8.7,4.1-8.7,9.12v.07a8.81,8.81,0,0,0,8.78,9.15C936.29,122.62,939.86,118.56,939.86,113.54Z"/><path class="cls-1" d="M953,100.56h11.51a10.45,10.45,0,0,1,7.46,2.58,7.82,7.82,0,0,1,2.14,5.57v.07c0,4.25-2.55,6.79-6.13,7.83l7,9.77h-5.38l-6.35-9h-5.68v9H953Zm11.18,12.8c3.25,0,5.31-1.7,5.31-4.32V109c0-2.77-2-4.28-5.34-4.28h-6.61v8.67Z"/><path class="cls-1" d="M983.58,100.56h4.83l7.86,12.21,7.86-12.21H1009v25.82h-4.54V107.86L996.27,120h-.15L988,107.94v18.44h-4.46Z"/><path class="cls-1" d="M1028.7,100.37h4.21l11.36,26h-4.8l-2.62-6.23h-12.21l-2.65,6.23h-4.65Zm6.49,15.76-4.46-10.33-4.43,10.33Z"/><path class="cls-1" d="M1058.28,104.76h-8.18v-4.2h21v4.2h-8.19v21.62h-4.58Z"/><path class="cls-1" d="M1080,100.56h4.54v25.82H1080Z"/><path class="cls-1" d="M1094.23,113.54v-.07a13.5,13.5,0,0,1,27-.07v.07a13.5,13.5,0,0,1-27,.07Zm22.24,0v-.07c0-5-3.65-9.19-8.78-9.19s-8.7,4.1-8.7,9.12v.07a8.81,8.81,0,0,0,8.78,9.15C1112.9,122.62,1116.47,118.56,1116.47,113.54Z"/><path class="cls-1" d="M1130.68,100.56h4.21l13.83,17.85V100.56h4.47v25.82h-3.8L1135.15,108v18.37h-4.47Z"/><path class="cls-1" d="M847.29,148.64H839.1v-4.21h21v4.21h-8.2v21.61h-4.57Z"/><path class="cls-1" d="M869.86,144.43H889v4.06H874.39v6.71h13v4.06h-13v6.94h14.8v4.05H869.86Z"/><path class="cls-1" d="M898.43,157.42v-.08A13.07,13.07,0,0,1,911.75,144a13.46,13.46,0,0,1,10.11,4L919,151.36a10.3,10.3,0,0,0-7.23-3.2c-4.91,0-8.53,4.05-8.53,9.11v.07c0,5.06,3.58,9.15,8.53,9.15,3.17,0,5.2-1.25,7.41-3.32l2.91,3a13.32,13.32,0,0,1-10.47,4.58A13,13,0,0,1,898.43,157.42Z"/><path class="cls-1" d="M931.81,144.43h4.53v10.73h12.32V144.43h4.54v25.82h-4.54V159.37H936.34v10.88h-4.53Z"/><path class="cls-1" d="M964.84,144.43h4.21l13.83,17.86V144.43h4.47v25.82h-3.8l-14.24-18.37v18.37h-4.47Z"/><path class="cls-1" d="M997.85,157.42v-.08a13.5,13.5,0,0,1,27-.07v.07a13.5,13.5,0,0,1-27,.08Zm22.24,0v-.08c0-5-3.65-9.18-8.78-9.18s-8.7,4.09-8.7,9.11v.07a8.81,8.81,0,0,0,8.78,9.15C1016.52,166.49,1020.09,162.43,1020.09,157.42Z"/><path class="cls-1" d="M1035.35,144.43h4.54v21.69h13.58v4.13h-18.12Z"/><path class="cls-1" d="M1061.35,157.4v-.08a13.51,13.51,0,0,1,27-.07v.07a13.51,13.51,0,0,1-27,.08Zm22.25,0v-.08c0-5-3.65-9.18-8.78-9.18s-8.71,4.09-8.71,9.11v.07a8.81,8.81,0,0,0,8.78,9.15C1080,166.47,1083.6,162.41,1083.6,157.4Z"/><path class="cls-1" d="M1097.71,157.4v-.08A13.16,13.16,0,0,1,1111,144a14,14,0,0,1,9.93,3.5l-2.88,3.43a10.14,10.14,0,0,0-7.23-2.76c-4.76,0-8.38,4.17-8.38,9.11v.07c0,5.32,3.51,9.23,8.78,9.23a10.56,10.56,0,0,0,6.24-2v-4.83h-6.61v-3.95h11v10.85a16.52,16.52,0,0,1-10.78,4C1103,170.68,1097.71,164.92,1097.71,157.4Z"/><path class="cls-1" d="M1138.36,160.05l-10.26-15.64h5.39l7.19,11.4,7.3-11.4h5.21l-10.26,15.53v10.3h-4.57Z"/></g></g></svg>