<svg width="225" height="220" xmlns="http://www.w3.org/2000/svg" xmlns:xlink="http://www.w3.org/1999/xlink" xml:space="preserve" overflow="hidden"><g transform="translate(-1232 -664)"><g><path d="M1237 773.5C1237 713.577 1285.58 665 1345.5 665 1405.42 665 1454 713.577 1454 773.5 1454 833.423 1405.42 882 1345.5 882 1285.58 882 1237 833.423 1237 773.5Z" fill="#0E3052" fill-rule="evenodd" fill-opacity="1"/><g><g><g><path d="M1363.75 786.884C1369.21 780.327 1372.5 771.892 1372.5 762.688 1372.5 741.804 1355.57 724.875 1334.69 724.875 1313.8 724.875 1296.88 741.804 1296.88 762.688 1296.88 783.571 1313.8 800.5 1334.69 800.5 1343.89 800.5 1352.33 797.212 1358.88 791.745L1387.26 820.118C1388.6 821.461 1390.78 821.461 1392.12 820.118 1393.46 818.776 1393.46 816.599 1392.12 815.257L1363.75 786.884ZM1365.63 762.688C1365.63 779.774 1351.77 793.625 1334.69 793.625 1317.6 793.625 1303.75 779.774 1303.75 762.688 1303.75 745.601 1317.6 731.75 1334.69 731.75 1351.77 731.75 1365.63 745.601 1365.63 762.688Z" fill="#FFFFFF" fill-rule="evenodd" fill-opacity="1"/></g></g></g></g></g></svg>