<svg width="24" height="24" viewBox="0 0 24 24" fill="none" xmlns="http://www.w3.org/2000/svg">
<path fill-rule="evenodd" clip-rule="evenodd" d="M3 5C1.89543 5 1 5.89543 1 7V10C1 10.5523 1.44772 11 2 11C2.55228 11 3 11.4477 3 12C3 12.5523 2.55228 13 2 13C1.44772 13 1 13.4477 1 14V17C1 18.1046 1.89543 19 3 19H21C22.1046 19 23 18.1046 23 17V14C23 13.4477 22.5523 13 22 13C21.4477 13 21 12.5523 21 12C21 11.4477 21.4477 11 22 11C22.5523 11 23 10.5523 23 10V7C23 5.89543 22.1046 5 21 5H3ZM3 7H21V9.17071C19.8348 9.58254 19 10.6938 19 12C19 13.3062 19.8348 14.4175 21 14.8293V17H3V14.8293C4.16519 14.4175 5 13.3062 5 12C5 10.6938 4.16519 9.58254 3 9.17071V7ZM8 9C7.44772 9 7 9.44772 7 10V14C7 14.5523 7.44772 15 8 15H16C16.5523 15 17 14.5523 17 14V10C17 9.44772 16.5523 9 16 9H8ZM15 13H9V11H15V13Z" fill="black"/>
</svg>
