<?xml version="1.0" encoding="UTF-8" standalone="no"?><!DOCTYPE svg PUBLIC "-//W3C//DTD SVG 1.1//EN" "http://www.w3.org/Graphics/SVG/1.1/DTD/svg11.dtd"><svg width="100%" height="100%" viewBox="0 0 200 200" version="1.1" xmlns="http://www.w3.org/2000/svg" xmlns:xlink="http://www.w3.org/1999/xlink" xml:space="preserve" xmlns:serif="http://www.serif.com/" style="fill-rule:evenodd;clip-rule:evenodd;stroke-linejoin:round;stroke-miterlimit:2;"><g transform="matrix(1,0,0,1,-8828.83,-2467.15)"><g transform="matrix(2.08333,0,0,2.08333,-10926.3,-1963.13)"><rect x="9482.44" y="2126.53" width="96" height="96" style="fill:rgb(63,109,170);fill-opacity:0;"/></g><g transform="matrix(-3.57143,4.37374e-16,-4.37374e-16,-3.57143,8985.97,2624.3)"><path d="M6.5,11.5C6.5,6.253 10.753,2 16,2C21.247,2 25.5,6.253 25.5,11.5C25.5,14.652 23.964,17.445 21.605,19.171C21.202,19.466 21,19.854 21,20.201L21,21C21,22.657 19.657,24 18,24L14,24C12.343,24 11,22.657 11,21L11,20.201C11,19.854 10.798,19.466 10.395,19.171C8.036,17.445 6.5,14.652 6.5,11.5ZM16,4C11.858,4 8.5,7.358 8.5,11.5C8.5,13.987 9.709,16.191 11.576,17.557C12.365,18.134 13,19.072 13,20.201L13,21C13,21.552 13.448,22 14,22L18,22C18.552,22 19,21.552 19,21L19,20.201C19,19.072 19.635,18.134 20.424,17.557C22.291,16.191 23.5,13.987 23.5,11.5C23.5,7.358 20.142,4 16,4Z" style="fill:rgb(63,109,170);"/></g><g transform="matrix(-3.57143,4.37374e-16,-4.37374e-16,-3.57143,8985.97,2624.3)"><path d="M12,26C12,25.448 12.448,25 13,25L19,25C19.552,25 20,25.448 20,26C20,26.552 19.552,27 19,27L13,27C12.448,27 12,26.552 12,26Z" style="fill:rgb(63,109,170);fill-rule:nonzero;"/></g><g transform="matrix(-3.57143,4.37374e-16,-4.37374e-16,-3.57143,8985.97,2624.3)"><path d="M15,28C14.448,28 14,28.448 14,29C14,29.552 14.448,30 15,30L17,30C17.552,30 18,29.552 18,29C18,28.448 17.552,28 17,28L15,28Z" style="fill:rgb(63,109,170);fill-rule:nonzero;"/></g></g></svg>