<svg width="24" height="24" viewBox="0 0 24 24" fill="none" xmlns="http://www.w3.org/2000/svg"><path d="M11 2C11 1.44772 11.4477 1 12 1C18.0751 1 23 5.92487 23 12C23 18.0751 18.0751 23 12 23C5.92487 23 1 18.0751 1 12C1 9.34052 1.94443 6.90132 3.51447 5H3C2.44772 5 2 4.55228 2 4C2 3.44772 2.44772 3 3 3H6C6.55228 3 7 3.44772 7 4V7C7 7.55228 6.55228 8 6 8C5.44772 8 5 7.55228 5 7V6.34248C3.7485 7.88876 3 9.85682 3 12C3 16.9706 7.02944 21 12 21C16.9706 21 21 16.9706 21 12C21 7.02944 16.9706 3 12 3C11.4477 3 11 2.55228 11 2Z" fill="white"/><path d="M13 7C13 6.44772 12.5523 6 12 6C11.4477 6 11 6.44772 11 7V12C11 12.3788 11.214 12.725 11.5528 12.8944L15.5528 14.8944C16.0468 15.1414 16.6474 14.9412 16.8944 14.4472C17.1414 13.9532 16.9412 13.3526 16.4472 13.1056L13 11.382V7Z" fill="white"/></svg>