<svg xmlns="http://www.w3.org/2000/svg" width="24" height="24" fill="none" viewBox="0 0 24 24"><path fill="#000" d="M12 5.5a4.488 4.488 0 0 1-1.45 3.309c.45.239.877.523 1.265.844A2.494 2.494 0 0 0 11 11.5v.125a5.069 5.069 0 0 0-.456-.427C9.63 10.44 8.474 10 7.5 10c-.974 0-2.13.44-3.044 1.198C3.543 11.955 3 12.915 3 13.875V15a2 2 0 0 0 2 2h5a1.99 1.99 0 0 0 1-.268v2.142A4.01 4.01 0 0 1 10 19H5a4 4 0 0 1-4-4v-1.125c0-1.732.964-3.21 2.18-4.217.39-.323.818-.61 1.27-.85A4.5 4.5 0 1 1 12 5.5ZM7.5 3a2.5 2.5 0 1 0 0 5 2.5 2.5 0 0 0 0-5ZM13 13a2 2 0 0 1 2-2h.5c.456-.607 1.182-1 2-1h2c.818 0 1.544.393 2 1h.5a2 2 0 0 1 2 2v9a2 2 0 0 1-2 2h-7a2 2 0 0 1-2-2v-9Zm8.95 0a2.5 2.5 0 0 1-2.45 2h-2a2.5 2.5 0 0 1-2.45-2H15v9h7v-9h-.05ZM17 12.5a.5.5 0 0 0 .5.5h2a.5.5 0 0 0 0-1h-2a.5.5 0 0 0-.5.5Z"/></svg>