<svg xmlns="http://www.w3.org/2000/svg" width="24" height="25" fill="none" viewBox="0 0 24 25"><path fill="#fff" d="M21 6.896v12c0 .803-.438 1.448-.965 1.916-.53.47-1.238.846-2.027 1.142-1.586.595-3.71.942-6.008.942-2.297 0-4.422-.347-6.008-.942-.79-.296-1.498-.673-2.027-1.142C3.437 20.345 3 19.7 3 18.896v-12c0-.802.437-1.448.965-1.916.53-.468 1.238-.845 2.027-1.141 1.586-.595 3.71-.943 6.008-.943 2.297 0 4.422.348 6.008.943.79.296 1.498.673 2.027 1.141.527.468.965 1.114.965 1.916Zm-16 0c0 .026.01.17.292.42.28.249.744.519 1.402.765 1.31.491 3.185.815 5.306.815s3.997-.324 5.306-.815c.658-.246 1.121-.516 1.402-.765.282-.25.292-.394.292-.42 0-.025-.01-.17-.292-.419-.28-.249-.744-.519-1.402-.766-1.31-.49-3.185-.815-5.306-.815s-3.997.325-5.306.815c-.658.247-1.121.517-1.402.766-.282.25-.292.394-.292.42Zm0 2.617v1.383c0 .026.01.17.292.42.28.249.744.519 1.402.765 1.31.491 3.185.816 5.306.816s3.997-.325 5.306-.816c.658-.246 1.121-.516 1.402-.765.282-.25.292-.394.292-.42V9.514a8.52 8.52 0 0 1-.992.441c-1.586.595-3.71.942-6.008.942-2.297 0-4.422-.347-6.008-.942A8.52 8.52 0 0 1 5 9.513Zm13.008 4.441c-1.586.595-3.71.942-6.008.942-2.297 0-4.422-.347-6.008-.942A8.518 8.518 0 0 1 5 13.513v1.383c0 .026.01.17.292.42.28.249.744.519 1.402.765 1.31.491 3.185.816 5.306.816s3.997-.325 5.306-.816c.658-.246 1.121-.516 1.402-.765.282-.25.292-.394.292-.42v-1.383a8.72 8.72 0 0 1-.992.441ZM5 17.513v1.383c0 .026.01.17.292.42.28.249.744.519 1.402.765 1.31.491 3.185.816 5.306.816s3.997-.325 5.306-.816c.658-.246 1.121-.516 1.402-.765.282-.25.292-.394.292-.42v-1.383a8.72 8.72 0 0 1-.992.441c-1.586.595-3.71.942-6.008.942-2.297 0-4.422-.347-6.008-.942A8.518 8.518 0 0 1 5 17.513Z"/></svg>