<?xml version="1.0" encoding="UTF-8" standalone="no"?><!DOCTYPE svg PUBLIC "-//W3C//DTD SVG 1.1//EN" "http://www.w3.org/Graphics/SVG/1.1/DTD/svg11.dtd"><svg width="100%" height="100%" viewBox="0 0 200 200" version="1.1" xmlns="http://www.w3.org/2000/svg" xmlns:xlink="http://www.w3.org/1999/xlink" xml:space="preserve" xmlns:serif="http://www.serif.com/" style="fill-rule:evenodd;clip-rule:evenodd;stroke-linejoin:round;stroke-miterlimit:2;"><g transform="matrix(1,0,0,1,-9074.26,-2467.15)"><g transform="matrix(2.08333,0,0,2.08333,-10680.8,-1963.13)"><rect x="9482.44" y="2126.53" width="96" height="96" style="fill:rgb(63,109,170);fill-opacity:0;"/></g><g transform="matrix(3.57143,0,0,3.57143,9115.33,2510.01)"><path d="M15.5,3C15.5,2.451 15.951,2 16.5,2L22.5,2C23.049,2 23.5,2.451 23.5,3L23.5,9C23.5,9.549 23.049,10 22.5,10C21.951,10 21.5,9.549 21.5,9L21.5,5.414L15.207,11.707C15.021,11.887 14.771,11.988 14.512,11.988C13.964,11.988 13.512,11.536 13.512,10.988C13.512,10.729 13.613,10.479 13.793,10.293L20.086,4L16.5,4C15.951,4 15.5,3.549 15.5,3ZM25.207,11.293C25.021,11.113 24.771,11.012 24.512,11.012C23.964,11.012 23.512,11.464 23.512,12.012C23.512,12.271 23.613,12.521 23.793,12.707L26.086,15L16.5,15C15.951,15 15.5,15.451 15.5,16C15.5,16.549 15.951,17 16.5,17L26.086,17L23.793,19.293C23.613,19.479 23.512,19.729 23.512,19.988C23.512,20.536 23.964,20.988 24.512,20.988C24.771,20.988 25.021,20.887 25.207,20.707L29.207,16.707C29.595,16.319 29.595,15.681 29.207,15.293L25.207,11.293ZM8,12C5.531,12 3.5,14.031 3.5,16.5C3.5,18.969 5.531,21 8,21C10.469,21 12.5,18.969 12.5,16.5C12.5,14.031 10.469,12 8,12ZM5.5,16.5C5.5,15.129 6.629,14 8,14C9.371,14 10.5,15.129 10.5,16.5C10.5,17.871 9.371,19 8,19C6.629,19 5.5,17.871 5.5,16.5ZM16.5,30C15.951,30 15.5,29.549 15.5,29C15.5,28.451 15.951,28 16.5,28L20.086,28L13.793,21.707C13.613,21.521 13.512,21.271 13.512,21.012C13.512,20.464 13.964,20.012 14.512,20.012C14.771,20.012 15.021,20.113 15.207,20.293L21.5,26.586L21.5,23C21.5,22.451 21.951,22 22.5,22C23.049,22 23.5,22.451 23.5,23L23.5,29C23.5,29.549 23.049,30 22.5,30L16.5,30Z" style="fill:rgb(63,109,170);fill-rule:nonzero;"/></g></g></svg>