<svg width="32" height="32" viewBox="0 0 32 32" fill="none" xmlns="http://www.w3.org/2000/svg"><path fill-rule="evenodd" clip-rule="evenodd" d="M23.8293 3H25C26.6569 3 28 4.34315 28 6V23C28 24.6569 26.6569 26 25 26H24V27C24 28.6569 22.6569 30 21 30H7C5.34315 30 4 28.6569 4 27V10C4 8.34315 5.34315 7 7 7H8V6C8 4.34315 9.34315 3 11 3H12.1707C12.5825 1.83481 13.6938 1 15 1H21C22.3062 1 23.4175 1.83481 23.8293 3ZM12.1707 5H11C10.4477 5 10 5.44772 10 6V23C10 23.5523 10.4477 24 11 24H25C25.5523 24 26 23.5523 26 23V6C26 5.44771 25.5523 5 25 5H23.8293C23.4175 6.16519 22.3062 7 21 7H15C13.6938 7 12.5825 6.16519 12.1707 5ZM14 4C14 3.44772 14.4477 3 15 3H21C21.5523 3 22 3.44772 22 4C22 4.55228 21.5523 5 21 5H15C14.4477 5 14 4.55228 14 4ZM7 9H8V23C8 24.6569 9.34315 26 11 26H22V27C22 27.5523 21.5523 28 21 28H7C6.44772 28 6 27.5523 6 27V10C6 9.44772 6.44772 9 7 9Z" fill="white"/></svg>