<svg xmlns="http://www.w3.org/2000/svg" width="24" height="24" fill="none" viewBox="0 0 24 24">
  <path fill="#000" d="M9 2a1 1 0 0 0-2 0v1H5a3 3 0 0 0-3 3v11a3 3 0 0 0 3 3h3.512a8.946 8.946 0 0 1-.457-2H5a1 1 0 0 1-1-1v-7h7.343A8.962 8.962 0 0 1 17 8c1.85 0 3.57.558 5 1.516V6a3 3 0 0 0-3-3h-2V2a1 1 0 1 0-2 0v1H9V2Zm8 6H4V6a1 1 0 0 1 1-1h2v1a1 1 0 0 0 2 0V5h6v1a1 1 0 1 0 2 0V5h2a1 1 0 0 1 1 1v2h-3Z"/>
  <path fill="#000" d="M18 14a1 1 0 1 0-2 0v3.077a1 1 0 0 0 1 1h2a1 1 0 1 0 0-2h-1V14Z"/>
  <path fill="#000" d="M10 17a7 7 0 1 1 14 0 7 7 0 0 1-14 0Zm7-5a5 5 0 1 0 0 10 5 5 0 0 0 0-10Z"/>
</svg>
