<svg width="24" height="24" viewBox="0 0 24 24" fill="none" xmlns="http://www.w3.org/2000/svg"><path d="M16.6839 11.7295C17.0869 11.3518 17.1073 10.719 16.7295 10.3161C16.3518 9.91315 15.719 9.89274 15.3161 10.2705L10.6667 14.6293L8.68394 12.7705C8.28103 12.3927 7.6482 12.4131 7.27047 12.8161C6.89274 13.219 6.91315 13.8518 7.31606 14.2295L9.98273 16.7295C10.3674 17.0902 10.966 17.0902 11.3506 16.7295L16.6839 11.7295Z" fill="black"/><path fill-rule="evenodd" clip-rule="evenodd" d="M14 2C15.3062 2 16.4175 2.83481 16.8293 4H17C18.6569 4 20 5.34315 20 7V19C20 20.6569 18.6569 22 17 22H7C5.34315 22 4 20.6569 4 19V7C4 5.34315 5.34315 4 7 4H7.17071C7.58254 2.83481 8.69378 2 10 2H14ZM7 6H7.17071C7.58254 7.16519 8.69378 8 10 8H14C15.3062 8 16.4175 7.16519 16.8293 6H17C17.5523 6 18 6.44772 18 7V19C18 19.5523 17.5523 20 17 20H7C6.44772 20 6 19.5523 6 19V7C6 6.44772 6.44772 6 7 6ZM10 4C9.44772 4 9 4.44772 9 5C9 5.55228 9.44772 6 10 6H14C14.5523 6 15 5.55228 15 5C15 4.44772 14.5523 4 14 4H10Z" fill="black"/></svg>