<?xml version="1.0" encoding="UTF-8" standalone="no"?><!DOCTYPE svg PUBLIC "-//W3C//DTD SVG 1.1//EN" "http://www.w3.org/Graphics/SVG/1.1/DTD/svg11.dtd"><svg width="100%" height="100%" viewBox="0 0 32 32" version="1.1" xmlns="http://www.w3.org/2000/svg" xmlns:xlink="http://www.w3.org/1999/xlink" xml:space="preserve" xmlns:serif="http://www.serif.com/" style="fill-rule:evenodd;clip-rule:evenodd;stroke-linejoin:round;stroke-miterlimit:2;"><g transform="matrix(1,0,0,1,-7938.59,-2259.52)"><g transform="matrix(2.9918,0,0,1.39435,-15934.3,-881.343)"><rect x="7979.44" y="2252.57" width="10.696" height="22.95" style="fill:rgb(136,154,173);fill-opacity:0;"/></g><g transform="matrix(1.03182,-1.03182,0.707107,0.707107,-1803.41,8828.55)"><path d="M7909.86,2264.64C7910.46,2264.64 7910.95,2265.36 7910.95,2266.24C7910.95,2266.24 7910.95,2266.24 7910.95,2266.24C7910.95,2267.12 7910.46,2267.84 7909.86,2267.84C7907.25,2267.84 7900.72,2267.84 7898.11,2267.84C7897.51,2267.84 7897.02,2267.12 7897.02,2266.24C7897.02,2266.24 7897.02,2266.24 7897.02,2266.24C7897.02,2265.36 7897.51,2264.64 7898.11,2264.64C7900.72,2264.64 7907.25,2264.64 7909.86,2264.64Z" style="fill:rgb(136,154,173);"/></g><g transform="matrix(1.03182,1.03182,-0.707107,0.707107,1401.54,-7482.5)"><path d="M7909.86,2264.64C7910.46,2264.64 7910.95,2265.36 7910.95,2266.24C7910.95,2266.24 7910.95,2266.24 7910.95,2266.24C7910.95,2267.12 7910.46,2267.84 7909.86,2267.84C7907.25,2267.84 7900.72,2267.84 7898.11,2267.84C7897.51,2267.84 7897.02,2267.12 7897.02,2266.24C7897.02,2266.24 7897.02,2266.24 7897.02,2266.24C7897.02,2265.36 7897.51,2264.64 7898.11,2264.64C7900.72,2264.64 7907.25,2264.64 7909.86,2264.64Z" style="fill:rgb(136,154,173);"/></g></g></svg>