<?xml version="1.0" encoding="UTF-8" standalone="no"?><!DOCTYPE svg PUBLIC "-//W3C//DTD SVG 1.1//EN" "http://www.w3.org/Graphics/SVG/1.1/DTD/svg11.dtd"><svg width="100%" height="100%" viewBox="0 0 32 32" version="1.1" xmlns="http://www.w3.org/2000/svg" xmlns:xlink="http://www.w3.org/1999/xlink" xml:space="preserve" xmlns:serif="http://www.serif.com/" style="fill-rule:evenodd;clip-rule:evenodd;stroke-linejoin:round;stroke-miterlimit:2;"><g transform="matrix(1,0,0,1,-7997.92,-2259.52)"><g transform="matrix(2.9918,0,0,1.39435,-15875,-881.343)"><rect x="7979.44" y="2252.57" width="10.696" height="22.95" style="fill:rgb(136,154,173);fill-opacity:0;"/></g><g transform="matrix(0.768633,0,0,0.768633,8001.63,2263.22)"><path d="M28.414,6.586C29.19,7.362 29.19,8.638 28.414,9.414L12.414,25.414C11.638,26.19 10.362,26.19 9.586,25.414L3.586,19.414C3.196,19.037 2.975,18.518 2.975,17.975C2.975,16.878 3.878,15.975 4.975,15.975C5.518,15.975 6.037,16.196 6.414,16.586L11,21.172L25.586,6.586C26.362,5.81 27.638,5.81 28.414,6.586Z" style="fill:rgb(136,154,173);fill-rule:nonzero;"/></g></g></svg>