<svg width="129" height="130" xmlns="http://www.w3.org/2000/svg" xmlns:xlink="http://www.w3.org/1999/xlink" xml:space="preserve" overflow="hidden"><defs><filter id="fx0" x="-10%" y="-10%" width="120%" height="120%" filterUnits="userSpaceOnUse" primitiveUnits="userSpaceOnUse"><feComponentTransfer color-interpolation-filters="sRGB"><feFuncR type="discrete" tableValues="0.000000 0.000000"/><feFuncG type="discrete" tableValues="0.000000 0.000000"/><feFuncB type="discrete" tableValues="0.000000 0.000000"/><feFuncA type="linear" slope="0.200000" intercept="0.000000"/></feComponentTransfer><feGaussianBlur stdDeviation="6.666667 6.666667"/></filter><clipPath id="clip1"><rect x="22.6029" y="22.2921" width="81.5044" height="83.8698"/></clipPath></defs><g transform="translate(-1137 -70)"><g><g clip-path="url(#clip1)" filter="url(#fx0)" transform="translate(1138 71)"><g><g><g><g><g><g><path d="M51.5502 76.2909C50.7346 75.2034 49.919 73.3003 48.2877 70.8534 47.4721 69.4941 45.0252 66.7753 44.2096 65.6878 43.6659 64.6003 43.6659 64.0566 43.9377 62.9691 44.2096 61.3378 45.8409 59.9784 47.744 59.9784 49.1034 59.9784 50.4627 61.0659 51.5502 61.8816 52.094 62.4253 52.9096 63.5128 53.4534 64.0566 53.9971 64.6003 53.9971 64.8722 54.5409 65.4159 55.0846 66.2316 55.3565 66.7753 55.0846 65.6878 54.8127 64.3284 54.5409 62.1534 53.9971 59.9784 53.7252 58.3472 53.4534 58.0753 53.1815 56.9878 52.9096 55.6284 52.6377 54.8128 52.3659 53.4534 52.094 52.6378 51.8221 50.4628 51.5502 49.3753 51.2784 48.0159 51.2784 45.5691 52.3659 44.4816 53.1815 43.6659 54.8127 43.3941 55.9002 43.9378 57.2596 44.7534 58.0752 46.6566 58.3471 47.4722 58.8909 48.8316 59.4346 50.7347 59.7065 52.9097 60.2502 55.6284 61.0659 59.7066 61.0659 60.5222 61.0659 59.4347 60.794 57.5316 61.0659 56.4441 61.3377 55.6284 61.8815 54.5409 62.969 54.2691 63.7846 53.9972 64.6002 53.9972 65.4159 53.9972 66.2315 54.2691 67.0471 54.8128 67.5909 55.3566 68.6784 56.9878 68.6784 60.5222 68.6784 60.2503 68.9502 59.1628 68.9502 56.9878 69.494 55.9003 69.7659 55.3566 70.8534 54.8128 71.3971 54.5409 72.2127 54.2691 73.3002 54.2691 74.1159 54.5409 74.6596 54.5409 75.7471 55.3566 76.019 55.9003 76.5627 56.7159 76.8346 59.4347 77.1065 60.5222 77.1065 60.7941 77.3784 59.4347 77.9221 58.6191 79.0096 56.9878 82.8159 56.4441 83.0877 60.2503 83.0877 62.1534 83.0877 61.8816 83.0877 63.2409 83.0877 64.6003 83.0877 65.4159 83.0877 66.5034 83.0877 67.5909 82.8159 70.0378 82.544 71.1253 82.2721 71.9409 81.4565 73.8441 80.6409 74.9316 80.6409 74.9316 77.6502 78.1941 77.3784 79.8253 77.1065 81.4566 77.1065 81.4566 77.1065 82.5441 77.1065 83.6316 77.3784 84.9909 77.3784 84.9909 77.3784 84.9909 75.2034 85.2628 74.1159 84.9909 73.0284 84.7191 71.669 82.8159 71.3971 82.0003 70.8534 81.1847 70.0377 81.1847 69.494 82.0003 68.9502 83.0878 67.5909 84.9909 66.5034 84.9909 64.6002 85.2628 60.794 84.9909 58.0752 84.9909 58.0752 84.9909 58.619 82.2722 57.5315 81.1847 56.7159 80.3691 55.3565 79.0097 54.5409 78.1941L51.5502 76.2909Z" fill="#FFFFFF" fill-rule="nonzero" fill-opacity="1"/></g><g><path d="M51.5502 76.2909C50.7346 75.2034 49.919 73.3003 48.2877 70.8534 47.4721 69.4941 45.0252 66.7753 44.2096 65.6878 43.6659 64.6003 43.6659 64.0566 43.9377 62.9691 44.2096 61.3378 45.8409 59.9784 47.744 59.9784 49.1034 59.9784 50.4627 61.0659 51.5502 61.8816 52.094 62.4253 52.9096 63.5128 53.4534 64.0566 53.9971 64.6003 53.9971 64.8722 54.5409 65.4159 55.0846 66.2316 55.3565 66.7753 55.0846 65.6878 54.8127 64.3284 54.5409 62.1534 53.9971 59.9784 53.7252 58.3472 53.4534 58.0753 53.1815 56.9878 52.9096 55.6284 52.6377 54.8128 52.3659 53.4534 52.094 52.6378 51.8221 50.4628 51.5502 49.3753 51.2784 48.0159 51.2784 45.5691 52.3659 44.4816 53.1815 43.6659 54.8127 43.3941 55.9002 43.9378 57.2596 44.7534 58.0752 46.6566 58.3471 47.4722 58.8909 48.8316 59.4346 50.7347 59.7065 52.9097 60.2502 55.6284 61.0659 59.7066 61.0659 60.5222 61.0659 59.4347 60.794 57.5316 61.0659 56.4441 61.3377 55.6284 61.8815 54.5409 62.969 54.2691 63.7846 53.9972 64.6002 53.9972 65.4159 53.9972 66.2315 54.2691 67.0471 54.8128 67.5909 55.3566 68.6784 56.9878 68.6784 60.5222 68.6784 60.2503 68.9502 59.1628 68.9502 56.9878 69.494 55.9003 69.7659 55.3566 70.8534 54.8128 71.3971 54.5409 72.2127 54.2691 73.3002 54.2691 74.1159 54.5409 74.6596 54.5409 75.7471 55.3566 76.019 55.9003 76.5627 56.7159 76.8346 59.4347 77.1065 60.5222 77.1065 60.7941 77.3784 59.4347 77.9221 58.6191 79.0096 56.9878 82.8159 56.4441 83.0877 60.2503 83.0877 62.1534 83.0877 61.8816 83.0877 63.2409 83.0877 64.6003 83.0877 65.4159 83.0877 66.5034 83.0877 67.5909 82.8159 70.0378 82.544 71.1253 82.2721 71.9409 81.4565 73.8441 80.6409 74.9316 80.6409 74.9316 77.6502 78.1941 77.3784 79.8253 77.1065 81.4566 77.1065 81.4566 77.1065 82.5441 77.1065 83.6316 77.3784 84.9909 77.3784 84.9909 77.3784 84.9909 75.2034 85.2628 74.1159 84.9909 73.0284 84.7191 71.669 82.8159 71.3971 82.0003 70.8534 81.1847 70.0377 81.1847 69.494 82.0003 68.9502 83.0878 67.5909 84.9909 66.5034 84.9909 64.6002 85.2628 60.794 84.9909 58.0752 84.9909 58.0752 84.9909 58.619 82.2722 57.5315 81.1847 56.7159 80.3691 55.3565 79.0097 54.5409 78.1941L51.5502 76.2909Z" stroke="#000000" stroke-width="2.03906" stroke-linecap="round" stroke-linejoin="round" stroke-miterlimit="4" stroke-opacity="1" fill="none" fill-rule="nonzero"/></g><g><path d="M74.1159 77.1066 74.1159 67.8628" stroke="#000000" stroke-width="2.03906" stroke-linecap="round" stroke-linejoin="miter" stroke-miterlimit="4" stroke-opacity="1" fill="none" fill-rule="nonzero"/></g><g><path d="M68.6784 77.1066 68.4065 67.8628" stroke="#000000" stroke-width="2.03906" stroke-linecap="round" stroke-linejoin="miter" stroke-miterlimit="4" stroke-opacity="1" fill="none" fill-rule="nonzero"/></g><g><path d="M63.2409 67.8628 63.2409 77.1066" stroke="#000000" stroke-width="2.03906" stroke-linecap="round" stroke-linejoin="miter" stroke-miterlimit="4" stroke-opacity="1" fill="none" fill-rule="nonzero"/></g></g></g></g></g></g></g><g><g><g><g><path d="M1186.72 144.462C1185.91 143.375 1185.09 141.472 1183.46 139.025 1182.64 137.666 1180.2 134.947 1179.38 133.859 1178.84 132.772 1178.84 132.228 1179.11 131.141 1179.38 129.509 1181.01 128.15 1182.92 128.15 1184.28 128.15 1185.63 129.238 1186.72 130.053 1187.27 130.597 1188.08 131.684 1188.62 132.228 1189.17 132.772 1189.17 133.044 1189.71 133.587 1190.26 134.403 1190.53 134.947 1190.26 133.859 1189.98 132.5 1189.71 130.325 1189.17 128.15 1188.9 126.519 1188.62 126.247 1188.35 125.159 1188.08 123.8 1187.81 122.984 1187.54 121.625 1187.27 120.809 1186.99 118.634 1186.72 117.547 1186.45 116.188 1186.45 113.741 1187.54 112.653 1188.35 111.838 1189.98 111.566 1191.07 112.109 1192.43 112.925 1193.25 114.828 1193.52 115.644 1194.06 117.003 1194.61 118.906 1194.88 121.081 1195.42 123.8 1196.24 127.878 1196.24 128.694 1196.24 127.606 1195.97 125.703 1196.24 124.616 1196.51 123.8 1197.05 122.713 1198.14 122.441 1198.96 122.169 1199.77 122.169 1200.59 122.169 1201.4 122.441 1202.22 122.984 1202.76 123.528 1203.85 125.159 1203.85 128.694 1203.85 128.422 1204.12 127.334 1204.12 125.159 1204.67 124.072 1204.94 123.528 1206.03 122.984 1206.57 122.713 1207.38 122.441 1208.47 122.441 1209.29 122.713 1209.83 122.713 1210.92 123.528 1211.19 124.072 1211.73 124.887 1212.01 127.606 1212.28 128.694 1212.28 128.966 1212.55 127.606 1213.09 126.791 1214.18 125.159 1217.99 124.616 1218.26 128.422 1218.26 130.325 1218.26 130.053 1218.26 131.413 1218.26 132.772 1218.26 133.587 1218.26 134.675 1218.26 135.762 1217.99 138.209 1217.72 139.297 1217.44 140.113 1216.63 142.016 1215.81 143.103 1215.81 143.103 1212.82 146.366 1212.55 147.997 1212.28 149.628 1212.28 149.628 1212.28 150.716 1212.28 151.803 1212.55 153.163 1212.55 153.163 1212.55 153.163 1210.38 153.434 1209.29 153.163 1208.2 152.891 1206.84 150.988 1206.57 150.172 1206.03 149.356 1205.21 149.356 1204.67 150.172 1204.12 151.259 1202.76 153.163 1201.68 153.163 1199.77 153.434 1195.97 153.163 1193.25 153.163 1193.25 153.163 1193.79 150.444 1192.7 149.356 1191.89 148.541 1190.53 147.181 1189.71 146.366L1186.72 144.462Z" fill="#FFFFFF" fill-rule="nonzero" fill-opacity="1"/></g><g><path d="M1186.72 144.462C1185.91 143.375 1185.09 141.472 1183.46 139.025 1182.64 137.666 1180.2 134.947 1179.38 133.859 1178.84 132.772 1178.84 132.228 1179.11 131.141 1179.38 129.509 1181.01 128.15 1182.92 128.15 1184.28 128.15 1185.63 129.238 1186.72 130.053 1187.27 130.597 1188.08 131.684 1188.62 132.228 1189.17 132.772 1189.17 133.044 1189.71 133.587 1190.26 134.403 1190.53 134.947 1190.26 133.859 1189.98 132.5 1189.71 130.325 1189.17 128.15 1188.9 126.519 1188.62 126.247 1188.35 125.159 1188.08 123.8 1187.81 122.984 1187.54 121.625 1187.27 120.809 1186.99 118.634 1186.72 117.547 1186.45 116.188 1186.45 113.741 1187.54 112.653 1188.35 111.838 1189.98 111.566 1191.07 112.109 1192.43 112.925 1193.25 114.828 1193.52 115.644 1194.06 117.003 1194.61 118.906 1194.88 121.081 1195.42 123.8 1196.24 127.878 1196.24 128.694 1196.24 127.606 1195.97 125.703 1196.24 124.616 1196.51 123.8 1197.05 122.713 1198.14 122.441 1198.96 122.169 1199.77 122.169 1200.59 122.169 1201.4 122.441 1202.22 122.984 1202.76 123.528 1203.85 125.159 1203.85 128.694 1203.85 128.422 1204.12 127.334 1204.12 125.159 1204.67 124.072 1204.94 123.528 1206.03 122.984 1206.57 122.713 1207.38 122.441 1208.47 122.441 1209.29 122.713 1209.83 122.713 1210.92 123.528 1211.19 124.072 1211.73 124.887 1212.01 127.606 1212.28 128.694 1212.28 128.966 1212.55 127.606 1213.09 126.791 1214.18 125.159 1217.99 124.616 1218.26 128.422 1218.26 130.325 1218.26 130.053 1218.26 131.413 1218.26 132.772 1218.26 133.587 1218.26 134.675 1218.26 135.762 1217.99 138.209 1217.72 139.297 1217.44 140.113 1216.63 142.016 1215.81 143.103 1215.81 143.103 1212.82 146.366 1212.55 147.997 1212.28 149.628 1212.28 149.628 1212.28 150.716 1212.28 151.803 1212.55 153.163 1212.55 153.163 1212.55 153.163 1210.38 153.434 1209.29 153.163 1208.2 152.891 1206.84 150.988 1206.57 150.172 1206.03 149.356 1205.21 149.356 1204.67 150.172 1204.12 151.259 1202.76 153.163 1201.68 153.163 1199.77 153.434 1195.97 153.163 1193.25 153.163 1193.25 153.163 1193.79 150.444 1192.7 149.356 1191.89 148.541 1190.53 147.181 1189.71 146.366L1186.72 144.462Z" stroke="#000000" stroke-width="2.03906" stroke-linecap="round" stroke-linejoin="round" stroke-miterlimit="4" stroke-opacity="1" fill="none" fill-rule="nonzero"/></g><g><path d="M1209.29 145.278 1209.29 136.034" stroke="#000000" stroke-width="2.03906" stroke-linecap="round" stroke-linejoin="miter" stroke-miterlimit="4" stroke-opacity="1" fill="none" fill-rule="nonzero"/></g><g><path d="M1203.85 145.278 1203.58 136.034" stroke="#000000" stroke-width="2.03906" stroke-linecap="round" stroke-linejoin="miter" stroke-miterlimit="4" stroke-opacity="1" fill="none" fill-rule="nonzero"/></g><g><path d="M1198.41 136.034 1198.41 145.278" stroke="#000000" stroke-width="2.03906" stroke-linecap="round" stroke-linejoin="miter" stroke-miterlimit="4" stroke-opacity="1" fill="none" fill-rule="nonzero"/></g></g></g></g></g></g></svg>