<?xml version="1.0" encoding="UTF-8" standalone="no"?><!DOCTYPE svg PUBLIC "-//W3C//DTD SVG 1.1//EN" "http://www.w3.org/Graphics/SVG/1.1/DTD/svg11.dtd"><svg width="100%" height="100%" viewBox="0 0 100 100" version="1.1" xmlns="http://www.w3.org/2000/svg" xmlns:xlink="http://www.w3.org/1999/xlink" xml:space="preserve" xmlns:serif="http://www.serif.com/" style="fill-rule:evenodd;clip-rule:evenodd;stroke-linejoin:round;stroke-miterlimit:2;"><g transform="matrix(1,0,0,1,-3445.52,-724.01)"><g transform="matrix(0.591073,0,0,0.588235,1506.35,318.71)"><path d="M3449.95,702.61L3449.95,845.41C3449.95,852.916 3443.89,859.01 3436.41,859.01L3294.3,859.01C3286.83,859.01 3280.77,852.916 3280.77,845.41L3280.77,702.61C3280.77,695.104 3286.83,689.01 3294.3,689.01L3436.41,689.01C3443.89,689.01 3449.95,695.104 3449.95,702.61Z" style="fill:rgb(221,133,129);"/></g><g transform="matrix(0.078125,0,0,0.078125,3495.52,774.01)"><g transform="matrix(1,0,0,1,-320,-320)"><path d="M320,64C306.7,64 296,74.7 296,88L296,97.7C214.6,109.3 152,179.4 152,264L152,278.5C152,316.2 142,353.2 123,385.8L101.1,423.2C97.8,429 96,435.5 96,442.2C96,463.1 112.9,480 133.8,480L506.2,480C527.1,480 544,463.1 544,442.2C544,435.5 542.2,428.9 538.9,423.2L517,385.7C498,353.1 488,316.1 488,278.4L488,263.9C488,179.3 425.4,109.2 344,97.6L344,87.9C344,74.6 333.3,63.9 320,63.9L320,64ZM488.4,432L151.5,432L164.4,409.9C187.7,370 200,324.6 200,278.5L200,264C200,197.7 253.7,144 320,144C386.3,144 440,197.7 440,264L440,278.5C440,324.7 452.3,370 475.5,409.9L488.4,432ZM252.1,528C262,556 288.7,576 320,576C351.3,576 378,556 387.9,528L252.1,528Z" style="fill-rule:nonzero;"/></g></g></g></svg>