<?xml version="1.0" encoding="UTF-8" standalone="no"?><!DOCTYPE svg PUBLIC "-//W3C//DTD SVG 1.1//EN" "http://www.w3.org/Graphics/SVG/1.1/DTD/svg11.dtd"><svg width="100%" height="100%" viewBox="0 0 32 32" version="1.1" xmlns="http://www.w3.org/2000/svg" xmlns:xlink="http://www.w3.org/1999/xlink" xml:space="preserve" xmlns:serif="http://www.serif.com/" style="fill-rule:evenodd;clip-rule:evenodd;stroke-linejoin:round;stroke-miterlimit:2;"><g transform="matrix(1,0,0,1,-7992.92,-2219.34)"><g><g transform="matrix(2.9918,0,0,1.39435,-15880,-921.527)"><rect x="7979.44" y="2252.57" width="10.696" height="22.95" style="fill:rgb(136,154,173);fill-opacity:0;"/></g><g><g transform="matrix(1,0,0,1,7992.92,2218.77)"><path d="M13.176,13.235C10.074,13.789 7.777,16.38 6.781,17.625C6.436,18.057 5.807,18.127 5.375,17.782C4.944,17.437 4.874,16.808 5.219,16.376C6.223,15.121 8.926,11.962 12.824,11.266C16.405,10.627 20.579,12.105 25,17.841L25,15C25,14.448 25.448,14 26,14C26.552,14 27,14.448 27,15L27,20.982C27.001,21.043 26.997,21.104 26.987,21.165C26.984,21.183 26.98,21.2 26.976,21.218C26.973,21.232 26.97,21.245 26.966,21.258C26.963,21.27 26.96,21.282 26.956,21.294C26.889,21.512 26.748,21.708 26.542,21.841C26.362,21.957 26.158,22.008 25.959,22L20,22C19.448,22 19,21.552 19,21C19,20.448 19.448,20 20,20L24.113,20C19.668,13.78 15.891,12.75 13.176,13.235Z" style="fill:rgb(136,154,173);fill-rule:nonzero;"/></g><g transform="matrix(1,0,0,1,7992.92,2218.77)"><path d="M15,19C15,20.105 14.105,21 13,21C11.895,21 11,20.105 11,19C11,17.895 11.895,17 13,17C14.105,17 15,17.895 15,19Z" style="fill:rgb(136,154,173);fill-rule:nonzero;"/></g></g></g></g></svg>