<svg width="32" height="32" viewBox="0 0 32 32" fill="none" xmlns="http://www.w3.org/2000/svg"><path d="M22.7071 13.7071C23.0976 13.3166 23.0976 12.6834 22.7071 12.2929C22.3166 11.9024 21.6834 11.9024 21.2929 12.2929L14 19.5858L10.7071 16.2929C10.3166 15.9024 9.68342 15.9024 9.29289 16.2929C8.90237 16.6834 8.90237 17.3166 9.29289 17.7071L13.2929 21.7071C13.4804 21.8946 13.7348 22 14 22C14.2652 22 14.5196 21.8946 14.7071 21.7071L22.7071 13.7071Z" fill="black"/><path fill-rule="evenodd" clip-rule="evenodd" d="M24 4H22.8293C22.4175 2.83481 21.3062 2 20 2H12C10.6938 2 9.58254 2.83481 9.17071 4H8C6.34315 4 5 5.34314 5 7V27C5 28.6569 6.34315 30 8 30H24C25.6569 30 27 28.6569 27 27V7C27 5.34315 25.6569 4 24 4ZM8 6H9.17071C9.58254 7.16519 10.6938 8 12 8H20C21.3062 8 22.4175 7.16519 22.8293 6H24C24.5523 6 25 6.44771 25 7V27C25 27.5523 24.5523 28 24 28H8C7.44772 28 7 27.5523 7 27V7C7 6.44772 7.44771 6 8 6ZM12 4C11.4477 4 11 4.44772 11 5C11 5.55228 11.4477 6 12 6H20C20.5523 6 21 5.55228 21 5C21 4.44772 20.5523 4 20 4H12Z" fill="black"/></svg>