<svg xmlns="http://www.w3.org/2000/svg" width="24" height="24" fill="none" viewBox="0 0 24 24"><path fill="#000" d="M5 6a1 1 0 0 0 0 2h7.5a1 1 0 1 0 0-2H5Zm10 .5a.5.5 0 0 1 .5-.5h1a.5.5 0 0 1 .5.5v1a.5.5 0 0 1-.5.5h-1a.5.5 0 0 1-.5-.5v-1Zm3.5-.5a.5.5 0 0 0-.5.5v1a.5.5 0 0 0 .5.5h1a.5.5 0 0 0 .5-.5v-1a.5.5 0 0 0-.5-.5h-1Z"/><path fill="#000" d="M1 6a3 3 0 0 1 3-3h16a3 3 0 0 1 3 3v12a3 3 0 0 1-3 3H4a3 3 0 0 1-3-3V6Zm3-1a1 1 0 0 0-1 1v3h18V6a1 1 0 0 0-1-1H4ZM3 18a1 1 0 0 0 1 1h16a1 1 0 0 0 1-1v-7H3v7Z"/></svg>