<svg xmlns="http://www.w3.org/2000/svg" width="24" height="24" fill="none" viewBox="0 0 24 24">
  <path fill="#000" d="M10 2a1 1 0 0 0-1 1v1.582a7.89 7.89 0 0 0-.124.051L7.757 3.515a1 1 0 0 0-1.414 0L3.515 6.343a1 1 0 0 0 0 1.414l1.118 1.119A7.994 7.994 0 0 0 4.582 9H3a1 1 0 0 0-1 1v4a1 1 0 0 0 1 1h1.582l.051.124-1.118 1.119a1 1 0 0 0 0 1.414l2.828 2.828a1 1 0 0 0 1.414 0l1.119-1.118.124.051V21a1 1 0 0 0 1 1h1.277C10.457 20.817 10 19.458 10 18v-.341a5.96 5.96 0 0 1-.854-.38 1 1 0 0 0-1.183.172l-.913.913-1.414-1.414.913-.913a1 1 0 0 0 .172-1.183 5.955 5.955 0 0 1-.473-1.14A1 1 0 0 0 5.29 13H4v-2h1.29a1 1 0 0 0 .958-.715 5.97 5.97 0 0 1 .473-1.139 1 1 0 0 0-.173-1.183l-.912-.913L7.05 5.636l.913.912a1 1 0 0 0 1.183.173c.36-.195.74-.354 1.14-.473A1 1 0 0 0 11 5.29V4h2v1.29a1 1 0 0 0 .715.958c.398.119.78.278 1.139.473a1 1 0 0 0 1.183-.172l.913-.913 1.414 1.414-.913.913a1.04 1.04 0 0 0-.156.202 3.846 3.846 0 0 1 2.436.346l.754-.754a1 1 0 0 0 0-1.414l-2.828-2.828a1 1 0 0 0-1.414 0l-1.119 1.118A7.804 7.804 0 0 0 15 4.582V3a1 1 0 0 0-1-1h-4Z"/>
  <path fill="#000" d="M14.874 9.218A4 4 0 1 0 10 15.465v-2.907c0-.112.005-.221.013-.328a1.994 1.994 0 0 1 .548-1.62c.895-1.342 2.681-1.842 4.044-1.437.099.029.187.042.269.045Zm5.766 6.014a1 1 0 0 1 .128 1.408l-2.5 3a1 1 0 0 1-1.475.067l-1.5-1.5a1 1 0 0 1 1.414-1.414l.726.726 1.799-2.16a1 1 0 0 1 1.408-.127Z"/>
  <path fill="#000" d="M19.133 10.495A1.782 1.782 0 0 0 18 10.1c-.371 0-.79.112-1.133.396-.58.479-1.611.956-2.831.594-.869-.258-2.036.3-2.036 1.468V18c0 2.458 1.932 4.875 5.591 5.924.267.076.551.076.818 0C22.068 22.874 24 20.458 24 18v-5.442c0-1.168-1.167-1.726-2.036-1.468-1.22.362-2.25-.115-2.83-.595ZM14 13.136c1.716.32 3.144-.331 4-.986.856.655 2.284 1.305 4 .987V18c0 1.275-1.018 3.058-4 3.96-2.982-.902-4-2.685-4-3.96v-4.864Z"/>
</svg>
