<?xml version="1.0" encoding="UTF-8" standalone="no"?><!DOCTYPE svg PUBLIC "-//W3C//DTD SVG 1.1//EN" "http://www.w3.org/Graphics/SVG/1.1/DTD/svg11.dtd"><svg width="100%" height="100%" viewBox="0 0 200 200" version="1.1" xmlns="http://www.w3.org/2000/svg" xmlns:xlink="http://www.w3.org/1999/xlink" xml:space="preserve" xmlns:serif="http://www.serif.com/" style="fill-rule:evenodd;clip-rule:evenodd;stroke-linejoin:round;stroke-miterlimit:2;"><g transform="matrix(1,0,0,1,-8216.32,-2821.13)"><g transform="matrix(2.00733,0,0,2.00733,-141722,-61823)"><circle cx="74745.1" cy="32253.9" r="49.817" style="fill:rgb(136,154,173);"/></g><g transform="matrix(3.84371,0,0,3.78749,8254.82,2857.53)"><path d="M22.707,13.707C23.098,13.317 23.098,12.683 22.707,12.293C22.317,11.902 21.683,11.902 21.293,12.293L14,19.586L10.707,16.293C10.317,15.902 9.683,15.902 9.293,16.293C8.902,16.683 8.902,17.317 9.293,17.707L13.293,21.707C13.48,21.895 13.735,22 14,22C14.265,22 14.52,21.895 14.707,21.707L22.707,13.707Z" style="fill:white;fill-rule:nonzero;"/></g><g transform="matrix(3.84371,0,0,3.78749,8254.82,2857.53)"><path d="M24,4L22.829,4C22.418,2.835 21.306,2 20,2L12,2C10.694,2 9.583,2.835 9.171,4L8,4C6.343,4 5,5.343 5,7L5,27C5,28.657 6.343,30 8,30L24,30C25.657,30 27,28.657 27,27L27,7C27,5.343 25.657,4 24,4ZM8,6L9.171,6C9.583,7.165 10.694,8 12,8L20,8C21.306,8 22.418,7.165 22.829,6L24,6C24.552,6 25,6.448 25,7L25,27C25,27.552 24.552,28 24,28L8,28C7.448,28 7,27.552 7,27L7,7C7,6.448 7.448,6 8,6ZM12,4C11.448,4 11,4.448 11,5C11,5.552 11.448,6 12,6L20,6C20.552,6 21,5.552 21,5C21,4.448 20.552,4 20,4L12,4Z" style="fill:white;"/></g></g></svg>