<svg width="32" height="32" viewBox="0 0 32 32" fill="none" xmlns="http://www.w3.org/2000/svg"><path d="M15 9.00001C15 8.44772 15.4477 8.00001 16 8.00001C16.5522 8.00001 17 8.44772 17 9.00001V18C17 18.5523 16.5522 19 16 19C15.4477 19 15 18.5523 15 18V9.00001Z" fill="white"/><path d="M17 22C17 22.5523 16.5522 23 16 23C15.4477 23 15 22.5523 15 22C15 21.4477 15.4477 21 16 21C16.5522 21 17 21.4477 17 22Z" fill="white"/><path fill-rule="evenodd" clip-rule="evenodd" d="M13.8787 1.87713L1.87721 13.8787C0.705644 15.0503 0.705645 16.9498 1.87721 18.1213L13.8787 30.1229C15.0503 31.2945 16.9498 31.2945 18.1214 30.1229L30.1229 18.1213C31.2945 16.9498 31.2945 15.0503 30.1229 13.8787L18.1213 1.87712C16.9498 0.705547 15.0503 0.705551 13.8787 1.87713ZM3.29143 15.2929L15.2929 3.29134C15.6834 2.90081 16.3166 2.90081 16.7071 3.29134L28.7087 15.2929C29.0992 15.6834 29.0992 16.3166 28.7087 16.7071L16.7071 28.7087C16.3166 29.0992 15.6834 29.0992 15.2929 28.7087L3.29143 16.7071C2.9009 16.3166 2.9009 15.6834 3.29143 15.2929Z" fill="white"/></svg>