<svg width="24" height="24" viewBox="0 0 24 24" fill="none" xmlns="http://www.w3.org/2000/svg"><path fill-rule="evenodd" clip-rule="evenodd" d="M15.3207 10.7381C16.351 9.82222 17 8.4869 17 7C17 4.23858 14.7614 2 12 2C9.23858 2 7 4.23858 7 7C7 8.4869 7.64904 9.82222 8.67927 10.7381C5.90874 12.038 4 14.9132 4 18.2188C4 20.3071 5.69292 22 7.78125 22H16.2188C18.3071 22 20 20.3071 20 18.2188C20 14.9132 18.0913 12.038 15.3207 10.7381ZM9 7C9 5.34315 10.3431 4 12 4C13.6569 4 15 5.34315 15 7C15 8.65685 13.6569 10 12 10C10.3431 10 9 8.65685 9 7ZM12 12C8.71507 12 6 14.755 6 18.2188C6 19.2025 6.79749 20 7.78125 20H16.2188C17.2025 20 18 19.2025 18 18.2188C18 14.755 15.2849 12 12 12Z" fill="black"/></svg>