<?xml version="1.0" encoding="UTF-8" standalone="no"?><!DOCTYPE svg PUBLIC "-//W3C//DTD SVG 1.1//EN" "http://www.w3.org/Graphics/SVG/1.1/DTD/svg11.dtd"><svg width="100%" height="100%" viewBox="0 0 200 200" version="1.1" xmlns="http://www.w3.org/2000/svg" xmlns:xlink="http://www.w3.org/1999/xlink" xml:space="preserve" xmlns:serif="http://www.serif.com/" style="fill-rule:evenodd;clip-rule:evenodd;stroke-linejoin:round;stroke-miterlimit:2;"><g transform="matrix(1,0,0,1,-9320.98,-2467.15)"><g transform="matrix(2.08333,0,0,2.08333,-10434.1,-1963.13)"><rect x="9482.44" y="2126.53" width="96" height="96" style="fill:rgb(63,109,170);fill-opacity:0;"/></g><g transform="matrix(3.57143,0,0,3.57143,9363.84,2510.01)"><path d="M22.707,12.707C23.098,12.317 23.098,11.683 22.707,11.293C22.317,10.902 21.683,10.902 21.293,11.293L14,18.586L10.707,15.297C10.316,14.907 9.683,14.907 9.293,15.298C8.902,15.688 8.903,16.322 9.293,16.712L13.293,20.708C13.684,21.098 14.317,21.098 14.707,20.707L22.707,12.707Z" style="fill:rgb(63,109,170);fill-rule:nonzero;"/></g><g transform="matrix(3.57143,0,0,3.57143,9363.84,2510.01)"><path d="M16.832,2.445C16.647,2.167 16.334,2 16,2C15.666,2 15.353,2.167 15.168,2.445C14.791,3.011 13.715,4.031 12.158,4.599C10.646,5.149 8.69,5.272 6.462,4.113C6.152,3.952 5.78,3.964 5.481,4.145C5.182,4.326 5,4.651 5,5L5,18C5,22.505 8.355,27.856 15.725,29.962C15.905,30.013 16.095,30.013 16.275,29.962C23.645,27.856 27,22.505 27,18L27,5C27,4.651 26.818,4.326 26.519,4.145C26.22,3.964 25.848,3.952 25.538,4.113C23.31,5.272 21.354,5.149 19.842,4.599C18.285,4.031 17.209,3.011 16.832,2.445ZM7,18L7,6.515C9.201,7.265 11.209,7.073 12.842,6.478C14.165,5.996 15.247,5.248 16,4.525C16.753,5.248 17.835,5.996 19.158,6.478C20.791,7.073 22.799,7.265 25,6.515L25,18C25,21.446 22.428,26.015 16,27.958C9.572,26.015 7,21.446 7,18Z" style="fill:rgb(63,109,170);"/></g></g></svg>