<?xml version="1.0" encoding="UTF-8" standalone="no"?><!DOCTYPE svg PUBLIC "-//W3C//DTD SVG 1.1//EN" "http://www.w3.org/Graphics/SVG/1.1/DTD/svg11.dtd"><svg width="100%" height="100%" viewBox="0 0 200 200" version="1.1" xmlns="http://www.w3.org/2000/svg" xmlns:xlink="http://www.w3.org/1999/xlink" xml:space="preserve" xmlns:serif="http://www.serif.com/" style="fill-rule:evenodd;clip-rule:evenodd;stroke-linejoin:round;stroke-miterlimit:2;"><g transform="matrix(1,0,0,1,-9572.13,-2467.15)"><g transform="matrix(2.08333,0,0,2.08333,-10183,-1963.13)"><rect x="9482.44" y="2126.53" width="96" height="96" style="fill:rgb(63,109,170);fill-opacity:0;"/></g><g transform="matrix(3.52148,0,0,3.52148,9615.79,2510.81)"><path d="M16,10C12.686,10 10,12.686 10,16C10,19.314 12.686,22 16,22C19.314,22 22,19.314 22,16C22,12.686 19.314,10 16,10ZM12,16C12,13.791 13.791,12 16,12C18.209,12 20,13.791 20,16C20,18.209 18.209,20 16,20C13.791,20 12,18.209 12,16Z" style="fill:rgb(63,109,170);"/></g><g transform="matrix(3.52148,0,0,3.52148,9615.79,2510.81)"><path d="M16,7C12.862,7 9.948,8.145 7.586,9.622C5.226,11.097 3.345,12.948 2.268,14.468C1.595,15.418 1.675,16.648 2.348,17.525C4.581,20.435 9.724,25 16,25C22.276,25 27.419,20.435 29.652,17.525C30.325,16.648 30.405,15.418 29.732,14.468C28.655,12.948 26.774,11.097 24.414,9.622C22.052,8.145 19.138,7 16,7ZM3.899,15.625C4.813,14.336 6.494,12.663 8.646,11.318C10.795,9.974 13.344,9 16,9C18.656,9 21.205,9.974 23.354,11.318C25.506,12.663 27.187,14.336 28.1,15.625C28.233,15.812 28.24,16.08 28.065,16.308C25.987,19.016 21.362,23 16,23C10.638,23 6.013,19.016 3.935,16.308C3.76,16.08 3.766,15.812 3.899,15.625Z" style="fill:rgb(63,109,170);"/></g></g></svg>