<?xml version="1.0" encoding="UTF-8" standalone="no"?><!DOCTYPE svg PUBLIC "-//W3C//DTD SVG 1.1//EN" "http://www.w3.org/Graphics/SVG/1.1/DTD/svg11.dtd"><svg width="100%" height="100%" viewBox="0 0 200 200" version="1.1" xmlns="http://www.w3.org/2000/svg" xmlns:xlink="http://www.w3.org/1999/xlink" xml:space="preserve" xmlns:serif="http://www.serif.com/" style="fill-rule:evenodd;clip-rule:evenodd;stroke-linejoin:round;stroke-miterlimit:2;"><g transform="matrix(1,0,0,1,-8276.47,-2821.13)"><g transform="matrix(2.00733,0,0,2.00733,-141662,-61823)"><circle cx="74745.1" cy="32253.9" r="49.817" style="fill:white;"/></g><g transform="matrix(1,0,0,1,0.844568,351.053)"><g transform="matrix(5.41747,0,0,5.41747,8288.95,2472.51)"><path d="M7.515,9.515C12.201,4.828 19.799,4.828 24.485,9.515C29.172,14.201 29.172,21.799 24.485,26.485C24.095,26.876 24.095,27.509 24.485,27.9C24.876,28.29 25.509,28.29 25.9,27.9C31.367,22.432 31.367,13.568 25.9,8.101C20.432,2.633 11.568,2.633 6.101,8.101C0.633,13.568 0.633,22.432 6.101,27.9C6.491,28.29 7.124,28.29 7.515,27.9C7.905,27.509 7.905,26.876 7.515,26.485C2.828,21.799 2.828,14.201 7.515,9.515Z" style="fill:rgb(14,48,82);fill-rule:nonzero;"/></g><g transform="matrix(5.41747,0,0,5.41747,8288.95,2472.51)"><path d="M16,20C17.105,20 18,19.105 18,18C18,17.821 17.976,17.647 17.932,17.482L23.707,11.707C24.098,11.317 24.098,10.684 23.707,10.293C23.317,9.902 22.683,9.902 22.293,10.293L16.518,16.068C16.353,16.024 16.179,16 16,16C14.895,16 14,16.895 14,18C14,19.105 14.895,20 16,20Z" style="fill:rgb(14,48,82);fill-rule:nonzero;"/></g><g transform="matrix(5.41747,0,0,5.41747,8288.95,2472.51)"><path d="M14.75,22C14.336,22 14,22.336 14,22.75L14,23.25C14,23.664 14.336,24 14.75,24L17.25,24C17.664,24 18,23.664 18,23.25L18,22.75C18,22.336 17.664,22 17.25,22L14.75,22Z" style="fill:rgb(14,48,82);fill-rule:nonzero;"/></g></g></g></svg>