<?xml version="1.0" encoding="UTF-8" standalone="no"?><!DOCTYPE svg PUBLIC "-//W3C//DTD SVG 1.1//EN" "http://www.w3.org/Graphics/SVG/1.1/DTD/svg11.dtd"><svg width="100%" height="100%" viewBox="0 0 100 100" version="1.1" xmlns="http://www.w3.org/2000/svg" xmlns:xlink="http://www.w3.org/1999/xlink" xml:space="preserve" xmlns:serif="http://www.serif.com/" style="fill-rule:evenodd;clip-rule:evenodd;stroke-linejoin:round;stroke-miterlimit:2;"><g transform="matrix(1,0,0,1,-3315.36,-724.01)"><g transform="matrix(0.591073,0,0,0.588235,1376.19,318.71)"><path d="M3449.95,702.61L3449.95,845.41C3449.95,852.916 3443.89,859.01 3436.41,859.01L3294.3,859.01C3286.83,859.01 3280.77,852.916 3280.77,845.41L3280.77,702.61C3280.77,695.104 3286.83,689.01 3294.3,689.01L3436.41,689.01C3443.89,689.01 3449.95,695.104 3449.95,702.61Z" style="fill:rgb(126,177,101);"/></g><g transform="matrix(2.08333,0,0,2.08333,3365.36,774.01)"><g transform="matrix(1,0,0,1,-12,-12)"><path d="M9,2C9,1.451 8.549,1 8,1C7.451,1 7,1.451 7,2L7,3L5,3C3.354,3 2,4.354 2,6L2,17C2,18.646 3.354,20 5,20L8.512,20C8.283,19.353 8.13,18.682 8.055,18L5,18C4.451,18 4,17.549 4,17L4,10L11.343,10C12.943,8.703 14.941,7.997 17,8C18.85,8 20.57,8.558 22,9.516L22,6C22,4.354 20.646,3 19,3L17,3L17,2C17,1.451 16.549,1 16,1C15.451,1 15,1.451 15,2L15,3L9,3L9,2ZM20,8L4,8L4,6C4,5.451 4.451,5 5,5L7,5L7,6C7,6.549 7.451,7 8,7C8.549,7 9,6.549 9,6L9,5L15,5L15,6C15,6.549 15.451,7 16,7C16.549,7 17,6.549 17,6L17,5L19,5C19.549,5 20,5.451 20,6L20,8Z" style="fill-rule:nonzero;"/><path d="M18,14C18,13.451 17.549,13 17,13C16.451,13 16,13.451 16,14L16,17.077C16,17.626 16.451,18.077 17,18.077L19,18.077C19.549,18.077 20,17.626 20,17.077C20,16.528 19.549,16.077 19,16.077L18,16.077L18,14Z" style="fill-rule:nonzero;"/><path d="M10,17C10,13.16 13.16,10 17,10C20.84,10 24,13.16 24,17C24,20.84 20.84,24 17,24C13.16,24 10,20.84 10,17ZM17,12C14.257,12 12,14.257 12,17C12,19.743 14.257,22 17,22C19.743,22 22,19.743 22,17C22,14.257 19.743,12 17,12Z" style="fill-rule:nonzero;"/></g></g></g></svg>