<svg width="24" height="24" viewBox="0 0 24 24" fill="none" xmlns="http://www.w3.org/2000/svg"><path fill-rule="evenodd" clip-rule="evenodd" d="M8 6C7.44772 6 7 6.44772 7 7V10C7 10.5523 7.44772 11 8 11H12C12.5523 11 13 10.5523 13 10V7C13 6.44772 12.5523 6 12 6H8ZM9 9V8H11V9H9Z" fill="white"/><path d="M8 16C7.44772 16 7 16.4477 7 17C7 17.5523 7.44772 18 8 18H12C12.5523 18 13 17.5523 13 17C13 16.4477 12.5523 16 12 16H8Z" fill="white"/><path fill-rule="evenodd" clip-rule="evenodd" d="M6 2C4.34315 2 3 3.34315 3 5V19C3 20.6569 4.34315 22 6 22H18C19.6569 22 21 20.6569 21 19V5C21 3.34315 19.6569 2 18 2H6ZM5 5C5 4.44772 5.44772 4 6 4H15V20H6C5.44772 20 5 19.5523 5 19V5ZM17 20V17H19V19C19 19.5523 18.5523 20 18 20H17ZM19 10V15H17V10H19ZM19 8V5C19 4.44772 18.5523 4 18 4H17V8H19Z" fill="white"/></svg>