<?xml version="1.0" encoding="UTF-8" standalone="no"?><!DOCTYPE svg PUBLIC "-//W3C//DTD SVG 1.1//EN" "http://www.w3.org/Graphics/SVG/1.1/DTD/svg11.dtd"><svg width="100%" height="100%" viewBox="0 0 200 200" version="1.1" xmlns="http://www.w3.org/2000/svg" xmlns:xlink="http://www.w3.org/1999/xlink" xml:space="preserve" xmlns:serif="http://www.serif.com/" style="fill-rule:evenodd;clip-rule:evenodd;stroke-linejoin:round;stroke-miterlimit:2;"><g transform="matrix(1,0,0,1,-7891.67,-2821.13)"><g transform="matrix(2.00733,0,0,2.00733,-142046,-61823)"><circle cx="74745.1" cy="32253.9" r="49.817" style="fill:rgb(197,207,219);fill-opacity:0.51;"/></g><g transform="matrix(4.07883,0,0,4.07883,7926.39,2855.87)"><path d="M15,5C15,3.895 15.895,3 17,3L19,3C20.105,3 21,3.895 21,5L21,5.424C21,5.424 21.002,5.43 21.008,5.437C21.02,5.452 21.043,5.472 21.077,5.483C21.7,5.684 22.297,5.945 22.859,6.258C22.889,6.274 22.916,6.279 22.934,6.277C22.942,6.277 22.948,6.275 22.948,6.275L23.422,5.877C24.268,5.167 25.53,5.277 26.24,6.124L27.525,7.656C28.235,8.502 28.125,9.763 27.279,10.473L27.053,10.663C27.053,10.663 27.05,10.669 27.048,10.678C27.044,10.699 27.046,10.732 27.062,10.766C27.237,11.139 27.389,11.525 27.517,11.923C27.528,11.957 27.548,11.98 27.563,11.992C27.57,11.998 27.576,12 27.576,12L28,12C29.105,12 30,12.895 30,14L30,16C30,17.105 29.105,18 28,18L27.576,18C27.576,18 27.57,18.002 27.563,18.008C27.553,18.016 27.542,18.028 27.532,18.045C28.227,18.181 28.874,18.535 29.36,19.179C30.52,20.716 30.127,22.989 28.088,24.148L28.075,24.155L19.482,28.876C19.334,28.958 19.168,29 19,29L15,29C14.533,29 14.036,28.891 13.629,28.729C13.616,28.723 13.602,28.718 13.59,28.712L9.785,27L8,27L8,28C8,28.552 7.552,29 7,29L3,29C2.448,29 2,28.552 2,28L2,14C2,13.448 2.448,13 3,13L6.268,13C6.613,12.402 7.26,12 8,12L8.424,12C8.424,12 8.43,11.998 8.437,11.992C8.453,11.98 8.472,11.957 8.483,11.923C8.614,11.516 8.771,11.121 8.951,10.739C8.967,10.705 8.969,10.673 8.965,10.652C8.963,10.642 8.96,10.636 8.96,10.636L8.72,10.435C7.874,9.725 7.764,8.464 8.474,7.617L9.759,6.085C10.469,5.239 11.731,5.129 12.577,5.839L13.079,6.26C13.079,6.26 13.084,6.262 13.092,6.262C13.11,6.264 13.138,6.26 13.167,6.243C13.722,5.937 14.309,5.681 14.923,5.483C14.957,5.472 14.98,5.453 14.992,5.437C14.998,5.43 15,5.424 15,5.424L15,5ZM6,15L4,15L4,27L6,27L6,15ZM8,17L8,25L10,25C10.142,25 10.281,25.03 10.41,25.088L14.389,26.878C14.584,26.953 14.82,27 15,27L18.743,27L27.106,22.406C28.16,21.803 28.148,20.893 27.763,20.384C27.578,20.139 27.329,20.008 26.955,19.983C26.548,19.956 26.013,20.063 25.39,20.327L25.37,20.335L21.37,21.929C21.337,21.942 21.303,21.954 21.268,21.963C20.718,22.598 19.906,23 19,23L14,23C13.448,23 13,22.552 13,22C13,21.448 13.448,21 14,21L19,21C19.552,21 20,20.552 20,20C20,19.448 19.552,19 19,19L15.396,19C14.942,19 14.496,18.866 14.117,18.613L11.949,17.168C11.785,17.058 11.592,17 11.394,17L8,17ZM8,15L8,14L8.425,14C9.376,14 10.125,13.344 10.386,12.538C10.491,12.213 10.616,11.897 10.76,11.592C11.138,10.79 11.011,9.746 10.246,9.104L10.006,8.903L11.291,7.371L11.794,7.792C12.487,8.374 13.427,8.385 14.135,7.994C14.579,7.748 15.048,7.544 15.538,7.386C16.344,7.125 17,6.376 17,5.425L17,5L19,5L19,5.424C19,6.376 19.656,7.125 20.462,7.386C20.96,7.547 21.436,7.755 21.886,8.005C22.595,8.4 23.538,8.391 24.233,7.807L24.708,7.409L25.993,8.941L25.767,9.131C25.004,9.771 24.875,10.812 25.25,11.613C25.39,11.912 25.512,12.221 25.614,12.538C25.875,13.344 26.624,14 27.576,14L28,14L28,16L27.576,16C26.624,16 25.875,16.656 25.614,17.462C25.6,17.506 25.586,17.549 25.571,17.592C25.506,17.782 25.468,17.982 25.458,18.184C25.173,18.265 24.893,18.366 24.62,18.481L21.965,19.539C21.906,19.158 21.776,18.801 21.588,18.482C22.462,17.582 23,16.354 23,15C23,12.239 20.761,10 18,10C15.239,10 13,12.239 13,15C13,15.162 13.008,15.322 13.023,15.48C12.538,15.167 11.973,15 11.394,15L8,15ZM15.764,17L19,17C19.37,17 19.724,17.067 20.051,17.189C20.635,16.642 21,15.864 21,15C21,13.343 19.657,12 18,12C16.343,12 15,13.343 15,15C15,15.768 15.289,16.469 15.764,17Z" style="fill:rgb(14,48,82);"/></g></g></svg>