<svg width="32" height="32" viewBox="0 0 32 32" fill="none" xmlns="http://www.w3.org/2000/svg"><path fill-rule="evenodd" clip-rule="evenodd" d="M3.70711 29.7071L29.7071 3.70711C30.0976 3.31658 30.0976 2.68342 29.7071 2.29289C29.3166 1.90237 28.6834 1.90237 28.2929 2.29289L24.9041 5.68165C24.3862 5.25572 23.7229 5 23 5H21.8293C21.4175 3.83481 20.3062 3 19 3H13C11.6938 3 10.5825 3.83481 10.1707 5H9C7.34315 5 6 6.34314 6 8V24.5858L2.29289 28.2929C1.90237 28.6834 1.90237 29.3166 2.29289 29.7071C2.68342 30.0976 3.31658 30.0976 3.70711 29.7071ZM8 22.5858V8C8 7.44772 8.44771 7 9 7H10.1707C10.5825 8.16519 11.6938 9 13 9H19C20.3062 9 21.4175 8.16519 21.8293 7H23C23.1695 7 23.3292 7.04219 23.4691 7.11665L8 22.5858ZM12 6C12 5.44772 12.4477 5 13 5H19C19.5523 5 20 5.44772 20 6C20 6.55228 19.5523 7 19 7H13C12.4477 7 12 6.55228 12 6Z" fill="black"/><path d="M24 12.2431L26 10.2431V26C26 27.6569 24.6569 29 23 29H9C8.49149 29 8.01253 28.8735 7.59289 28.6502L9.24309 27H23C23.5523 27 24 26.5523 24 26V12.2431Z" fill="black"/></svg>