<svg width="24" height="24" viewBox="0 0 24 24" fill="none" xmlns="http://www.w3.org/2000/svg"><g id="SVG/cloud-outline-24"><path id="Union (Stroke)" fill-rule="evenodd" clip-rule="evenodd" d="M10.9871 6.52797C12.0205 5.00322 13.7673 4 15.75 4C18.9256 4 21.5 6.57436 21.5 9.75C21.5 10.2667 21.4316 10.7686 21.3031 11.2464C22.3423 12.1617 23 13.5038 23 15C23 17.685 20.884 19.8753 18.2281 19.9949C18.204 19.9967 18.1797 19.9976 18.1554 19.9976C18.1037 19.9992 18.0519 20 18 20C17.9481 20 17.8963 19.9992 17.8447 19.9976H5.90139C5.85108 19.9992 5.80061 20 5.75 20C3.12665 20 1 17.8734 1 15.25C1 12.8686 2.75242 10.8965 5.03803 10.553C5.01296 10.3721 5 10.1875 5 10C5 7.79086 6.79086 6 9 6C9.72323 6 10.4019 6.19236 10.9871 6.52797ZM18.1104 17.998L18.1159 17.9978C19.7186 17.9373 21 16.6181 21 15C21 13.929 20.4395 12.9882 19.5911 12.4561C19.1746 12.1949 19.0098 11.6696 19.2024 11.2173C19.3937 10.7679 19.5 10.2727 19.5 9.75C19.5 7.67893 17.8211 6 15.75 6C14.1453 6 12.7736 7.00838 12.2388 8.42945C12.1136 8.76233 11.8209 9.00361 11.4703 9.06313C11.1196 9.12265 10.7637 8.99144 10.5356 8.71855C10.1672 8.27773 9.61649 8 9 8C7.89543 8 7 8.89543 7 10C7 10.3834 7.10689 10.7387 7.29199 11.0414C7.49802 11.3782 7.48655 11.8048 7.26271 12.13C7.03887 12.4553 6.64458 12.6184 6.25635 12.5463C6.09295 12.516 5.92379 12.5 5.75 12.5C4.23122 12.5 3 13.7312 3 15.25C3 16.7688 4.23122 18 5.75 18C5.78334 18 5.8165 17.9994 5.84946 17.9982C5.86122 17.9978 5.873 17.9976 5.88477 17.9976H17.8608C17.8722 17.9976 17.8836 17.9978 17.895 17.9982C17.9298 17.9994 17.9648 18 18 18C18.0352 18 18.0702 17.9994 18.105 17.9982L18.1104 17.998Z" fill="black"/></g></svg>