<svg width="24" height="24" viewBox="0 0 24 24" fill="none" xmlns="http://www.w3.org/2000/svg"><path fill-rule="evenodd" clip-rule="evenodd" d="M11.9998 4.00036C11.9998 2.34335 13.3431 1.00061 14.9998 1.00061C16.3109 1.00061 17.4257 1.84157 17.8338 3.01373C17.8878 3.00469 17.9434 2.99998 18 2.99998H19C20.6569 2.99998 22 4.34312 22 5.99998V19C22 20.6568 20.6569 22 19 22H5C3.34315 22 2 20.6568 2 19V5.99998C2 4.34312 3.34315 2.99998 5 2.99998H9C9.55228 2.99998 10 3.44769 10 3.99998C10 4.55226 9.55228 4.99998 9 4.99998H5C4.44772 4.99998 4 5.44769 4 5.99998V19C4 19.5523 4.44772 20 5 20H19C19.5523 20 20 19.5523 20 19V5.99998C20 5.44769 19.5523 4.99998 19 4.99998H18C17.9999 4.99998 17.9999 4.99998 17.9998 4.99998L17.9998 14.0002C17.9998 14.1554 17.9637 14.3085 17.8942 14.4474L15.8944 18.4472C15.7251 18.786 15.3788 19 15 19C14.6213 19 14.275 18.786 14.1056 18.4473L12.1054 14.4475C12.036 14.3086 11.9998 14.1555 11.9998 14.0002L11.9998 4.00036ZM14.9998 3.00061C14.4473 3.00061 13.9998 3.44824 13.9998 4.00036L13.9998 13.7641L14.9999 15.764L15.9998 13.7641L15.9998 4.00036C15.9998 3.44824 15.5522 3.00061 14.9998 3.00061ZM5 7.99998C5 7.44769 5.44772 6.99998 6 6.99998H9C9.55228 6.99998 10 7.44769 10 7.99998C10 8.55226 9.55228 8.99998 9 8.99998H6C5.44772 8.99998 5 8.55226 5 7.99998ZM5 12C5 11.4477 5.44772 11 6 11H9C9.55228 11 10 11.4477 10 12C10 12.5523 9.55228 13 9 13H6C5.44772 13 5 12.5523 5 12ZM5 16C5 15.4477 5.44772 15 6 15H9C9.55228 15 10 15.4477 10 16C10 16.5523 9.55228 17 9 17H6C5.44772 17 5 16.5523 5 16Z" fill="white"/></svg>