<?xml version="1.0" encoding="UTF-8" standalone="no"?><!DOCTYPE svg PUBLIC "-//W3C//DTD SVG 1.1//EN" "http://www.w3.org/Graphics/SVG/1.1/DTD/svg11.dtd"><svg width="100%" height="100%" viewBox="0 0 200 200" version="1.1" xmlns="http://www.w3.org/2000/svg" xmlns:xlink="http://www.w3.org/1999/xlink" xml:space="preserve" xmlns:serif="http://www.serif.com/" style="fill-rule:evenodd;clip-rule:evenodd;stroke-linejoin:round;stroke-miterlimit:2;"><g transform="matrix(1,0,0,1,-8525.89,-2821.13)"><g transform="matrix(2.00733,0,0,2.00733,-141412,-61823)"><circle cx="74745.1" cy="32253.9" r="49.817" style="fill:rgb(14,48,82);"/></g><g transform="matrix(4.38427,0,0,4.38427,8554.89,2846.44)"><path d="M13.383,4.298C14.501,2.192 17.51,2.168 18.661,4.257L22.613,11.43L23.032,9.758C23.166,9.222 23.709,8.896 24.244,9.03C24.78,9.164 25.106,9.707 24.972,10.243L23.971,14.243C23.837,14.778 23.294,15.104 22.759,14.97L18.758,13.97C18.222,13.836 17.896,13.293 18.03,12.757C18.164,12.221 18.707,11.896 19.243,12.03L20.887,12.441L16.909,5.222C16.526,4.526 15.522,4.534 15.15,5.236L11.602,11.922C11.343,12.41 10.738,12.595 10.25,12.336C9.762,12.078 9.577,11.472 9.835,10.984L13.383,4.298ZM9.515,14.142C9.743,14.279 9.907,14.5 9.971,14.757L10.97,18.757C11.104,19.293 10.778,19.836 10.242,19.97C9.706,20.104 9.163,19.778 9.029,19.242L8.61,17.561L5.442,23.531C5.089,24.197 5.571,25 6.325,25L13,25C13.552,25 14,25.448 14,26C14,26.552 13.552,27 13,27L6.325,27C4.063,27 2.615,24.592 3.675,22.594L6.876,16.562L5.242,16.971C4.706,17.105 4.163,16.779 4.029,16.243C3.895,15.707 4.221,15.164 4.757,15.03L8.758,14.029C9.016,13.965 9.288,14.006 9.515,14.142ZM24.377,16.702C24.861,16.436 25.469,16.612 25.735,17.095L28.688,22.455C29.745,24.373 28.488,27 26.115,27L19.414,27L20.707,28.293C21.098,28.683 21.098,29.317 20.707,29.707C20.317,30.098 19.684,30.098 19.293,29.707L16.293,26.707C15.902,26.317 15.902,25.683 16.293,25.293L19.293,22.293C19.684,21.902 20.317,21.902 20.707,22.293C21.098,22.683 21.098,23.317 20.707,23.707L19.414,25L26.115,25C26.785,25 27.349,24.168 26.937,23.42L23.984,18.061C23.717,17.577 23.893,16.969 24.377,16.702Z" style="fill:white;"/></g></g></svg>