<?xml version="1.0" encoding="UTF-8" standalone="no"?><!DOCTYPE svg PUBLIC "-//W3C//DTD SVG 1.1//EN" "http://www.w3.org/Graphics/SVG/1.1/DTD/svg11.dtd"><svg width="100%" height="100%" viewBox="0 0 200 200" version="1.1" xmlns="http://www.w3.org/2000/svg" xmlns:xlink="http://www.w3.org/1999/xlink" xml:space="preserve" xmlns:serif="http://www.serif.com/" style="fill-rule:evenodd;clip-rule:evenodd;stroke-linejoin:round;stroke-miterlimit:2;"><g transform="matrix(1,0,0,1,-8600.64,-1829.81)"><g transform="matrix(2.00733,0,0,2.00733,-141337,-62814.4)"><circle cx="74745.1" cy="32253.9" r="49.817" style="fill:rgb(63,109,170);"/></g><g transform="matrix(0.245483,0,0,0.245483,8622.06,1853.6)"><path d="M320,64C324.6,64 329.2,65 333.4,66.9L521.8,146.8C543.8,156.1 560.2,177.8 560.1,204C559.6,303.2 518.8,484.7 346.5,567.2C329.8,575.2 310.4,575.2 293.7,567.2C121.3,484.7 80.6,303.2 80.1,204C80,177.8 96.4,156.1 118.4,146.8L306.7,66.9C310.9,65 315.4,64 320,64Z" style="fill:rgb(14,48,82);fill-rule:nonzero;"/></g><g transform="matrix(1,0,0,1,-120.308,-274.584)"><path d="M8826.83,2178.11L8826.83,2224.67L8817.33,2224.67L8817.33,2186.51L8817.01,2186.51L8806.34,2194.07L8806.34,2185.33L8816.63,2178.11L8826.83,2178.11Z" style="fill:white;fill-rule:nonzero;"/></g></g></svg>