<?xml version="1.0" encoding="UTF-8" standalone="no"?><!DOCTYPE svg PUBLIC "-//W3C//DTD SVG 1.1//EN" "http://www.w3.org/Graphics/SVG/1.1/DTD/svg11.dtd"><svg width="100%" height="100%" viewBox="0 0 200 200" version="1.1" xmlns="http://www.w3.org/2000/svg" xmlns:xlink="http://www.w3.org/1999/xlink" xml:space="preserve" xmlns:serif="http://www.serif.com/" style="fill-rule:evenodd;clip-rule:evenodd;stroke-linejoin:round;stroke-miterlimit:2;"><g transform="matrix(1,0,0,1,-9074.78,-1829.81)"><g transform="matrix(2.00733,0,0,2.00733,-140863,-62814.4)"><circle cx="74745.1" cy="32253.9" r="49.817" style="fill:rgb(63,109,170);"/></g><g transform="matrix(0.245483,0,0,0.245483,9096.21,1853.6)"><path d="M320,64C324.6,64 329.2,65 333.4,66.9L521.8,146.8C543.8,156.1 560.2,177.8 560.1,204C559.6,303.2 518.8,484.7 346.5,567.2C329.8,575.2 310.4,575.2 293.7,567.2C121.3,484.7 80.6,303.2 80.1,204C80,177.8 96.4,156.1 118.4,146.8L306.7,66.9C310.9,65 315.4,64 320,64Z" style="fill:rgb(14,48,82);fill-rule:nonzero;"/></g><g transform="matrix(1,0,0,1,350.621,-274.584)"><path d="M8824.04,2225.3C8820.66,2225.3 8817.66,2224.72 8815.05,2223.56C8812.43,2222.4 8810.36,2220.79 8808.85,2218.73C8807.34,2216.68 8806.57,2214.3 8806.52,2211.61L8816.13,2211.61C8816.19,2212.77 8816.57,2213.79 8817.27,2214.66C8817.97,2215.53 8818.91,2216.2 8820.09,2216.68C8821.27,2217.16 8822.6,2217.4 8824.07,2217.4C8825.6,2217.4 8826.95,2217.13 8828.12,2216.59C8829.3,2216.06 8830.22,2215.31 8830.88,2214.35C8831.55,2213.39 8831.88,2212.28 8831.88,2211.03C8831.88,2209.73 8831.53,2208.6 8830.84,2207.62C8830.14,2206.64 8829.14,2205.88 8827.85,2205.32C8826.55,2204.77 8825,2204.49 8823.2,2204.49L8818.89,2204.49L8818.89,2197.39L8823.2,2197.39C8824.7,2197.39 8826.04,2197.13 8827.19,2196.6C8828.35,2196.08 8829.25,2195.35 8829.89,2194.41C8830.54,2193.48 8830.86,2192.39 8830.86,2191.14C8830.86,2189.94 8830.59,2188.89 8830.03,2187.99C8829.47,2187.09 8828.68,2186.39 8827.68,2185.88C8826.67,2185.38 8825.49,2185.12 8824.14,2185.12C8822.78,2185.12 8821.54,2185.37 8820.41,2185.85C8819.28,2186.33 8818.38,2187.01 8817.7,2187.89C8817.01,2188.76 8816.66,2189.81 8816.63,2191.03L8807.45,2191.03C8807.49,2188.37 8808.24,2186.02 8809.72,2183.98C8811.18,2181.95 8813.18,2180.36 8815.69,2179.21C8818.2,2178.06 8821.04,2177.49 8824.2,2177.49C8827.39,2177.49 8830.18,2178.07 8832.57,2179.24C8834.96,2180.4 8836.82,2181.97 8838.14,2183.95C8839.46,2185.92 8840.12,2188.13 8840.12,2190.56C8840.12,2193.16 8839.32,2195.34 8837.7,2197.09C8836.09,2198.84 8833.99,2199.96 8831.41,2200.45L8831.41,2200.79C8833.67,2201.08 8835.57,2201.72 8837.12,2202.7C8838.66,2203.68 8839.83,2204.93 8840.62,2206.46C8841.41,2207.98 8841.81,2209.7 8841.81,2211.63C8841.81,2214.27 8841.05,2216.62 8839.52,2218.69C8838,2220.75 8835.91,2222.37 8833.24,2223.54C8830.57,2224.71 8827.5,2225.3 8824.04,2225.3Z" style="fill:white;fill-rule:nonzero;"/></g></g></svg>