<?xml version="1.0" encoding="UTF-8" standalone="no"?><!DOCTYPE svg PUBLIC "-//W3C//DTD SVG 1.1//EN" "http://www.w3.org/Graphics/SVG/1.1/DTD/svg11.dtd"><svg width="100%" height="100%" viewBox="0 0 200 200" version="1.1" xmlns="http://www.w3.org/2000/svg" xmlns:xlink="http://www.w3.org/1999/xlink" xml:space="preserve" xmlns:serif="http://www.serif.com/" style="fill-rule:evenodd;clip-rule:evenodd;stroke-linejoin:round;stroke-miterlimit:2;"><g transform="matrix(1,0,0,1,-8837.71,-1829.81)"><g transform="matrix(2.00733,0,0,2.00733,-141100,-62814.4)"><circle cx="74745.1" cy="32253.9" r="49.817" style="fill:rgb(63,109,170);"/></g><g transform="matrix(0.245483,0,0,0.245483,8859.13,1853.6)"><path d="M320,64C324.6,64 329.2,65 333.4,66.9L521.8,146.8C543.8,156.1 560.2,177.8 560.1,204C559.6,303.2 518.8,484.7 346.5,567.2C329.8,575.2 310.4,575.2 293.7,567.2C121.3,484.7 80.6,303.2 80.1,204C80,177.8 96.4,156.1 118.4,146.8L306.7,66.9C310.9,65 315.4,64 320,64Z" style="fill:rgb(14,48,82);fill-rule:nonzero;"/></g><g transform="matrix(1,0,0,1,114.137,-274.271)"><path d="M8807.31,2224.67L8807.31,2217.81L8823.81,2202.33C8825.22,2200.95 8826.42,2199.7 8827.39,2198.6C8828.37,2197.49 8829.11,2196.4 8829.62,2195.33C8830.13,2194.25 8830.39,2193.09 8830.39,2191.83C8830.39,2190.44 8830.07,2189.25 8829.44,2188.24C8828.81,2187.24 8827.96,2186.47 8826.88,2185.93C8825.79,2185.39 8824.55,2185.12 8823.16,2185.12C8821.71,2185.12 8820.45,2185.41 8819.37,2186C8818.3,2186.58 8817.46,2187.42 8816.87,2188.5C8816.28,2189.58 8815.99,2190.88 8815.99,2192.39L8806.89,2192.39C8806.89,2189.36 8807.58,2186.73 8808.96,2184.5C8810.34,2182.27 8812.25,2180.55 8814.71,2179.32C8817.17,2178.1 8820.01,2177.49 8823.23,2177.49C8826.52,2177.49 8829.39,2178.07 8831.84,2179.25C8834.3,2180.42 8836.21,2182.04 8837.58,2184.1C8838.94,2186.17 8839.62,2188.54 8839.62,2191.23C8839.62,2192.97 8839.29,2194.69 8838.61,2196.37C8837.93,2198.05 8836.73,2199.94 8834.99,2202.03C8833.26,2204.12 8830.79,2206.62 8827.6,2209.55L8820.56,2216.5L8820.56,2216.84L8840.25,2216.84L8840.25,2224.67L8807.31,2224.67Z" style="fill:white;fill-rule:nonzero;"/></g></g></svg>