<svg width="32" height="32" viewBox="0 0 32 32" fill="none" xmlns="http://www.w3.org/2000/svg"><path fill-rule="evenodd" clip-rule="evenodd" d="M8 4C7.05573 4 6.16656 4.44458 5.6 5.2L2.6 9.2C1.8 10.2667 1.8 11.7333 2.6 12.8L15.2 29.6C15.3889 29.8518 15.6852 30 16 30C16.3148 30 16.6111 29.8518 16.8 29.6L29.4 12.8C30.2 11.7333 30.2 10.2667 29.4 9.2L26.4 5.2C25.8334 4.44458 24.9443 4 24 4H8ZM7.2 6.4C7.38885 6.14819 7.68524 6 8 6H11.3786L8.93863 10H4.5L7.2 6.4ZM4.5 12L12.7888 23.0518L8.79791 12H4.5ZM10.9243 12L16 26.0557L21.0757 12H10.9243ZM23.2021 12L19.2112 23.0518L27.5 12H23.2021ZM27.5 10H23.0606L20.6139 6H24C24.3148 6 24.6111 6.14819 24.8 6.4L27.5 10ZM20.7161 10H11.2814L13.7214 6H18.2694L20.7161 10Z" fill="white"/></svg>