<?xml version="1.0" encoding="UTF-8" standalone="no"?><!DOCTYPE svg PUBLIC "-//W3C//DTD SVG 1.1//EN" "http://www.w3.org/Graphics/SVG/1.1/DTD/svg11.dtd"><svg width="100%" height="100%" viewBox="0 0 100 100" version="1.1" xmlns="http://www.w3.org/2000/svg" xmlns:xlink="http://www.w3.org/1999/xlink" xml:space="preserve" xmlns:serif="http://www.serif.com/" style="fill-rule:evenodd;clip-rule:evenodd;stroke-linejoin:round;stroke-miterlimit:2;"><g transform="matrix(1,0,0,1,-3584.13,-724.01)"><g transform="matrix(0.591073,0,0,0.588235,1644.95,318.71)"><path d="M3449.95,702.61L3449.95,845.41C3449.95,852.916 3443.89,859.01 3436.41,859.01L3294.3,859.01C3286.83,859.01 3280.77,852.916 3280.77,845.41L3280.77,702.61C3280.77,695.104 3286.83,689.01 3294.3,689.01L3436.41,689.01C3443.89,689.01 3449.95,695.104 3449.95,702.61Z" style="fill:rgb(209,193,226);"/></g><g transform="matrix(2.08333,0,0,2.08333,3634.13,774.01)"><g transform="matrix(1,0,0,1,-12,-12)"><path d="M10,2C9.451,2 9,2.451 9,3L9,4.582C8.959,4.599 8.917,4.616 8.876,4.633L7.757,3.515C7.369,3.127 6.731,3.127 6.343,3.515L3.515,6.343C3.127,6.731 3.127,7.369 3.515,7.757L4.633,8.876C4.616,8.917 4.599,8.959 4.582,9L3,9C2.451,9 2,9.451 2,10L2,14C2,14.549 2.451,15 3,15L4.582,15L4.633,15.124L3.515,16.243C3.127,16.631 3.127,17.269 3.515,17.657L6.343,20.485C6.731,20.873 7.369,20.873 7.757,20.485L8.876,19.367L9,19.418L9,21C9,21.549 9.451,22 10,22L11.277,22C10.457,20.817 10,19.458 10,18L10,17.659C9.706,17.555 9.42,17.428 9.146,17.279C8.758,17.069 8.275,17.139 7.963,17.451L7.05,18.364L5.636,16.95L6.549,16.037C6.861,15.725 6.931,15.242 6.721,14.854C6.524,14.491 6.366,14.109 6.248,13.714C6.122,13.292 5.731,13 5.29,13L4,13L4,11L5.29,11C5.731,11 6.122,10.708 6.248,10.285C6.366,9.89 6.524,9.508 6.721,9.146C6.931,8.758 6.86,8.275 6.548,7.963L5.636,7.05L7.05,5.636L7.963,6.548C8.275,6.86 8.758,6.931 9.146,6.721C9.506,6.526 9.886,6.367 10.286,6.248C10.708,6.122 11,5.731 11,5.29L11,4L13,4L13,5.29C13,5.731 13.292,6.122 13.715,6.248C14.113,6.367 14.495,6.526 14.854,6.721C15.242,6.931 15.725,6.861 16.037,6.549L16.95,5.636L18.364,7.05L17.451,7.963C17.391,8.024 17.339,8.092 17.295,8.165C18.123,8.011 18.979,8.132 19.731,8.511L20.485,7.757C20.873,7.369 20.873,6.731 20.485,6.343L17.657,3.515C17.269,3.127 16.631,3.127 16.243,3.515L15.124,4.633C15.083,4.616 15.041,4.599 15,4.582L15,3C15,2.451 14.549,2 14,2L10,2Z" style="fill-rule:nonzero;"/><path d="M14.874,9.218C14.121,8.441 13.084,8.002 12.002,8.002C9.807,8.002 8.002,9.808 8.002,12.002C8.002,13.428 8.765,14.751 10,15.465L10,12.558C10,12.446 10.005,12.337 10.013,12.23C9.943,11.635 10.145,11.04 10.561,10.61C11.456,9.268 13.242,8.768 14.605,9.173C14.704,9.202 14.792,9.215 14.874,9.218ZM20.64,15.232C21.061,15.583 21.119,16.219 20.768,16.64L18.268,19.64C18.078,19.868 17.796,20 17.5,20C17.235,20 16.98,19.894 16.793,19.707L15.293,18.207C15.113,18.021 15.012,17.771 15.012,17.512C15.012,16.964 15.464,16.512 16.012,16.512C16.271,16.512 16.521,16.613 16.707,16.793L17.433,17.519L19.232,15.359C19.583,14.938 20.219,14.881 20.64,15.232Z" style="fill-rule:nonzero;"/><path d="M19.133,10.495C18.812,10.236 18.412,10.097 18,10.1C17.629,10.1 17.21,10.212 16.867,10.496C16.287,10.975 15.256,11.452 14.036,11.09C13.167,10.832 12,11.39 12,12.558L12,18C12,20.458 13.932,22.875 17.591,23.924C17.858,24 18.142,24 18.409,23.924C22.068,22.874 24,20.458 24,18L24,12.558C24,11.39 22.833,10.832 21.964,11.09C20.744,11.452 19.714,10.975 19.134,10.495L19.133,10.495ZM14,13.136C15.716,13.456 17.144,12.805 18,12.15C18.856,12.805 20.284,13.455 22,13.137L22,18C22,19.275 20.982,21.058 18,21.96C15.018,21.058 14,19.275 14,18L14,13.136Z" style="fill-rule:nonzero;"/></g></g></g></svg>