<svg width="24" height="24" viewBox="0 0 24 24" fill="none" xmlns="http://www.w3.org/2000/svg"><path d="M5.5 11C5.22386 11 5 11.2239 5 11.5V12.5C5 12.7761 5.22386 13 5.5 13C5.77614 13 6 12.7761 6 12.5V11.5C6 11.2239 5.77614 11 5.5 11Z" fill="black"/><path d="M7 11.5C7 11.2239 7.22386 11 7.5 11C7.77614 11 8 11.2239 8 11.5V12.5C8 12.7761 7.77614 13 7.5 13C7.22386 13 7 12.7761 7 12.5V11.5Z" fill="black"/><path d="M9.5 11C9.22386 11 9 11.2239 9 11.5V12.5C9 12.7761 9.22386 13 9.5 13C9.77614 13 10 12.7761 10 12.5V11.5C10 11.2239 9.77614 11 9.5 11Z" fill="black"/><path d="M12 12C12 11.4477 12.4477 11 13 11H18C18.5523 11 19 11.4477 19 12C19 12.5523 18.5523 13 18 13H13C12.4477 13 12 12.5523 12 12Z" fill="black"/><path d="M5 17.5C5 17.2239 5.22386 17 5.5 17C5.77614 17 6 17.2239 6 17.5V18.5C6 18.7761 5.77614 19 5.5 19C5.22386 19 5 18.7761 5 18.5V17.5Z" fill="black"/><path d="M7.5 17C7.22386 17 7 17.2239 7 17.5V18.5C7 18.7761 7.22386 19 7.5 19C7.77614 19 8 18.7761 8 18.5V17.5C8 17.2239 7.77614 17 7.5 17Z" fill="black"/><path d="M9 17.5C9 17.2239 9.22386 17 9.5 17C9.77614 17 10 17.2239 10 17.5V18.5C10 18.7761 9.77614 19 9.5 19C9.22386 19 9 18.7761 9 18.5V17.5Z" fill="black"/><path d="M13 17C12.4477 17 12 17.4477 12 18C12 18.5523 12.4477 19 13 19H18C18.5523 19 19 18.5523 19 18C19 17.4477 18.5523 17 18 17H13Z" fill="black"/><path d="M5 5.5C5 5.22386 5.22386 5 5.5 5C5.77614 5 6 5.22386 6 5.5V6.5C6 6.77614 5.77614 7 5.5 7C5.22386 7 5 6.77614 5 6.5V5.5Z" fill="black"/><path d="M7.5 5C7.22386 5 7 5.22386 7 5.5V6.5C7 6.77614 7.22386 7 7.5 7C7.77614 7 8 6.77614 8 6.5V5.5C8 5.22386 7.77614 5 7.5 5Z" fill="black"/><path d="M9 5.5C9 5.22386 9.22386 5 9.5 5C9.77614 5 10 5.22386 10 5.5V6.5C10 6.77614 9.77614 7 9.5 7C9.22386 7 9 6.77614 9 6.5V5.5Z" fill="black"/><path d="M13 5C12.4477 5 12 5.44772 12 6C12 6.55228 12.4477 7 13 7H18C18.5523 7 19 6.55228 19 6C19 5.44772 18.5523 5 18 5H13Z" fill="black"/><path fill-rule="evenodd" clip-rule="evenodd" d="M2 5C2 3.34315 3.34315 2 5 2H19C20.6569 2 22 3.34315 22 5V7C22 7.76836 21.7111 8.46925 21.2361 9C21.7111 9.53076 22 10.2316 22 11V13C22 13.7684 21.7111 14.4692 21.2361 15C21.7111 15.5308 22 16.2316 22 17V19C22 20.6569 20.6569 22 19 22H5C3.34315 22 2 20.6569 2 19V17C2 16.2316 2.28885 15.5308 2.7639 15C2.28885 14.4692 2 13.7684 2 13V11C2 10.2316 2.28885 9.53076 2.76389 9C2.28885 8.46924 2 7.76835 2 7V5ZM4 13C4 13.5523 4.44772 14 5 14H19C19.5523 14 20 13.5523 20 13V11C20 10.4477 19.5523 10 19 10H5C4.44772 10 4 10.4477 4 11V13ZM20 17C20 16.4477 19.5523 16 19 16H5C4.44772 16 4 16.4477 4 17V19C4 19.5523 4.44772 20 5 20H19C19.5523 20 20 19.5523 20 19V17ZM19 8H5C4.44772 8 4 7.55228 4 7V5C4 4.44772 4.44772 4 5 4H19C19.5523 4 20 4.44772 20 5V7C20 7.55228 19.5523 8 19 8Z" fill="black"/></svg>