<svg width="32" height="32" viewBox="0 0 32 32" fill="none" xmlns="http://www.w3.org/2000/svg">
<path d="M10.2929 3.29289C10.6834 2.90237 11.3166 2.90237 11.7071 3.29289C12.0976 3.68342 12.0976 4.31658 11.7071 4.70711L7.41433 8.99985H19C23.9705 8.99985 28 13.0293 28 17.9998C28 22.9704 23.9705 26.9998 19 26.9998H13C12.4477 26.9998 12 26.5521 12 25.9998C12 25.4476 12.4477 24.9998 13 24.9998H19C22.866 24.9998 26 21.8658 26 17.9998C26 14.1339 22.866 10.9998 19 10.9998H7.41399L11.7071 15.2932C12.0976 15.6838 12.0976 16.3169 11.7071 16.7074C11.3165 17.0979 10.6834 17.0979 10.2928 16.7074L4.29287 10.7071C3.90237 10.3165 3.90238 9.68338 4.29289 9.29286L10.2929 3.29289Z" fill="black"/>
</svg>
