<?xml version="1.0" encoding="UTF-8" standalone="no"?><!DOCTYPE svg PUBLIC "-//W3C//DTD SVG 1.1//EN" "http://www.w3.org/Graphics/SVG/1.1/DTD/svg11.dtd"><svg width="100%" height="100%" viewBox="0 0 200 200" version="1.1" xmlns="http://www.w3.org/2000/svg" xmlns:xlink="http://www.w3.org/1999/xlink" xml:space="preserve" xmlns:serif="http://www.serif.com/" style="fill-rule:evenodd;clip-rule:evenodd;stroke-linejoin:round;stroke-miterlimit:2;"><g transform="matrix(1,0,0,1,-9823.28,-2467.15)"><g transform="matrix(2.08333,0,0,2.08333,-9931.8,-1963.13)"><rect x="9482.44" y="2126.53" width="96" height="96" style="fill:rgb(63,109,170);fill-opacity:0;"/></g><g transform="matrix(3.57135,0,0,3.57135,9866.14,2510.01)"><path d="M16,2C15.59,2 15.182,2.018 14.78,2.052C14.266,2.096 13.866,2.532 13.866,3.049C13.866,3.597 14.317,4.049 14.866,4.049C14.895,4.049 14.923,4.047 14.952,4.045C15.297,4.015 15.647,4 16,4C22.627,4 28,9.373 28,16C28,22.627 22.627,28 16,28C15.647,28 15.297,27.985 14.952,27.955C14.923,27.953 14.895,27.951 14.866,27.951C14.317,27.951 13.866,28.403 13.866,28.952C13.866,29.468 14.266,29.904 14.78,29.948C15.182,29.982 15.59,30 16,30C23.732,30 30,23.732 30,16C30,8.268 23.732,2 16,2ZM10.928,5.121C11.279,4.957 11.505,4.603 11.505,4.215C11.505,3.666 11.053,3.215 10.505,3.215C10.358,3.215 10.214,3.247 10.081,3.309C9.339,3.656 8.633,4.066 7.969,4.531C7.702,4.718 7.542,5.024 7.542,5.35C7.542,5.899 7.994,6.351 8.543,6.351C8.748,6.351 8.949,6.288 9.117,6.17C9.687,5.77 10.292,5.42 10.927,5.122L10.928,5.121ZM5.924,7.724C6.191,7.911 6.35,8.217 6.35,8.543C6.35,8.748 6.287,8.949 6.169,9.117C5.769,9.687 5.419,10.292 5.121,10.927C4.96,11.286 4.602,11.518 4.209,11.518C3.66,11.518 3.209,11.066 3.209,10.518C3.209,10.367 3.243,10.217 3.309,10.081C3.656,9.339 4.066,8.633 4.531,7.969C4.718,7.702 5.024,7.543 5.35,7.543C5.555,7.543 5.756,7.606 5.924,7.724ZM4.045,14.952C4.047,14.923 4.049,14.895 4.049,14.866C4.049,14.317 3.597,13.866 3.049,13.866C2.532,13.866 2.096,14.266 2.052,14.78C1.982,15.592 1.982,16.408 2.052,17.22C2.096,17.734 2.532,18.134 3.049,18.134C3.597,18.134 4.049,17.683 4.049,17.134C4.049,17.105 4.047,17.077 4.045,17.048C3.985,16.351 3.985,15.649 4.045,14.952ZM3.792,20.59C3.925,20.528 4.07,20.496 4.216,20.496C4.604,20.496 4.958,20.721 5.122,21.072C5.418,21.708 5.769,22.313 6.169,22.882C6.287,23.05 6.351,23.251 6.351,23.457C6.351,24.006 5.899,24.458 5.35,24.458C5.024,24.458 4.718,24.299 4.531,24.032C4.063,23.365 3.654,22.658 3.309,21.919C3.247,21.786 3.215,21.642 3.215,21.495C3.215,21.107 3.44,20.753 3.792,20.589L3.792,20.59ZM9.117,25.831C8.949,25.713 8.749,25.65 8.543,25.65C7.995,25.65 7.543,26.102 7.543,26.65C7.543,26.977 7.703,27.283 7.97,27.47C8.634,27.935 9.34,28.345 10.082,28.692C10.215,28.754 10.359,28.786 10.506,28.786C11.054,28.786 11.506,28.335 11.506,27.786C11.506,27.398 11.28,27.044 10.929,26.88C10.296,26.584 9.691,26.233 9.119,25.832L9.117,25.831Z" style="fill:rgb(63,109,170);fill-rule:nonzero;"/></g><g transform="matrix(3.57135,0,0,3.57135,9866.14,2510.01)"><path d="M22.707,12.707C22.887,12.521 22.988,12.271 22.988,12.012C22.988,11.464 22.536,11.012 21.988,11.012C21.729,11.012 21.479,11.113 21.293,11.293L13,19.586L9.707,16.293C9.521,16.113 9.271,16.012 9.012,16.012C8.464,16.012 8.012,16.464 8.012,17.012C8.012,17.271 8.113,17.521 8.293,17.707L12.293,21.707C12.681,22.095 13.319,22.095 13.707,21.707L22.707,12.707Z" style="fill:rgb(63,109,170);fill-rule:nonzero;"/></g></g></svg>