<svg width="3163" height="1760" xmlns="http://www.w3.org/2000/svg" xmlns:xlink="http://www.w3.org/1999/xlink" xml:space="preserve" overflow="hidden"><defs><clipPath id="clip0"><rect x="618" y="357" width="3163" height="1760"/></clipPath><clipPath id="clip1"><rect x="618" y="357" width="3163" height="1760"/></clipPath></defs><g clip-path="url(#clip0)" transform="translate(-618 -357)"><g clip-path="url(#clip1)"><path d="M2003.5 1294.67C2003.5 1271.93 2021.93 1253.5 2044.67 1253.5L3734.33 1253.5C3757.07 1253.5 3775.5 1271.93 3775.5 1294.67L3775.5 1998.33C3775.5 2021.07 3757.07 2039.5 3734.33 2039.5L2044.67 2039.5C2021.93 2039.5 2003.5 2021.07 2003.5 1998.33Z" stroke="#3F6DAB" stroke-width="4.58333" stroke-linecap="butt" stroke-linejoin="miter" stroke-miterlimit="8" stroke-opacity="1" fill="#FFFFFF" fill-rule="evenodd" fill-opacity="0.25098"/><rect x="1746" y="721" width="236" height="236" fill="#172E4C" fill-opacity="0"/><path d="M2058.5 1343.69C2058.5 1323.7 2074.7 1307.5 2094.69 1307.5L3695.31 1307.5C3715.3 1307.5 3731.5 1323.7 3731.5 1343.69L3731.5 1509.31C3731.5 1529.3 3715.3 1545.5 3695.31 1545.5L2094.69 1545.5C2074.7 1545.5 2058.5 1529.3 2058.5 1509.31Z" stroke="#C5CFDB" stroke-width="4.58333" stroke-linecap="butt" stroke-linejoin="miter" stroke-miterlimit="8" stroke-opacity="1" fill="#FFFFFF" fill-rule="evenodd" fill-opacity="1"/><text fill="#527BBD" fill-opacity="1" font-family="Inter,Inter_MSFontService,sans-serif" font-style="normal" font-variant="normal" font-weight="400" font-stretch="normal" font-size="46" text-anchor="start" direction="ltr" writing-mode="lr-tb" unicode-bidi="normal" text-decoration="none" transform="matrix(1 0 0 1 2260.56 1400)">INC0001234</text><text fill="#527BBD" fill-opacity="1" font-family="Inter,Inter_MSFontService,sans-serif" font-style="normal" font-variant="normal" font-weight="400" font-stretch="normal" font-size="46" text-anchor="start" direction="ltr" writing-mode="lr-tb" unicode-bidi="normal" text-decoration="none" transform="matrix(1 0 0 1 2530.98 1400)"> </text><text fill="#0E3052" fill-opacity="1" font-family="Inter SemiBold,Inter SemiBold_MSFontService,sans-serif" font-style="normal" font-variant="normal" font-weight="600" font-stretch="normal" font-size="55" text-anchor="start" direction="ltr" writing-mode="lr-tb" unicode-bidi="normal" text-decoration="none" transform="matrix(1 0 0 1 2260.56 1464)">Incident</text><text fill="#0E3052" fill-opacity="1" font-family="Inter SemiBold,Inter SemiBold_MSFontService,sans-serif" font-style="normal" font-variant="normal" font-weight="600" font-stretch="normal" font-size="55" text-anchor="start" direction="ltr" writing-mode="lr-tb" unicode-bidi="normal" text-decoration="none" transform="matrix(1 0 0 1 2476.55 1464)"> </text><g><g><g><path d="M2176.44 1449.06C2176.44 1450.96 2174.9 1452.5 2173 1452.5 2171.1 1452.5 2169.56 1450.96 2169.56 1449.06 2169.56 1447.16 2171.1 1445.62 2173 1445.62 2174.9 1445.62 2176.44 1447.16 2176.44 1449.06Z" fill="#172E4C" fill-rule="nonzero" fill-opacity="1"/><path d="M2173 1400.94C2171.1 1400.94 2169.56 1402.48 2169.56 1404.37L2169.56 1435.31C2169.56 1437.21 2171.1 1438.75 2173 1438.75 2174.9 1438.75 2176.44 1437.21 2176.44 1435.31L2176.44 1404.37C2176.44 1402.48 2174.9 1400.94 2173 1400.94Z" fill="#172E4C" fill-rule="nonzero" fill-opacity="1"/><path d="M2164.05 1382.08C2168 1375.15 2178 1375.15 2181.95 1382.08L2223.19 1454.26C2227.11 1461.13 2222.15 1469.69 2214.23 1469.69L2131.77 1469.69C2123.85 1469.69 2118.89 1461.13 2122.82 1454.26L2164.05 1382.08ZM2175.98 1385.49C2174.67 1383.18 2171.33 1383.18 2170.02 1385.49L2128.79 1457.67C2127.48 1459.96 2129.13 1462.81 2131.77 1462.81L2214.23 1462.81C2216.87 1462.81 2218.52 1459.96 2217.22 1457.67L2175.98 1385.49Z" fill="#172E4C" fill-rule="evenodd" fill-opacity="1"/></g></g></g><path d="M2061.5 1707.69C2061.5 1687.7 2077.7 1671.5 2097.69 1671.5L3695.31 1671.5C3715.3 1671.5 3731.5 1687.7 3731.5 1707.69L3731.5 1873.31C3731.5 1893.3 3715.3 1909.5 3695.31 1909.5L2097.69 1909.5C2077.7 1909.5 2061.5 1893.3 2061.5 1873.31Z" stroke="#C5CFDB" stroke-width="4.58333" stroke-linecap="butt" stroke-linejoin="miter" stroke-miterlimit="8" stroke-opacity="1" fill="#FFFFFF" fill-rule="evenodd" fill-opacity="1"/><text fill="#3F6DAB" fill-opacity="1" font-family="Inter,Inter_MSFontService,sans-serif" font-style="normal" font-variant="normal" font-weight="400" font-stretch="normal" font-size="46" text-anchor="start" direction="ltr" writing-mode="lr-tb" unicode-bidi="normal" text-decoration="none" transform="matrix(1 0 0 1 2263.55 1764)">REQ0001234</text><text fill="#3F6DAB" fill-opacity="1" font-family="Inter,Inter_MSFontService,sans-serif" font-style="normal" font-variant="normal" font-weight="400" font-stretch="normal" font-size="46" text-anchor="start" direction="ltr" writing-mode="lr-tb" unicode-bidi="normal" text-decoration="none" transform="matrix(1 0 0 1 2546 1764)"> </text><text fill="#0E3052" fill-opacity="1" font-family="Inter SemiBold,Inter SemiBold_MSFontService,sans-serif" font-style="normal" font-variant="normal" font-weight="600" font-stretch="normal" font-size="55" text-anchor="start" direction="ltr" writing-mode="lr-tb" unicode-bidi="normal" text-decoration="none" transform="matrix(1 0 0 1 2263.55 1828)">Request</text><text fill="#0E3052" fill-opacity="1" font-family="Inter,Inter_MSFontService,sans-serif" font-style="normal" font-variant="normal" font-weight="400" font-stretch="normal" font-size="55" text-anchor="start" direction="ltr" writing-mode="lr-tb" unicode-bidi="normal" text-decoration="none" transform="matrix(1 0 0 1 2481.83 1828)"> </text><text fill="#0E3052" fill-opacity="1" font-family="Inter,Inter_MSFontService,sans-serif" font-style="normal" font-variant="normal" font-weight="400" font-stretch="normal" font-size="55" text-anchor="start" direction="ltr" writing-mode="lr-tb" unicode-bidi="normal" text-decoration="none" transform="matrix(1 0 0 1 2497.3 1828)"> </text><g><g><g><path d="M2140.25 1752.25C2138.73 1752.25 2137.5 1753.48 2137.5 1755 2137.5 1756.52 2138.73 1757.75 2140.25 1757.75L2144.04 1757.75C2145.34 1757.75 2146.46 1758.66 2146.73 1759.93L2148.72 1769.32 2153.13 1789.74C2153.35 1790.78 2153.76 1791.73 2154.32 1792.58 2152.45 1794.09 2151.25 1796.4 2151.25 1799 2151.25 1803.56 2154.94 1807.25 2159.5 1807.25L2200.75 1807.25C2202.27 1807.25 2203.5 1806.02 2203.5 1804.5 2203.5 1802.98 2202.27 1801.75 2200.75 1801.75L2159.5 1801.75C2157.98 1801.75 2156.75 1800.52 2156.75 1799 2156.75 1797.52 2157.92 1796.31 2159.39 1796.25L2199.4 1796.25C2203.05 1796.25 2206.26 1793.85 2207.31 1790.35L2211.4 1776.6C2212.98 1771.31 2209.01 1766 2203.49 1766L2153.64 1766 2152.11 1758.79C2151.31 1754.98 2147.94 1752.25 2144.04 1752.25L2140.25 1752.25ZM2199.4 1790.75C2200.62 1790.75 2201.69 1789.95 2202.03 1788.78L2206.13 1775.03C2206.65 1773.27 2205.33 1771.5 2203.49 1771.5L2154.82 1771.5 2158.5 1788.58C2158.78 1789.85 2159.9 1790.75 2161.19 1790.75L2199.4 1790.75Z" fill="#172E4C" fill-rule="evenodd" fill-opacity="1"/><path d="M2173.25 1818.25C2173.25 1821.29 2170.79 1823.75 2167.75 1823.75 2164.71 1823.75 2162.25 1821.29 2162.25 1818.25 2162.25 1815.21 2164.71 1812.75 2167.75 1812.75 2170.79 1812.75 2173.25 1815.21 2173.25 1818.25Z" fill="#172E4C" fill-rule="nonzero" fill-opacity="1"/><path d="M2192.5 1823.75C2195.54 1823.75 2198 1821.29 2198 1818.25 2198 1815.21 2195.54 1812.75 2192.5 1812.75 2189.46 1812.75 2187 1815.21 2187 1818.25 2187 1821.29 2189.46 1823.75 2192.5 1823.75Z" fill="#172E4C" fill-rule="nonzero" fill-opacity="1"/></g></g></g><path d="M625.5 482.318C625.5 461.432 642.432 444.5 663.318 444.5L3737.68 444.5C3758.57 444.5 3775.5 461.432 3775.5 482.318L3775.5 1128.68C3775.5 1149.57 3758.57 1166.5 3737.68 1166.5L663.318 1166.5C642.432 1166.5 625.5 1149.57 625.5 1128.68Z" stroke="#3F6DAB" stroke-width="4.58333" stroke-linecap="butt" stroke-linejoin="miter" stroke-miterlimit="8" stroke-opacity="1" fill="#FFFFFF" fill-rule="evenodd" fill-opacity="0.25098"/><path d="M693.5 912.693C693.5 892.704 709.704 876.5 729.692 876.5L1508.31 876.5C1528.3 876.5 1544.5 892.704 1544.5 912.693L1544.5 1078.31C1544.5 1098.3 1528.3 1114.5 1508.31 1114.5L729.692 1114.5C709.704 1114.5 693.5 1098.3 693.5 1078.31Z" stroke="#C5CFDB" stroke-width="4.58333" stroke-linecap="butt" stroke-linejoin="miter" stroke-miterlimit="8" stroke-opacity="1" fill="#FFFFFF" fill-rule="evenodd" fill-opacity="1"/><path d="M693.5 550.693C693.5 530.704 709.704 514.5 729.692 514.5L1508.31 514.5C1528.3 514.5 1544.5 530.704 1544.5 550.693L1544.5 716.307C1544.5 736.296 1528.3 752.5 1508.31 752.5L729.692 752.5C709.704 752.5 693.5 736.296 693.5 716.307Z" stroke="#C5CFDB" stroke-width="4.58333" stroke-linecap="butt" stroke-linejoin="miter" stroke-miterlimit="8" stroke-opacity="1" fill="#FFFFFF" fill-rule="evenodd" fill-opacity="1"/><g><g><g><path d="M765.917 605.5C763.385 605.5 761.333 607.552 761.333 610.083 761.333 612.614 763.385 614.667 765.917 614.667L800.292 614.667C802.823 614.667 804.875 612.614 804.875 610.083 804.875 607.552 802.823 605.5 800.292 605.5L765.917 605.5ZM811.75 607.792C811.75 606.526 812.776 605.5 814.042 605.5L818.625 605.5C819.89 605.5 820.917 606.526 820.917 607.792L820.917 612.375C820.917 613.64 819.89 614.667 818.625 614.667L814.042 614.667C812.776 614.667 811.75 613.64 811.75 612.375L811.75 607.792ZM827.792 605.5C826.526 605.5 825.5 606.526 825.5 607.792L825.5 612.375C825.5 613.64 826.526 614.667 827.792 614.667L832.375 614.667C833.64 614.667 834.667 613.64 834.667 612.375L834.667 607.792C834.667 606.526 833.64 605.5 832.375 605.5L827.792 605.5Z" fill="#0E3052" fill-rule="nonzero" fill-opacity="1"/><path d="M747.583 605.5C747.583 597.906 753.739 591.75 761.333 591.75L834.667 591.75C842.261 591.75 848.417 597.906 848.417 605.5L848.417 660.5C848.417 668.094 842.261 674.25 834.667 674.25L761.333 674.25C753.739 674.25 747.583 668.094 747.583 660.5L747.583 605.5ZM761.333 600.917C758.802 600.917 756.75 602.969 756.75 605.5L756.75 619.25 839.25 619.25 839.25 605.5C839.25 602.969 837.198 600.917 834.667 600.917L761.333 600.917ZM756.75 660.5C756.75 663.031 758.802 665.083 761.333 665.083L834.667 665.083C837.198 665.083 839.25 663.031 839.25 660.5L839.25 628.417 756.75 628.417 756.75 660.5Z" fill="#0E3052" fill-rule="nonzero" fill-opacity="1"/></g></g></g><g><g><g><path d="M771.162 975.223C773.91 962.934 784.883 953.75 798 953.75 811.117 953.75 822.089 962.934 824.837 975.223 821.182 976.808 818.625 980.449 818.625 984.688L818.625 1008.75C818.625 1013.23 821.476 1017.03 825.46 1018.46 824.906 1026.22 818.624 1032.4 810.819 1032.79 809.627 1030.75 807.411 1029.38 804.875 1029.38 801.078 1029.38 798 1032.45 798 1036.25 798 1040.05 801.078 1043.13 804.875 1043.13 807.425 1043.13 809.652 1041.74 810.838 1039.67 822.425 1039.26 831.765 1030.03 832.346 1018.49 835.306 1017.45 837.649 1015.1 838.68 1012.14 838.865 1012.17 839.056 1012.19 839.25 1012.19 841.148 1012.19 842.687 1010.65 842.687 1008.75L842.687 988.125C842.687 986.227 841.148 984.688 839.25 984.688 839.25 979.972 836.085 975.997 831.764 974.767 828.733 958.882 814.769 946.875 798 946.875 781.231 946.875 767.267 958.882 764.235 974.767 759.914 975.997 756.75 979.972 756.75 984.688 754.851 984.688 753.312 986.227 753.312 988.125L753.312 1008.75C753.312 1010.65 754.851 1012.19 756.75 1012.19 756.944 1012.19 757.135 1012.17 757.32 1012.14 758.722 1016.17 762.555 1019.06 767.062 1019.06 772.758 1019.06 777.375 1014.45 777.375 1008.75L777.375 984.688C777.375 980.449 774.818 976.808 771.162 975.223Z" fill="#0E3052" fill-rule="nonzero" fill-opacity="1"/></g></g></g><text fill="#0E3052" fill-opacity="1" font-family="Inter SemiBold,Inter SemiBold_MSFontService,sans-serif" font-style="normal" font-variant="normal" font-weight="600" font-stretch="normal" font-size="55" text-anchor="start" direction="ltr" writing-mode="lr-tb" unicode-bidi="normal" text-decoration="none" transform="matrix(1 0 0 1 913.303 609)">NCDIT Support </text><text fill="#0E3052" fill-opacity="1" font-family="Inter SemiBold,Inter SemiBold_MSFontService,sans-serif" font-style="normal" font-variant="normal" font-weight="600" font-stretch="normal" font-size="55" text-anchor="start" direction="ltr" writing-mode="lr-tb" unicode-bidi="normal" text-decoration="none" transform="matrix(1 0 0 1 913.303 675)">Center</text><text fill="#0E3052" fill-opacity="1" font-family="Inter SemiBold,Inter SemiBold_MSFontService,sans-serif" font-style="normal" font-variant="normal" font-weight="600" font-stretch="normal" font-size="55" text-anchor="start" direction="ltr" writing-mode="lr-tb" unicode-bidi="normal" text-decoration="none" transform="matrix(1 0 0 1 1093.77 675)"> </text><text fill="#0E3052" fill-opacity="1" font-family="Inter SemiBold,Inter SemiBold_MSFontService,sans-serif" font-style="normal" font-variant="normal" font-weight="600" font-stretch="normal" font-size="55" text-anchor="start" direction="ltr" writing-mode="lr-tb" unicode-bidi="normal" text-decoration="none" transform="matrix(1 0 0 1 913.303 970)">NCDIT Service </text><text fill="#0E3052" fill-opacity="1" font-family="Inter SemiBold,Inter SemiBold_MSFontService,sans-serif" font-style="normal" font-variant="normal" font-weight="600" font-stretch="normal" font-size="55" text-anchor="start" direction="ltr" writing-mode="lr-tb" unicode-bidi="normal" text-decoration="none" transform="matrix(1 0 0 1 913.303 1036)">Desk Interaction</text><text fill="#0E3052" fill-opacity="1" font-family="Inter SemiBold,Inter SemiBold_MSFontService,sans-serif" font-style="normal" font-variant="normal" font-weight="600" font-stretch="normal" font-size="55" text-anchor="start" direction="ltr" writing-mode="lr-tb" unicode-bidi="normal" text-decoration="none" transform="matrix(1 0 0 1 1347.57 1036)"> </text><text fill="#3F6DAB" fill-opacity="1" font-family="Inter,Inter_MSFontService,sans-serif" font-style="normal" font-variant="normal" font-weight="400" font-stretch="normal" font-size="46" text-anchor="start" direction="ltr" writing-mode="lr-tb" unicode-bidi="normal" text-decoration="none" transform="matrix(1 0 0 1 913.303 828)">OR</text><text fill="#3F6DAB" fill-opacity="1" font-family="Inter,Inter_MSFontService,sans-serif" font-style="normal" font-variant="normal" font-weight="400" font-stretch="normal" font-size="46" text-anchor="start" direction="ltr" writing-mode="lr-tb" unicode-bidi="normal" text-decoration="none" transform="matrix(1 0 0 1 977.469 828)"> </text><path d="M1544.5 631.208 1647.96 631.208 1647.96 838.799 1645.66 836.507 1723.91 836.507 1723.91 841.09 1643.37 841.09 1643.37 633.5 1645.66 635.792 1544.5 635.792ZM1719.33 825.049 1746.83 838.799 1719.33 852.549Z" fill="#0E3052" fill-rule="nonzero" fill-opacity="1"/><path d="M1746.5 757.692C1746.5 737.704 1762.7 721.5 1782.69 721.5L3695.31 721.5C3715.3 721.5 3731.5 737.704 3731.5 757.692L3731.5 923.308C3731.5 943.296 3715.3 959.5 3695.31 959.5L1782.69 959.5C1762.7 959.5 1746.5 943.296 1746.5 923.308Z" stroke="#C5CFDB" stroke-width="4.58333" stroke-linecap="butt" stroke-linejoin="miter" stroke-miterlimit="8" stroke-opacity="1" fill="#FFFFFF" fill-rule="evenodd" fill-opacity="1"/><text fill="#527BBD" fill-opacity="1" font-family="Inter,Inter_MSFontService,sans-serif" font-style="normal" font-variant="normal" font-weight="400" font-stretch="normal" font-size="46" text-anchor="start" direction="ltr" writing-mode="lr-tb" unicode-bidi="normal" text-decoration="none" transform="matrix(1 0 0 1 1948.38 814)">GOVCS0001234</text><text fill="#527BBD" fill-opacity="1" font-family="Inter,Inter_MSFontService,sans-serif" font-style="normal" font-variant="normal" font-weight="400" font-stretch="normal" font-size="46" text-anchor="start" direction="ltr" writing-mode="lr-tb" unicode-bidi="normal" text-decoration="none" transform="matrix(1 0 0 1 2302.44 814)"> </text><text fill="#172E4C" fill-opacity="1" font-family="Inter SemiBold,Inter SemiBold_MSFontService,sans-serif" font-style="normal" font-variant="normal" font-weight="600" font-stretch="normal" font-size="55" text-anchor="start" direction="ltr" writing-mode="lr-tb" unicode-bidi="normal" text-decoration="none" transform="matrix(1 0 0 1 1948.38 878)">Case</text><text fill="#172E4C" fill-opacity="1" font-family="Inter SemiBold,Inter SemiBold_MSFontService,sans-serif" font-style="normal" font-variant="normal" font-weight="600" font-stretch="normal" font-size="55" text-anchor="start" direction="ltr" writing-mode="lr-tb" unicode-bidi="normal" text-decoration="none" transform="matrix(1 0 0 1 2083.59 878)"> </text><g><g><g><path d="M1811.88 810.5C1811.88 804.805 1816.49 800.188 1822.19 800.188L1838.25 800.188C1840.98 800.188 1843.6 801.274 1845.54 803.208L1851.82 809.493C1852.47 810.138 1853.34 810.5 1854.25 810.5L1884.06 810.5C1889.76 810.5 1894.38 815.117 1894.38 820.813L1894.38 824.25 1897.76 824.25C1904.4 824.25 1909.3 830.419 1907.81 836.881L1900.67 867.819C1899.59 872.498 1895.43 875.813 1890.62 875.813L1822.19 875.813C1816.49 875.813 1811.88 871.196 1811.88 865.5L1811.88 810.5ZM1818.75 842.19 1821.05 832.244C1822.13 827.565 1826.29 824.25 1831.09 824.25L1887.5 824.25 1887.5 820.813C1887.5 818.914 1885.96 817.375 1884.06 817.375L1854.25 817.375C1851.52 817.375 1848.9 816.289 1846.96 814.355L1840.68 808.069C1840.03 807.425 1839.16 807.063 1838.25 807.063L1822.19 807.063C1820.29 807.063 1818.75 808.602 1818.75 810.5L1818.75 842.19ZM1827.74 833.789C1828.1 832.23 1829.49 831.125 1831.09 831.125L1897.76 831.125C1899.97 831.125 1901.61 833.181 1901.11 835.336L1893.97 866.273C1893.61 867.833 1892.22 868.938 1890.62 868.938L1823.95 868.938C1821.74 868.938 1820.11 866.881 1820.6 864.727L1827.74 833.789Z" fill="#0E3052" fill-rule="evenodd" fill-opacity="1"/></g></g></g><path d="M1743 390.335C1743 372.477 1757.48 358 1775.34 358L2690.66 358C2708.52 358 2723 372.477 2723 390.335L2723 480.664C2723 498.523 2708.52 513 2690.66 513L1775.34 513C1757.48 513 1743 498.523 1743 480.664Z" fill="#3F6DAB" fill-rule="evenodd" fill-opacity="1"/><g><g><g><path d="M97.7778 15.2778C99.4583 15.2778 100.833 16.6528 100.833 18.3333L100.833 79.4444C100.833 81.125 99.4583 82.5 97.7778 82.5L12.2222 82.5C10.5417 82.5 9.16667 81.125 9.16667 79.4444L9.16667 18.3333C9.16667 16.6528 10.5417 15.2778 12.2222 15.2778L97.7778 15.2778ZM12.2222 6.11111C5.4809 6.11111 0 11.592 0 18.3333L0 79.4444C0 86.1858 5.4809 91.6667 12.2222 91.6667L97.7778 91.6667C104.519 91.6667 110 86.1858 110 79.4444L110 18.3333C110 11.592 104.519 6.11111 97.7778 6.11111L12.2222 6.11111ZM39.7222 48.8889C46.4723 48.8889 51.9444 43.4168 51.9444 36.6667 51.9444 29.9166 46.4723 24.4444 39.7222 24.4444 32.9721 24.4444 27.5 29.9166 27.5 36.6667 27.5 43.4168 32.9721 48.8889 39.7222 48.8889ZM33.6111 55C25.1701 55 18.3333 61.8368 18.3333 70.2778 18.3333 71.9583 19.7083 73.3333 21.3889 73.3333L58.0556 73.3333C59.7361 73.3333 61.1111 71.9583 61.1111 70.2778 61.1111 61.8368 54.2743 55 45.8333 55L33.6111 55ZM71.8056 27.5C69.2656 27.5 67.2222 29.5434 67.2222 32.0833 67.2222 34.6233 69.2656 36.6667 71.8056 36.6667L87.0833 36.6667C89.6233 36.6667 91.6667 34.6233 91.6667 32.0833 91.6667 29.5434 89.6233 27.5 87.0833 27.5L71.8056 27.5ZM71.8056 45.8333C69.2656 45.8333 67.2222 47.8767 67.2222 50.4167 67.2222 52.9566 69.2656 55 71.8056 55L87.0833 55C89.6233 55 91.6667 52.9566 91.6667 50.4167 91.6667 47.8767 89.6233 45.8333 87.0833 45.8333L71.8056 45.8333Z" fill="#FFFFFF" fill-rule="nonzero" fill-opacity="1" transform="matrix(1 0 0 1.00227 1796 386)"/></g></g></g><text fill="#FFFFFF" fill-opacity="1" font-family="Inter SemiBold,Inter SemiBold_MSFontService,sans-serif" font-style="normal" font-variant="normal" font-weight="600" font-stretch="normal" font-size="46" text-anchor="start" direction="ltr" writing-mode="lr-tb" unicode-bidi="normal" text-decoration="none" transform="matrix(1 0 0 1 1953.75 450)">AGENCY / LOCAL GOVT USER</text><text fill="#FFFFFF" fill-opacity="1" font-family="Inter SemiBold,Inter SemiBold_MSFontService,sans-serif" font-style="normal" font-variant="normal" font-weight="600" font-stretch="normal" font-size="46" text-anchor="start" direction="ltr" writing-mode="lr-tb" unicode-bidi="normal" text-decoration="none" transform="matrix(1 0 0 1 2621.2 450)"> </text><path d="M0-2.29167 472.012-2.29167 472.012 171.384 467.428 171.384 467.428 0 469.72 2.29167 0 2.29167ZM483.47 166.801 469.72 194.301 455.97 166.801Z" fill="#0E3052" fill-rule="nonzero" fill-opacity="1" transform="matrix(1.83697e-16 1 1 -1.83697e-16 1864.5 957.5)"/><path d="M2500 1994.34C2500 1976.48 2514.48 1962 2532.34 1962L3302.66 1962C3320.52 1962 3335 1976.48 3335 1994.34L3335 2084.66C3335 2102.52 3320.52 2117 3302.66 2117L2532.34 2117C2514.48 2117 2500 2102.52 2500 2084.66Z" fill="#3F6DAB" fill-rule="evenodd" fill-opacity="1"/><g><g><g><path d="M2606.27 2034.54C2613.97 2027.49 2614.5 2015.53 2607.45 2007.83 2600.4 2000.13 2588.44 1999.6 2580.73 2006.65 2573.03 2013.7 2572.5 2025.66 2579.55 2033.36 2579.93 2033.77 2580.32 2034.16 2580.73 2034.54 2578.92 2035.36 2577.21 2036.41 2575.65 2037.66 2573.74 2034.7 2571.09 2032.3 2567.96 2030.69 2572.49 2024.95 2571.52 2016.63 2565.78 2012.1 2560.04 2007.57 2551.72 2008.55 2547.19 2014.28 2543.39 2019.09 2543.39 2025.88 2547.19 2030.69 2541.08 2033.89 2536.78 2039.86 2536.78 2047.06L2536.78 2050.84C2536.78 2057.11 2541.86 2062.19 2548.12 2062.19L2567.03 2062.19 2567.03 2065.97C2567.03 2072.23 2572.11 2077.31 2578.38 2077.31L2608.62 2077.31C2614.89 2077.31 2619.97 2072.23 2619.97 2065.97L2619.97 2062.19 2638.88 2062.19C2645.14 2062.19 2650.22 2057.11 2650.22 2050.84L2650.22 2047.06C2650.22 2039.86 2645.93 2033.89 2639.81 2030.69 2644.34 2024.95 2643.36 2016.63 2637.63 2012.1 2631.89 2007.57 2623.57 2008.55 2619.04 2014.28 2615.24 2019.09 2615.24 2025.88 2619.04 2030.69 2615.91 2032.3 2613.26 2034.7 2611.35 2037.66 2609.79 2036.41 2608.08 2035.36 2606.27 2034.54ZM2593.5 2009.25C2599.77 2009.25 2604.84 2014.33 2604.84 2020.59 2604.84 2026.86 2599.77 2031.94 2593.5 2031.94 2587.23 2031.94 2582.16 2026.86 2582.16 2020.59 2582.16 2014.33 2587.23 2009.25 2593.5 2009.25ZM2593.5 2039.5C2599.52 2039.5 2604.23 2041.33 2607.38 2044.21 2610.5 2047.06 2612.41 2051.22 2612.41 2056.52L2612.41 2065.97C2612.41 2068.06 2610.71 2069.75 2608.62 2069.75L2578.38 2069.75C2576.29 2069.75 2574.59 2068.06 2574.59 2065.97L2574.59 2056.52C2574.59 2051.21 2576.5 2047.06 2579.62 2044.21 2582.77 2041.33 2587.48 2039.5 2593.5 2039.5ZM2619.91 2054.62C2619.64 2050.66 2618.56 2047.03 2616.73 2043.89 2618.29 2039.36 2623.11 2035.72 2629.42 2035.72 2637.16 2035.72 2642.66 2041.2 2642.66 2047.06L2642.66 2050.84C2642.66 2052.93 2640.96 2054.62 2638.88 2054.62L2619.91 2054.62ZM2570.27 2043.89C2568.44 2047.03 2567.36 2050.66 2567.1 2054.62L2548.12 2054.62C2546.04 2054.62 2544.34 2052.93 2544.34 2050.84L2544.34 2047.06C2544.34 2041.2 2549.84 2035.72 2557.58 2035.72 2563.89 2035.72 2568.71 2039.36 2570.27 2043.89ZM2557.58 2016.81C2560.71 2016.81 2563.25 2019.35 2563.25 2022.48 2563.25 2025.62 2560.71 2028.16 2557.58 2028.16 2554.45 2028.16 2551.91 2025.62 2551.91 2022.48 2551.91 2019.35 2554.45 2016.81 2557.58 2016.81ZM2635.09 2022.48C2635.09 2025.62 2632.55 2028.16 2629.42 2028.16 2626.29 2028.16 2623.75 2025.62 2623.75 2022.48 2623.75 2019.35 2626.29 2016.81 2629.42 2016.81 2632.55 2016.81 2635.09 2019.35 2635.09 2022.48Z" fill="#FFFFFF" fill-rule="nonzero" fill-opacity="1"/></g></g></g><text fill="#FFFFFF" fill-opacity="1" font-family="Inter SemiBold,Inter SemiBold_MSFontService,sans-serif" font-style="normal" font-variant="normal" font-weight="600" font-stretch="normal" font-size="46" text-anchor="start" direction="ltr" writing-mode="lr-tb" unicode-bidi="normal" text-decoration="none" transform="matrix(1 0 0 1 2695.96 2054)">NCDIT DELIVERY TEAMS</text><text fill="#FFFFFF" fill-opacity="1" font-family="Inter SemiBold,Inter SemiBold_MSFontService,sans-serif" font-style="normal" font-variant="normal" font-weight="600" font-stretch="normal" font-size="46" text-anchor="start" direction="ltr" writing-mode="lr-tb" unicode-bidi="normal" text-decoration="none" transform="matrix(1 0 0 1 3249.4 2054)"> </text><path d="M0-2.29167 835.897-2.29167 835.897 174.376 831.314 174.376 831.314 0 833.605 2.29167 0 2.29167ZM847.355 169.793 833.605 197.293 819.855 169.793Z" fill="#0E3052" fill-rule="nonzero" fill-opacity="1" transform="matrix(1.83697e-16 1 1 -1.83697e-16 1864.5 957.5)"/><text fill="#527BBD" fill-opacity="1" font-family="Inter,Inter_MSFontService,sans-serif" font-style="normal" font-variant="normal" font-weight="400" font-stretch="normal" font-size="46" text-anchor="start" direction="ltr" writing-mode="lr-tb" unicode-bidi="normal" text-decoration="none" transform="matrix(1 0 0 1 2261.93 1621)">OR</text><text fill="#527BBD" fill-opacity="1" font-family="Inter,Inter_MSFontService,sans-serif" font-style="normal" font-variant="normal" font-weight="400" font-stretch="normal" font-size="46" text-anchor="start" direction="ltr" writing-mode="lr-tb" unicode-bidi="normal" text-decoration="none" transform="matrix(1 0 0 1 2326.1 1621)"> </text><path d="M0-2.29167 103.456-2.29167 103.456 156.554 101.164 154.263 179.411 154.263 179.411 158.846 98.8724 158.846 98.8724 0 101.164 2.29167 0 2.29167ZM174.828 142.804 202.328 156.554 174.828 170.304Z" fill="#0E3052" fill-rule="nonzero" fill-opacity="1" transform="matrix(1 0 0 -1 1544.5 996.054)"/><path d="M2749.5 1383.33C2749.5 1371.28 2759.28 1361.5 2771.33 1361.5L3065.67 1361.5C3077.72 1361.5 3087.5 1371.28 3087.5 1383.33L3087.5 1470.67C3087.5 1482.72 3077.72 1492.5 3065.67 1492.5L2771.33 1492.5C2759.28 1492.5 2749.5 1482.72 2749.5 1470.67Z" stroke="#C5CFDB" stroke-width="4.58333" stroke-linecap="butt" stroke-linejoin="miter" stroke-miterlimit="8" stroke-opacity="1" fill="#FFFFFF" fill-rule="evenodd" fill-opacity="1"/><g><g><g><path d="M2814 1395.75C2813.47 1395.75 2812.94 1395.76 2812.42 1395.79 2810.9 1395.9 2809.76 1397.21 2809.87 1398.73 2809.97 1400.2 2811.22 1401.33 2812.7 1401.28 2826.35 1400.58 2837.99 1411.07 2838.7 1424.72 2839.4 1438.37 2828.91 1450.01 2815.26 1450.72 2814.41 1450.76 2813.55 1450.76 2812.7 1450.72 2811.19 1450.61 2809.87 1451.75 2809.77 1453.27 2809.66 1454.78 2810.8 1456.1 2812.32 1456.2 2812.35 1456.21 2812.38 1456.21 2812.42 1456.21 2812.94 1456.24 2813.47 1456.25 2814 1456.25 2830.71 1456.25 2844.25 1442.71 2844.25 1426 2844.25 1409.29 2830.71 1395.75 2814 1395.75ZM2802.76 1403.94C2804.12 1403.25 2804.65 1401.59 2803.96 1400.24 2803.27 1398.89 2801.61 1398.35 2800.26 1399.04 2799.32 1399.52 2798.41 1400.05 2797.52 1400.63 2796.23 1401.42 2795.82 1403.11 2796.61 1404.41 2797.41 1405.7 2799.1 1406.11 2800.39 1405.32 2800.44 1405.29 2800.48 1405.27 2800.52 1405.24 2801.24 1404.77 2801.99 1404.33 2802.76 1403.94ZM2792.43 1408.72C2793.71 1409.55 2794.07 1411.25 2793.24 1412.52 2792.77 1413.24 2792.34 1413.99 2791.94 1414.76 2791.25 1416.12 2789.59 1416.65 2788.24 1415.96 2786.89 1415.27 2786.35 1413.61 2787.04 1412.26 2787.53 1411.32 2788.05 1410.4 2788.63 1409.52 2789.46 1408.25 2791.16 1407.89 2792.43 1408.72 2792.43 1408.72 2792.43 1408.72 2792.43 1408.72ZM2789.28 1424.7C2789.33 1423.18 2788.14 1421.91 2786.62 1421.86 2785.15 1421.81 2783.89 1422.94 2783.79 1424.42 2783.74 1425.47 2783.74 1426.53 2783.79 1427.58 2783.9 1429.1 2785.21 1430.24 2786.73 1430.13 2788.2 1430.03 2789.33 1428.78 2789.28 1427.3 2789.24 1426.43 2789.24 1425.57 2789.28 1424.7ZM2788.24 1436.04C2789.59 1435.35 2791.25 1435.88 2791.94 1437.23 2791.94 1437.23 2791.94 1437.24 2791.94 1437.24 2792.34 1438.01 2792.77 1438.76 2793.24 1439.48 2794.03 1440.78 2793.62 1442.47 2792.33 1443.26 2791.08 1444.03 2789.46 1443.68 2788.63 1442.48 2788.05 1441.59 2787.52 1440.68 2787.04 1439.74 2786.35 1438.39 2786.89 1436.73 2788.24 1436.04 2788.24 1436.04 2788.24 1436.04 2788.24 1436.04ZM2800.52 1446.76C2799.27 1445.9 2797.56 1446.21 2796.69 1447.47 2795.83 1448.72 2796.15 1450.43 2797.4 1451.29 2797.44 1451.32 2797.48 1451.35 2797.52 1451.37 2798.4 1451.95 2799.32 1452.47 2800.26 1452.96 2801.61 1453.65 2803.27 1453.11 2803.96 1451.76 2804.65 1450.41 2804.12 1448.75 2802.76 1448.06 2801.99 1447.66 2801.24 1447.23 2800.52 1446.76Z" fill="#0E3052" fill-rule="nonzero" fill-opacity="1"/><path d="M2826.94 1422.44C2828 1421.35 2827.97 1419.61 2826.88 1418.56 2825.81 1417.53 2824.12 1417.53 2823.06 1418.56L2808.5 1433.11 2802.19 1426.81C2801.1 1425.75 2799.36 1425.78 2798.31 1426.87 2797.28 1427.94 2797.28 1429.63 2798.31 1430.69L2806.56 1438.94C2807.63 1440.02 2809.37 1440.02 2810.44 1438.94L2826.94 1422.44Z" fill="#0E3052" fill-rule="nonzero" fill-opacity="1"/></g></g></g><text fill="#0E3052" fill-opacity="1" font-family="Inter Medium,Inter Medium_MSFontService,sans-serif" font-style="normal" font-variant="normal" font-weight="500" font-stretch="normal" font-size="46" text-anchor="start" direction="ltr" writing-mode="lr-tb" unicode-bidi="normal" text-decoration="none" transform="matrix(1 0 0 1 2871.44 1441)">Status</text><text fill="#0E3052" fill-opacity="1" font-family="Inter Medium,Inter Medium_MSFontService,sans-serif" font-style="normal" font-variant="normal" font-weight="500" font-stretch="normal" font-size="46" text-anchor="start" direction="ltr" writing-mode="lr-tb" unicode-bidi="normal" text-decoration="none" transform="matrix(1 0 0 1 3010.09 1441)"> </text><path d="M3194.5 1381.17C3194.5 1369.2 3204.2 1359.5 3216.17 1359.5L3658.83 1359.5C3670.8 1359.5 3680.5 1369.2 3680.5 1381.17L3680.5 1467.83C3680.5 1479.8 3670.8 1489.5 3658.83 1489.5L3216.17 1489.5C3204.2 1489.5 3194.5 1479.8 3194.5 1467.83Z" stroke="#C5CFDB" stroke-width="4.58333" stroke-linecap="butt" stroke-linejoin="miter" stroke-miterlimit="8" stroke-opacity="1" fill="#FFFFFF" fill-rule="evenodd" fill-opacity="1"/><g><g><g><path d="M3240.75 1404.75C3236.19 1404.75 3232.5 1408.44 3232.5 1413L3232.5 1435C3232.5 1439.56 3236.19 1443.25 3240.75 1443.25L3279.25 1443.25C3283.81 1443.25 3287.5 1439.56 3287.5 1435L3287.5 1413C3287.5 1408.44 3283.81 1404.75 3279.25 1404.75L3240.75 1404.75ZM3238 1413.57 3238 1435C3238 1436.52 3239.23 1437.75 3240.75 1437.75L3279.25 1437.75C3280.77 1437.75 3282 1436.52 3282 1435L3282 1413.57 3265.24 1427.37C3262.2 1429.88 3257.8 1429.88 3254.76 1427.37L3238 1413.57ZM3277.38 1410.25 3242.62 1410.25 3258.25 1423.12C3259.27 1423.96 3260.73 1423.96 3261.75 1423.12L3277.38 1410.25Z" fill="#0E3052" fill-rule="evenodd" fill-opacity="1"/></g></g></g><text fill="#0E3052" fill-opacity="1" font-family="Inter Medium,Inter Medium_MSFontService,sans-serif" font-style="normal" font-variant="normal" font-weight="500" font-stretch="normal" font-size="46" text-anchor="start" direction="ltr" writing-mode="lr-tb" unicode-bidi="normal" text-decoration="none" transform="matrix(1 0 0 1 3317.16 1439)">Notifications</text><text fill="#0E3052" fill-opacity="1" font-family="Inter Medium,Inter Medium_MSFontService,sans-serif" font-style="normal" font-variant="normal" font-weight="500" font-stretch="normal" font-size="46" text-anchor="start" direction="ltr" writing-mode="lr-tb" unicode-bidi="normal" text-decoration="none" transform="matrix(1 0 0 1 3593.88 1439)"> </text><path d="M2749.5 1747.17C2749.5 1735.2 2759.2 1725.5 2771.17 1725.5L3065.83 1725.5C3077.8 1725.5 3087.5 1735.2 3087.5 1747.17L3087.5 1833.83C3087.5 1845.8 3077.8 1855.5 3065.83 1855.5L2771.17 1855.5C2759.2 1855.5 2749.5 1845.8 2749.5 1833.83Z" stroke="#C5CFDB" stroke-width="4.58333" stroke-linecap="butt" stroke-linejoin="miter" stroke-miterlimit="8" stroke-opacity="1" fill="#FFFFFF" fill-rule="evenodd" fill-opacity="1"/><g><g><g><path d="M2814 1759.75C2813.47 1759.75 2812.94 1759.76 2812.42 1759.79 2810.9 1759.9 2809.76 1761.21 2809.87 1762.73 2809.97 1764.2 2811.22 1765.33 2812.7 1765.28 2826.35 1764.58 2837.99 1775.07 2838.7 1788.72 2839.4 1802.37 2828.91 1814.01 2815.26 1814.72 2814.41 1814.76 2813.55 1814.76 2812.7 1814.72 2811.19 1814.61 2809.87 1815.75 2809.77 1817.27 2809.66 1818.78 2810.8 1820.1 2812.32 1820.2 2812.35 1820.21 2812.38 1820.21 2812.42 1820.21 2812.94 1820.24 2813.47 1820.25 2814 1820.25 2830.71 1820.25 2844.25 1806.71 2844.25 1790 2844.25 1773.29 2830.71 1759.75 2814 1759.75ZM2802.76 1767.94C2804.12 1767.25 2804.65 1765.59 2803.96 1764.24 2803.27 1762.89 2801.61 1762.35 2800.26 1763.04 2799.32 1763.52 2798.41 1764.05 2797.52 1764.63 2796.23 1765.42 2795.82 1767.11 2796.61 1768.41 2797.41 1769.7 2799.1 1770.11 2800.39 1769.32 2800.44 1769.29 2800.48 1769.27 2800.52 1769.24 2801.24 1768.77 2801.99 1768.33 2802.76 1767.94ZM2792.43 1772.72C2793.71 1773.55 2794.07 1775.25 2793.24 1776.52 2792.77 1777.24 2792.34 1777.99 2791.94 1778.76 2791.25 1780.12 2789.59 1780.65 2788.24 1779.96 2786.89 1779.27 2786.35 1777.61 2787.04 1776.26 2787.53 1775.32 2788.05 1774.4 2788.63 1773.52 2789.46 1772.25 2791.16 1771.89 2792.43 1772.72 2792.43 1772.72 2792.43 1772.72 2792.43 1772.72ZM2789.28 1788.7C2789.33 1787.18 2788.14 1785.91 2786.62 1785.86 2785.15 1785.81 2783.89 1786.94 2783.79 1788.42 2783.74 1789.47 2783.74 1790.53 2783.79 1791.58 2783.9 1793.1 2785.21 1794.24 2786.73 1794.13 2788.2 1794.03 2789.33 1792.78 2789.28 1791.3 2789.24 1790.43 2789.24 1789.57 2789.28 1788.7ZM2788.24 1800.04C2789.59 1799.35 2791.25 1799.88 2791.94 1801.23 2791.94 1801.23 2791.94 1801.24 2791.94 1801.24 2792.34 1802.01 2792.77 1802.76 2793.24 1803.48 2794.03 1804.78 2793.62 1806.47 2792.33 1807.26 2791.08 1808.03 2789.46 1807.68 2788.63 1806.48 2788.05 1805.59 2787.52 1804.68 2787.04 1803.74 2786.35 1802.39 2786.89 1800.73 2788.24 1800.04 2788.24 1800.04 2788.24 1800.04 2788.24 1800.04ZM2800.52 1810.76C2799.27 1809.9 2797.56 1810.21 2796.69 1811.47 2795.83 1812.72 2796.15 1814.43 2797.4 1815.29 2797.44 1815.32 2797.48 1815.35 2797.52 1815.37 2798.4 1815.95 2799.32 1816.47 2800.26 1816.96 2801.61 1817.65 2803.27 1817.11 2803.96 1815.76 2804.65 1814.41 2804.12 1812.75 2802.76 1812.06 2801.99 1811.66 2801.24 1811.23 2800.52 1810.76Z" fill="#0E3052" fill-rule="nonzero" fill-opacity="1"/><path d="M2826.94 1786.44C2828 1785.35 2827.97 1783.61 2826.88 1782.56 2825.81 1781.53 2824.12 1781.53 2823.06 1782.56L2808.5 1797.11 2802.19 1790.81C2801.1 1789.75 2799.36 1789.78 2798.31 1790.87 2797.28 1791.94 2797.28 1793.63 2798.31 1794.69L2806.56 1802.94C2807.63 1804.02 2809.37 1804.02 2810.44 1802.94L2826.94 1786.44Z" fill="#0E3052" fill-rule="nonzero" fill-opacity="1"/></g></g></g><text fill="#0E3052" fill-opacity="1" font-family="Inter Medium,Inter Medium_MSFontService,sans-serif" font-style="normal" font-variant="normal" font-weight="500" font-stretch="normal" font-size="46" text-anchor="start" direction="ltr" writing-mode="lr-tb" unicode-bidi="normal" text-decoration="none" transform="matrix(1 0 0 1 2871.44 1805)">Status</text><text fill="#0E3052" fill-opacity="1" font-family="Inter Medium,Inter Medium_MSFontService,sans-serif" font-style="normal" font-variant="normal" font-weight="500" font-stretch="normal" font-size="46" text-anchor="start" direction="ltr" writing-mode="lr-tb" unicode-bidi="normal" text-decoration="none" transform="matrix(1 0 0 1 3010.09 1805)"> </text><path d="M3194.5 1745.17C3194.5 1733.2 3204.2 1723.5 3216.17 1723.5L3658.83 1723.5C3670.8 1723.5 3680.5 1733.2 3680.5 1745.17L3680.5 1831.83C3680.5 1843.8 3670.8 1853.5 3658.83 1853.5L3216.17 1853.5C3204.2 1853.5 3194.5 1843.8 3194.5 1831.83Z" stroke="#C5CFDB" stroke-width="4.58333" stroke-linecap="butt" stroke-linejoin="miter" stroke-miterlimit="8" stroke-opacity="1" fill="#FFFFFF" fill-rule="evenodd" fill-opacity="1"/><g><g><g><path d="M3240.75 1768.75C3236.19 1768.75 3232.5 1772.44 3232.5 1777L3232.5 1799C3232.5 1803.56 3236.19 1807.25 3240.75 1807.25L3279.25 1807.25C3283.81 1807.25 3287.5 1803.56 3287.5 1799L3287.5 1777C3287.5 1772.44 3283.81 1768.75 3279.25 1768.75L3240.75 1768.75ZM3238 1777.57 3238 1799C3238 1800.52 3239.23 1801.75 3240.75 1801.75L3279.25 1801.75C3280.77 1801.75 3282 1800.52 3282 1799L3282 1777.57 3265.24 1791.37C3262.2 1793.88 3257.8 1793.88 3254.76 1791.37L3238 1777.57ZM3277.38 1774.25 3242.62 1774.25 3258.25 1787.12C3259.27 1787.96 3260.73 1787.96 3261.75 1787.12L3277.38 1774.25Z" fill="#0E3052" fill-rule="evenodd" fill-opacity="1"/></g></g></g><text fill="#0E3052" fill-opacity="1" font-family="Inter Medium,Inter Medium_MSFontService,sans-serif" font-style="normal" font-variant="normal" font-weight="500" font-stretch="normal" font-size="46" text-anchor="start" direction="ltr" writing-mode="lr-tb" unicode-bidi="normal" text-decoration="none" transform="matrix(1 0 0 1 3317.16 1803)">Notifications</text><text fill="#0E3052" fill-opacity="1" font-family="Inter Medium,Inter Medium_MSFontService,sans-serif" font-style="normal" font-variant="normal" font-weight="500" font-stretch="normal" font-size="46" text-anchor="start" direction="ltr" writing-mode="lr-tb" unicode-bidi="normal" text-decoration="none" transform="matrix(1 0 0 1 3593.88 1803)"> </text><path d="M2749.5 796.167C2749.5 784.201 2759.2 774.5 2771.17 774.5L3065.83 774.5C3077.8 774.5 3087.5 784.201 3087.5 796.167L3087.5 882.833C3087.5 894.799 3077.8 904.5 3065.83 904.5L2771.17 904.5C2759.2 904.5 2749.5 894.799 2749.5 882.833Z" stroke="#C5CFDB" stroke-width="4.58333" stroke-linecap="butt" stroke-linejoin="miter" stroke-miterlimit="8" stroke-opacity="1" fill="#FFFFFF" fill-rule="evenodd" fill-opacity="1"/><g><g><g><path d="M2814 808.75C2813.47 808.75 2812.94 808.764 2812.42 808.791 2810.9 808.898 2809.76 810.212 2809.87 811.727 2809.97 813.203 2811.22 814.332 2812.7 814.283 2826.35 813.578 2837.99 824.072 2838.7 837.722 2839.4 851.373 2828.91 863.011 2815.26 863.717 2814.41 863.761 2813.55 863.761 2812.7 863.717 2811.19 863.611 2809.87 864.753 2809.77 866.268 2809.66 867.783 2810.8 869.097 2812.32 869.204 2812.35 869.206 2812.38 869.208 2812.42 869.209 2812.94 869.236 2813.47 869.25 2814 869.25 2830.71 869.25 2844.25 855.706 2844.25 839 2844.25 822.294 2830.71 808.75 2814 808.75ZM2802.76 816.942C2804.12 816.251 2804.65 814.594 2803.96 813.241 2803.27 811.888 2801.61 811.351 2800.26 812.042 2799.32 812.523 2798.41 813.052 2797.52 813.629 2796.23 814.422 2795.82 816.115 2796.61 817.41 2797.41 818.705 2799.1 819.112 2800.39 818.319 2800.44 818.293 2800.48 818.266 2800.52 818.238 2801.24 817.767 2801.99 817.335 2802.76 816.942ZM2792.43 821.716C2793.71 822.545 2794.07 824.247 2793.24 825.52 2792.77 826.243 2792.34 826.991 2791.94 827.764 2791.25 829.117 2789.59 829.654 2788.24 828.963 2786.89 828.272 2786.35 826.614 2787.04 825.261 2787.53 824.318 2788.05 823.405 2788.63 822.522 2789.46 821.249 2791.16 820.888 2792.43 821.715 2792.43 821.716 2792.43 821.716 2792.43 821.716ZM2789.28 837.702C2789.33 836.184 2788.14 834.913 2786.62 834.863 2785.15 834.814 2783.89 835.943 2783.79 837.419 2783.74 838.472 2783.74 839.528 2783.79 840.581 2783.9 842.096 2785.21 843.238 2786.73 843.132 2788.2 843.028 2789.33 841.776 2789.28 840.298 2789.24 839.433 2789.24 838.567 2789.28 837.702ZM2788.24 849.038C2789.59 848.346 2791.25 848.882 2791.94 850.234 2791.94 850.235 2791.94 850.236 2791.94 850.237 2792.34 851.007 2792.77 851.757 2793.24 852.481 2794.03 853.776 2793.62 855.469 2792.33 856.262 2791.08 857.025 2789.46 856.681 2788.63 855.478 2788.05 854.593 2787.52 853.679 2787.04 852.739 2786.35 851.387 2786.89 849.73 2788.24 849.039 2788.24 849.038 2788.24 849.038 2788.24 849.038ZM2800.52 859.763C2799.27 858.901 2797.56 859.215 2796.69 860.466 2795.83 861.716 2796.15 863.428 2797.4 864.291 2797.44 864.319 2797.48 864.346 2797.52 864.372 2798.4 864.946 2799.32 865.474 2800.26 865.958 2801.61 866.649 2803.27 866.113 2803.96 864.759 2804.65 863.406 2804.12 861.749 2802.76 861.058 2801.99 860.665 2801.24 860.233 2800.52 859.763Z" fill="#0E3052" fill-rule="nonzero" fill-opacity="1"/><path d="M2826.94 835.444C2828 834.352 2827.97 832.611 2826.88 831.556 2825.81 830.527 2824.12 830.527 2823.06 831.556L2808.5 846.112 2802.19 839.806C2801.1 838.751 2799.36 838.781 2798.31 839.874 2797.28 840.939 2797.28 842.629 2798.31 843.694L2806.56 851.944C2807.63 853.018 2809.37 853.018 2810.44 851.944L2826.94 835.444Z" fill="#0E3052" fill-rule="nonzero" fill-opacity="1"/></g></g></g><text fill="#0E3052" fill-opacity="1" font-family="Inter Medium,Inter Medium_MSFontService,sans-serif" font-style="normal" font-variant="normal" font-weight="500" font-stretch="normal" font-size="46" text-anchor="start" direction="ltr" writing-mode="lr-tb" unicode-bidi="normal" text-decoration="none" transform="matrix(1 0 0 1 2871.44 853)">Status</text><text fill="#0E3052" fill-opacity="1" font-family="Inter Medium,Inter Medium_MSFontService,sans-serif" font-style="normal" font-variant="normal" font-weight="500" font-stretch="normal" font-size="46" text-anchor="start" direction="ltr" writing-mode="lr-tb" unicode-bidi="normal" text-decoration="none" transform="matrix(1 0 0 1 3010.09 853)"> </text><path d="M3194.5 793.334C3194.5 781.275 3204.28 771.5 3216.33 771.5L3658.67 771.5C3670.72 771.5 3680.5 781.275 3680.5 793.334L3680.5 880.666C3680.5 892.724 3670.72 902.5 3658.67 902.5L3216.33 902.5C3204.28 902.5 3194.5 892.724 3194.5 880.666Z" stroke="#C5CFDB" stroke-width="4.58333" stroke-linecap="butt" stroke-linejoin="miter" stroke-miterlimit="8" stroke-opacity="1" fill="#FFFFFF" fill-rule="evenodd" fill-opacity="1"/><g><g><g><path d="M3240.75 817.75C3236.19 817.75 3232.5 821.444 3232.5 826L3232.5 848C3232.5 852.557 3236.19 856.25 3240.75 856.25L3279.25 856.25C3283.81 856.25 3287.5 852.557 3287.5 848L3287.5 826C3287.5 821.444 3283.81 817.75 3279.25 817.75L3240.75 817.75ZM3238 826.57 3238 848C3238 849.519 3239.23 850.75 3240.75 850.75L3279.25 850.75C3280.77 850.75 3282 849.519 3282 848L3282 826.57 3265.24 840.368C3262.2 842.877 3257.8 842.877 3254.76 840.368L3238 826.57ZM3277.38 823.25 3242.62 823.25 3258.25 836.123C3259.27 836.959 3260.73 836.959 3261.75 836.123L3277.38 823.25Z" fill="#0E3052" fill-rule="evenodd" fill-opacity="1"/></g></g></g><text fill="#0E3052" fill-opacity="1" font-family="Inter Medium,Inter Medium_MSFontService,sans-serif" font-style="normal" font-variant="normal" font-weight="500" font-stretch="normal" font-size="46" text-anchor="start" direction="ltr" writing-mode="lr-tb" unicode-bidi="normal" text-decoration="none" transform="matrix(1 0 0 1 3317.16 851)">Notifications</text><text fill="#0E3052" fill-opacity="1" font-family="Inter Medium,Inter Medium_MSFontService,sans-serif" font-style="normal" font-variant="normal" font-weight="500" font-stretch="normal" font-size="46" text-anchor="start" direction="ltr" writing-mode="lr-tb" unicode-bidi="normal" text-decoration="none" transform="matrix(1 0 0 1 3593.88 851)"> </text><path d="M2.29167-1.80905e-06 2.29168 18.3333-2.29165 18.3333-2.29167 1.80905e-06ZM2.29169 32.0833 2.29171 50.4167-2.29163 50.4167-2.29164 32.0833ZM2.29172 64.1667 2.29173 82.5-2.2916 82.5-2.29162 64.1667ZM2.29174 96.25 2.29176 114.583-2.29158 114.583-2.29159 96.25ZM2.29177 128.333 2.29178 146.667-2.29155 146.667-2.29157 128.333ZM2.29179 160.417 2.29181 178.75-2.29153 178.75-2.29154 160.417ZM2.29182 192.5 2.29183 210.833-2.2915 210.833-2.29151 192.5ZM2.29184 224.583 2.29186 242.917-2.29147 242.917-2.29149 224.583ZM2.29187 256.667 2.29188 275-2.29145 275-2.29146 256.667ZM2.29189 288.75 2.29191 307.083-2.29142 307.083-2.29144 288.75ZM2.29192 320.833 2.29193 339.167-2.2914 339.167-2.29141 320.833ZM2.29195 352.917 2.29196 371.25-2.29137 371.25-2.29139 352.917ZM2.29197 385 2.29199 403.333-2.29135 403.333-2.29136 385ZM2.292 417.083 2.29201 434.254-2.29132 434.254-2.29134 417.083ZM-13.75 1.08543e-05C-13.75-7.59391-7.59393-13.75-1.08543e-05-13.75 7.59391-13.75 13.75-7.59393 13.75-1.08543e-05 13.75 7.59391 7.59393 13.75 1.08543e-05 13.75-7.59391 13.75-13.75 7.59393-13.75 1.08543e-05ZM13.7503 429.671 0.000360892 457.171-13.7497 429.671Z" fill="#0E3052" fill-rule="nonzero" fill-opacity="1" transform="matrix(1 0 0 -1 2918.5 1361.67)"/><path d="M2.29168 22.9168 2.2917 41.2501-2.29163 41.2502-2.29165 22.9168ZM2.29171 55.0001 2.29172 73.3335-2.29161 73.3335-2.29162 55.0001ZM2.29174 87.0835 2.29175 105.417-2.29158 105.417-2.2916 87.0835ZM2.29176 119.167 2.29178 137.5-2.29156 137.5-2.29157 119.167ZM2.29179 151.25 2.2918 169.583-2.29153 169.583-2.29155 151.25ZM2.29181 183.333 2.29183 201.667-2.29151 201.667-2.29152 183.333ZM2.29184 215.417 2.29185 233.75-2.29148 233.75-2.2915 215.417ZM2.29186 247.5 2.29188 265.833-2.29146 265.833-2.29147 247.5ZM2.29189 279.583 2.2919 297.917-2.29143 297.917-2.29145 279.583ZM2.29191 311.667 2.29193 330-2.29141 330-2.29142 311.667ZM2.29194 343.75 2.29195 362.083-2.29138 362.083-2.2914 343.75ZM2.29196 375.833 2.29198 394.167-2.29136 394.167-2.29137 375.833ZM2.29199 407.917 2.292 426.25-2.29133 426.25-2.29134 407.917ZM-13.75 27.5 0 0 13.75 27.5ZM13.7503 429.671 0.000360892 457.171-13.7497 429.671Z" fill="#0E3052" fill-rule="nonzero" fill-opacity="1" transform="matrix(1 0 0 -1 3437.5 1359.67)"/></g></g></svg>