<?xml version="1.0" encoding="UTF-8" standalone="no"?><!DOCTYPE svg PUBLIC "-//W3C//DTD SVG 1.1//EN" "http://www.w3.org/Graphics/SVG/1.1/DTD/svg11.dtd"><svg width="100%" height="100%" viewBox="0 0 200 200" version="1.1" xmlns="http://www.w3.org/2000/svg" xmlns:xlink="http://www.w3.org/1999/xlink" xml:space="preserve" xmlns:serif="http://www.serif.com/" style="fill-rule:evenodd;clip-rule:evenodd;stroke-linejoin:round;stroke-miterlimit:2;"><g transform="matrix(1,0,0,1,-75280.5,-33722.4)"><g transform="matrix(1,0,0,1,975.647,1543.85)"><g transform="matrix(2.00733,0,0,2.00733,-75633.1,-32465.6)"><circle cx="74745.1" cy="32253.9" r="49.817" style="fill:rgb(63,109,170);"/></g></g><g transform="matrix(1,0,0,1,975.647,1543.85)"><g transform="matrix(3.12858,0,0,3.12858,74354.8,32228.3)"><path d="M2,8C2,6.343 3.343,5 5,5L9.672,5C10.467,5 11.23,5.316 11.793,5.879L13.621,7.707C13.809,7.895 14.063,8 14.328,8L23,8C24.657,8 26,9.343 26,11L26,12L26.986,12C28.915,12 30.343,13.795 29.909,15.675L27.832,24.675C27.518,26.036 26.306,27 24.909,27L5,27C3.343,27 2,25.657 2,24L2,8ZM4,17.219L4.668,14.325C4.982,12.964 6.194,12 7.591,12L24,12L24,11C24,10.448 23.552,10 23,10L14.328,10C13.533,10 12.77,9.684 12.207,9.121L10.379,7.293C10.191,7.105 9.937,7 9.672,7L5,7C4.448,7 4,7.448 4,8L4,17.219ZM6.617,14.775C6.721,14.321 7.125,14 7.591,14L26.986,14C27.629,14 28.105,14.598 27.96,15.225L25.883,24.225C25.779,24.679 25.375,25 24.909,25L5.514,25C4.871,25 4.395,24.402 4.54,23.775L6.617,14.775Z" style="fill:white;"/></g></g></g></svg>