<?xml version="1.0" encoding="UTF-8" standalone="no"?><!DOCTYPE svg PUBLIC "-//W3C//DTD SVG 1.1//EN" "http://www.w3.org/Graphics/SVG/1.1/DTD/svg11.dtd"><svg width="100%" height="100%" viewBox="0 0 200 200" version="1.1" xmlns="http://www.w3.org/2000/svg" xmlns:xlink="http://www.w3.org/1999/xlink" xml:space="preserve" xmlns:serif="http://www.serif.com/" style="fill-rule:evenodd;clip-rule:evenodd;stroke-linejoin:round;stroke-miterlimit:2;"><g transform="matrix(1,0,0,1,-75199.4,-32846.9)"><g transform="matrix(1,0,0,1,-0.19063,-0.465929)"><g transform="matrix(2.00733,0,0,2.00733,-74738.4,-31796.8)"><circle cx="74745.1" cy="32253.9" r="49.817" style="fill:rgb(63,109,170);"/></g></g><g transform="matrix(1,0,0,1,-0.19063,-0.465929)"><g transform="matrix(3.57143,0,0,3.57143,75240,32889.8)"><path d="M17,3C15.343,3 14,4.343 14,6C14,6.548 14.146,7.059 14.401,7.499C14.58,7.809 14.58,8.19 14.401,8.5C14.223,8.809 13.893,9 13.535,9L10,9C9.448,9 9,9.448 9,10L9,14.535C9,14.893 8.809,15.223 8.5,15.401C8.19,15.58 7.809,15.58 7.499,15.401C7.059,15.146 6.548,15 6,15C4.343,15 3,16.343 3,18C3,19.657 4.343,21 6,21C6.548,21 7.059,20.854 7.499,20.599C7.809,20.42 8.19,20.42 8.5,20.599C8.809,20.777 9,21.108 9,21.465L9,26C9,26.552 9.448,27 10,27L12.1,27C12.035,26.677 12,26.342 12,26C12,23.239 14.239,21 17,21C19.761,21 22,23.239 22,26C22,26.342 21.966,26.677 21.9,27L26,27C26.552,27 27,26.552 27,26L27,22.9C26.677,22.966 26.342,23 26,23C23.239,23 21,20.761 21,18C21,15.239 23.239,13 26,13C26.342,13 26.677,13.035 27,13.1L27,10C27,9.448 26.552,9 26,9L20.465,9C20.108,9 19.777,8.809 19.599,8.5C19.42,8.19 19.42,7.809 19.599,7.499C19.854,7.059 20,6.548 20,6C20,4.343 18.657,3 17,3ZM12,6C12,3.239 14.239,1 17,1C19.761,1 22,3.239 22,6C22,6.342 21.966,6.677 21.9,7L26,7C27.657,7 29,8.343 29,10L29,14.535C29,14.893 28.809,15.223 28.5,15.401C28.19,15.58 27.809,15.58 27.499,15.401C27.059,15.146 26.548,15 26,15C24.343,15 23,16.343 23,18C23,19.657 24.343,21 26,21C26.548,21 27.059,20.854 27.499,20.599C27.809,20.42 28.19,20.42 28.5,20.599C28.809,20.777 29,21.108 29,21.465L29,26C29,27.657 27.657,29 26,29L20.465,29C20.108,29 19.777,28.809 19.599,28.5C19.42,28.19 19.42,27.809 19.599,27.499C19.854,27.059 20,26.548 20,26C20,24.343 18.657,23 17,23C15.343,23 14,24.343 14,26C14,26.548 14.146,27.059 14.401,27.499C14.58,27.809 14.58,28.19 14.401,28.5C14.223,28.809 13.893,29 13.535,29L10,29C8.343,29 7,27.657 7,26L7,22.9C6.677,22.966 6.342,23 6,23C3.239,23 1,20.761 1,18C1,15.239 3.239,13 6,13C6.342,13 6.677,13.035 7,13.1L7,10C7,8.343 8.343,7 10,7L12.1,7C12.035,6.677 12,6.342 12,6Z" style="fill:white;"/></g></g></g></svg>