<svg width="32" height="32" viewBox="0 0 32 32" fill="none" xmlns="http://www.w3.org/2000/svg">
<path fill-rule="evenodd" clip-rule="evenodd" d="M2 8C2 6.34315 3.34315 5 5 5H9.67157C10.4672 5 11.2303 5.31607 11.7929 5.87868L13.6213 7.70711C13.8089 7.89464 14.0632 8 14.3284 8H23C24.6569 8 26 9.34315 26 11V12H26.9858C28.915 12 30.3428 13.7947 29.909 15.6746L27.832 24.6746C27.5179 26.0358 26.3058 27 24.9089 27H5C3.34315 27 2 25.6569 2 24V8ZM4 17.219L4.66774 14.3254C4.98186 12.9642 6.19395 12 7.59092 12H24V11C24 10.4477 23.5523 10 23 10H14.3284C13.5328 10 12.7697 9.68393 12.2071 9.12132L10.3787 7.29289C10.1911 7.10536 9.93679 7 9.67157 7H5C4.44772 7 4 7.44772 4 8V17.219ZM6.61652 14.7751C6.72123 14.3214 7.12526 14 7.59092 14H26.9858C27.6289 14 28.1048 14.5982 27.9602 15.2249L25.8833 24.2249C25.7785 24.6786 25.3745 25 24.9089 25H5.51399C4.87091 25 4.395 24.4018 4.5396 23.7751L6.61652 14.7751Z" fill="black"/>
</svg>
