<svg xmlns="http://www.w3.org/2000/svg" width="24" height="24" fill="none" viewBox="0 0 24 24">
  <path fill="#000" d="M11.629 4.072a1 1 0 0 1 .742 0l9.979 3.99A1 1 0 0 1 23 9v4a1 1 0 1 1-2 0v-2.523l-1.938.775L20 16.41v.09c0 1.55-1.23 2.683-2.603 3.37C15.964 20.585 14.055 21 12 21s-3.964-.414-5.397-1.13C5.23 19.182 4 18.05 4 16.5v-.09l.938-5.158-3.31-1.324a1 1 0 0 1 0-1.856l10-4Zm.742 9.857a1 1 0 0 1-.742 0L6.833 12.01l-.83 4.56c.04.386.402.964 1.494 1.51 1.101.55 2.692.92 4.503.92s3.402-.37 4.503-.92c1.091-.546 1.454-1.124 1.493-1.51l-.829-4.56-4.796 1.918ZM4.693 9 12 11.923 19.307 9 12 6.077 4.693 9Z"/>
</svg>
