<?xml version="1.0" encoding="UTF-8" standalone="no"?><!DOCTYPE svg PUBLIC "-//W3C//DTD SVG 1.1//EN" "http://www.w3.org/Graphics/SVG/1.1/DTD/svg11.dtd"><svg width="100%" height="100%" viewBox="0 0 200 200" version="1.1" xmlns="http://www.w3.org/2000/svg" xmlns:xlink="http://www.w3.org/1999/xlink" xml:space="preserve" xmlns:serif="http://www.serif.com/" style="fill-rule:evenodd;clip-rule:evenodd;stroke-linejoin:round;stroke-miterlimit:2;"><g transform="matrix(1,0,0,1,-7575.4,-3556.19)"><g transform="matrix(2.00733,0,0,2.00733,-142363,-61088)"><circle cx="74745.1" cy="32253.9" r="49.817" style="fill:rgb(63,109,170);"/></g><g transform="matrix(4.54557,0,0,4.54557,7620.85,3599.37)"><path d="M11.629,4.072C11.867,3.977 12.133,3.977 12.371,4.072L22.35,8.062C22.74,8.208 23.001,8.583 23,9L23,13C23,13.549 22.549,14 22,14C21.451,14 21,13.549 21,13L21,10.477L19.062,11.252L20,16.41L20,16.5C20,18.05 18.77,19.183 17.397,19.87C15.964,20.585 14.055,21 12,21C9.945,21 8.036,20.586 6.603,19.87C5.23,19.182 4,18.05 4,16.5L4,16.41L4.938,11.252L1.628,9.928C1.25,9.776 1.001,9.408 1.001,9C1.001,8.592 1.25,8.224 1.628,8.072L11.628,4.072L11.629,4.072ZM12.371,13.929C12.133,14.024 11.867,14.024 11.629,13.929L6.833,12.01L6.003,16.57C6.043,16.956 6.405,17.534 7.497,18.08C8.598,18.63 10.189,19 12,19C13.811,19 15.402,18.63 16.503,18.08C17.594,17.534 17.957,16.956 17.996,16.57L17.167,12.01L12.371,13.928L12.371,13.929ZM4.693,9L12,11.923L19.307,9L12,6.077L4.693,9Z" style="fill:white;fill-rule:nonzero;"/></g></g></svg>