<?xml version="1.0" encoding="UTF-8" standalone="no"?><!DOCTYPE svg PUBLIC "-//W3C//DTD SVG 1.1//EN" "http://www.w3.org/Graphics/SVG/1.1/DTD/svg11.dtd"><svg width="100%" height="100%" viewBox="0 0 200 200" version="1.1" xmlns="http://www.w3.org/2000/svg" xmlns:xlink="http://www.w3.org/1999/xlink" xml:space="preserve" xmlns:serif="http://www.serif.com/" style="fill-rule:evenodd;clip-rule:evenodd;stroke-linejoin:round;stroke-miterlimit:2;"><g transform="matrix(1,0,0,1,-75835.8,-33722.4)"><g transform="matrix(1,0,0,1,975.647,1543.85)"><g transform="matrix(2.00733,0,0,2.00733,-75077.8,-32465.6)"><circle cx="74745.1" cy="32253.9" r="49.817" style="fill:rgb(63,109,170);"/></g></g><g transform="matrix(1,0,0,1,975.647,1543.85)"><g transform="matrix(3.13755,0,0,3.13755,74910,32228.4)"><path d="M21,6C21,4.895 21.895,4 23,4L27,4C28.105,4 29,4.895 29,6L29,10C29,11.105 28.105,12 27,12L23,12C21.895,12 21,11.105 21,10L21,9L19,9C18.448,9 18,9.448 18,10L18,22C18,22.552 18.448,23 19,23L21,23L21,22C21,20.895 21.895,20 23,20L27,20C28.105,20 29,20.895 29,22L29,26C29,27.105 28.105,28 27,28L23,28C21.895,28 21,27.105 21,26L21,25L19,25C17.343,25 16,23.657 16,22L16,17L11,17L11,20C11,21.105 10.105,22 9,22L5,22C3.895,22 3,21.105 3,20L3,12C3,10.895 3.895,10 5,10L9,10C10.105,10 11,10.895 11,12L11,15L16,15L16,10C16,8.343 17.343,7 19,7L21,7L21,6ZM23,26L27,26L27,22L23,22L23,26ZM23,10L27,10L27,6L23,6L23,10ZM9,12L9,20L5,20L5,12L9,12Z" style="fill:white;"/></g></g></g></svg>