<?xml version="1.0" encoding="UTF-8" standalone="no"?><!DOCTYPE svg PUBLIC "-//W3C//DTD SVG 1.1//EN" "http://www.w3.org/Graphics/SVG/1.1/DTD/svg11.dtd"><svg width="100%" height="100%" viewBox="0 0 200 200" version="1.1" xmlns="http://www.w3.org/2000/svg" xmlns:xlink="http://www.w3.org/1999/xlink" xml:space="preserve" xmlns:serif="http://www.serif.com/" style="fill-rule:evenodd;clip-rule:evenodd;stroke-linejoin:round;stroke-miterlimit:2;"><g transform="matrix(1,0,0,1,-75024.8,-33722.4)"><g transform="matrix(1,0,0,1,975.647,1543.85)"><g transform="matrix(2.00733,0,0,2.00733,-75888.9,-32465.6)"><circle cx="74745.1" cy="32253.9" r="49.817" style="fill:rgb(63,109,170);"/></g></g><g transform="matrix(1,0,0,1,975.647,1543.85)"><g transform="matrix(1,0,0,1,-263.459,-400.804)"><g transform="matrix(3.11444,0,0,3.11444,74362.8,32629.5)"><path d="M7,8C6.448,8 6,8.448 6,9C6,9.552 6.448,10 7,10L18,10C18.552,10 19,9.552 19,9C19,8.448 18.552,8 18,8L7,8Z" style="fill:white;fill-rule:nonzero;"/></g><g transform="matrix(3.11444,0,0,3.11444,74362.8,32629.5)"><path d="M21,8.5C21,8.224 21.224,8 21.5,8L22.5,8C22.776,8 23,8.224 23,8.5L23,9.5C23,9.776 22.776,10 22.5,10L21.5,10C21.224,10 21,9.776 21,9.5L21,8.5Z" style="fill:white;fill-rule:nonzero;"/></g><g transform="matrix(3.11444,0,0,3.11444,74362.8,32629.5)"><path d="M24.5,8C24.224,8 24,8.224 24,8.5L24,9.5C24,9.776 24.224,10 24.5,10L25.5,10C25.776,10 26,9.776 26,9.5L26,8.5C26,8.224 25.776,8 25.5,8L24.5,8Z" style="fill:white;fill-rule:nonzero;"/></g><g transform="matrix(3.11444,0,0,3.11444,74362.8,32629.5)"><path d="M2,8C2,6.343 3.343,5 5,5L27,5C28.657,5 30,6.343 30,8L30,24C30,25.657 28.657,27 27,27L5,27C3.343,27 2,25.657 2,24L2,8ZM5,7C4.448,7 4,7.448 4,8L4,12L28,12L28,8C28,7.448 27.552,7 27,7L5,7ZM4,24L4,14L28,14L28,24C28,24.552 27.552,25 27,25L5,25C4.448,25 4,24.552 4,24Z" style="fill:white;"/></g></g></g></g></svg>