<svg width="32" height="32" viewBox="0 0 32 32" fill="none" xmlns="http://www.w3.org/2000/svg">
<path fill-rule="evenodd" clip-rule="evenodd" d="M3 3C2.44772 3 2 3.44772 2 4C2 4.55228 2.44772 5 3 5H4.37918C4.85162 5 5.25961 5.33064 5.35748 5.79283L6.08051 9.20717L7.68206 16.6325C7.76342 17.0097 7.91366 17.3575 8.11787 17.6637C7.43606 18.2136 7 19.0558 7 20C7 21.6569 8.34315 23 10 23H25C25.5523 23 26 22.5523 26 22C26 21.4477 25.5523 21 25 21H10C9.44772 21 9 20.5523 9 20C9 19.4616 9.42584 19.0222 9.95865 19.0008L24.5088 19C25.8359 19 27.0053 18.1281 27.384 16.8562L28.8729 11.8562C29.4457 9.93262 28.0047 8 25.9977 8H7.86924L7.31409 5.37849C7.02046 3.99191 5.7965 3 4.37918 3H3ZM24.5088 17C24.9511 17 25.3409 16.7094 25.4672 16.2854L26.9561 11.2854C27.147 10.6442 26.6667 10 25.9977 10H8.29751L9.6371 16.2108C9.73641 16.6713 10.1436 17 10.6146 17H24.5088Z" fill="black"/>
<path d="M15 27C15 28.1046 14.1046 29 13 29C11.8954 29 11 28.1046 11 27C11 25.8954 11.8954 25 13 25C14.1046 25 15 25.8954 15 27Z" fill="black"/>
<path d="M22 29C23.1046 29 24 28.1046 24 27C24 25.8954 23.1046 25 22 25C20.8954 25 20 25.8954 20 27C20 28.1046 20.8954 29 22 29Z" fill="black"/>
</svg>
