<svg width="32" height="32" viewBox="0 0 32 32" fill="none" xmlns="http://www.w3.org/2000/svg">
<path d="M17 23C17 23.5523 16.5523 24 16 24C15.4477 24 15 23.5523 15 23C15 22.4477 15.4477 22 16 22C16.5523 22 17 22.4477 17 23Z" fill="black"/>
<path d="M16 9C15.4477 9 15 9.44771 15 10V19C15 19.5523 15.4477 20 16 20C16.5523 20 17 19.5523 17 19V10C17 9.44772 16.5523 9 16 9Z" fill="black"/>
<path fill-rule="evenodd" clip-rule="evenodd" d="M13.3951 3.51426C14.5467 1.49826 17.4535 1.49826 18.6051 3.51425L30.5994 24.512C31.7418 26.512 30.2977 29 27.9944 29H4.0059C1.70264 29 0.258517 26.512 1.40093 24.512L13.3951 3.51426ZM16.8684 4.50626C16.4846 3.83426 15.5156 3.83426 15.1318 4.50626L3.13757 25.504C2.75677 26.1707 3.23815 27 4.0059 27H27.9944C28.7622 27 29.2436 26.1707 28.8628 25.504L16.8684 4.50626Z" fill="black"/>
</svg>
