<?xml version="1.0" encoding="UTF-8" standalone="no"?><!DOCTYPE svg PUBLIC "-//W3C//DTD SVG 1.1//EN" "http://www.w3.org/Graphics/SVG/1.1/DTD/svg11.dtd"><svg width="100%" height="100%" viewBox="0 0 200 200" version="1.1" xmlns="http://www.w3.org/2000/svg" xmlns:xlink="http://www.w3.org/1999/xlink" xml:space="preserve" xmlns:serif="http://www.serif.com/" style="fill-rule:evenodd;clip-rule:evenodd;stroke-linejoin:round;stroke-miterlimit:2;"><g transform="matrix(1,0,0,1,-75557.7,-33722.4)"><g transform="matrix(1,0,0,1,975.647,1543.85)"><g transform="matrix(2.00733,0,0,2.00733,-75355.9,-32465.6)"><circle cx="74745.1" cy="32253.9" r="49.817" style="fill:rgb(63,109,170);"/></g></g><g transform="matrix(1,0,0,1,975.647,1543.85)"><g transform="matrix(3.12219,0,0,3.12219,74633.2,32230.1)"><path d="M8.828,1C7.652,1 6.537,1.271 5.544,1.756C5.254,1.897 5.05,2.171 4.996,2.489C4.943,2.808 5.047,3.133 5.275,3.361L8.414,6.5L6.828,8.086L3.69,4.947C3.461,4.719 3.136,4.615 2.817,4.668C2.499,4.721 2.225,4.926 2.084,5.216C1.599,6.209 1.328,7.324 1.328,8.5C1.328,12.642 4.686,16 8.828,16C9.747,16 10.629,15.834 11.445,15.531L11.836,15.922L5.293,22.464C5.22,22.537 5.159,22.621 5.111,22.713L2.101,28.552C1.902,28.939 1.975,29.41 2.283,29.717C2.59,30.025 3.061,30.098 3.448,29.899L9.287,26.889C9.378,26.842 9.462,26.78 9.536,26.707L16.078,20.164L24.707,28.793C25.878,29.965 27.778,29.965 28.949,28.793L29.121,28.621C30.293,27.45 30.293,25.55 29.121,24.379L20.493,15.75L28.611,7.632C29.191,7.051 29.668,6.318 29.8,5.492C29.941,4.613 29.672,3.743 28.965,3.035C28.257,2.328 27.387,2.059 26.508,2.2C25.682,2.332 24.949,2.809 24.368,3.389L16.25,11.508L15.859,11.117C16.162,10.301 16.328,9.419 16.328,8.5C16.328,4.358 12.97,1 8.828,1ZM10.535,5.793L7.832,3.09C8.155,3.031 8.488,3 8.828,3C11.866,3 14.328,5.462 14.328,8.5C14.328,9.365 14.129,10.181 13.775,10.907C13.588,11.291 13.665,11.751 13.967,12.053L27.707,25.793C28.097,26.183 28.097,26.817 27.707,27.207L27.535,27.379C27.145,27.769 26.512,27.769 26.121,27.379L12.381,13.639C12.079,13.337 11.619,13.26 11.235,13.447C10.509,13.801 9.693,14 8.828,14C5.791,14 3.328,11.538 3.328,8.5C3.328,8.16 3.359,7.827 3.418,7.504L6.121,10.207C6.512,10.598 7.145,10.598 7.535,10.207L10.535,7.207C10.723,7.02 10.828,6.765 10.828,6.5C10.828,6.235 10.723,5.98 10.535,5.793ZM17.664,12.922L19.078,14.336L25,8.414L23.586,7L17.664,12.922ZM14.664,18.75L13.25,17.336L6.818,23.768L5.312,26.688L8.232,25.183L14.664,18.75ZM26.825,4.175C26.549,4.219 26.179,4.407 25.783,4.803L25,5.586L26.414,7L27.197,6.217C27.593,5.821 27.781,5.452 27.826,5.175C27.861,4.951 27.819,4.719 27.55,4.45C27.281,4.181 27.049,4.139 26.825,4.175Z" style="fill:white;"/></g></g></g></svg>