<svg width="32" height="32" viewBox="0 0 32 32" fill="none" xmlns="http://www.w3.org/2000/svg"><path d="M15 10C15 9.44772 15.4477 9 16 9C16.5523 9 17 9.44772 17 10V15C17 15.5523 16.5523 16 16 16C15.4477 16 15 15.5523 15 15V10Z" fill="white"/><path d="M17 18C17 18.5523 16.5523 19 16 19C15.4477 19 15 18.5523 15 18C15 17.4477 15.4477 17 16 17C16.5523 17 17 17.4477 17 18Z" fill="white"/><path fill-rule="evenodd" clip-rule="evenodd" d="M5 5C3.34315 5 2 6.34315 2 8V20C2 21.6569 3.34315 23 5 23H12V26H10C9.44771 26 9 26.4477 9 27C9 27.5523 9.44771 28 10 28H22C22.5523 28 23 27.5523 23 27C23 26.4477 22.5523 26 22 26H20V23H27C28.6569 23 30 21.6569 30 20V8C30 6.34315 28.6569 5 27 5H5ZM18 23V26H14V23H18ZM27 21C27.5523 21 28 20.5523 28 20V8C28 7.44772 27.5523 7 27 7H5C4.44772 7 4 7.44772 4 8V20C4 20.5523 4.44772 21 5 21H27Z" fill="white"/></svg>