<svg width="32" height="32" viewBox="0 0 32 32" fill="none" xmlns="http://www.w3.org/2000/svg"><path fill-rule="evenodd" clip-rule="evenodd" d="M16.0002 8.5C16.0002 4.35786 19.3581 1 23.5002 1C24.6759 1 25.7912 1.27127 26.7842 1.75556C27.0747 1.89723 27.2788 2.17055 27.3321 2.4893C27.3855 2.80806 27.2815 3.13294 27.0529 3.36147L24.4144 6L26.0002 7.58579L28.6387 4.94725C28.8672 4.71873 29.1921 4.61473 29.5109 4.66808C29.8296 4.72142 30.103 4.92553 30.2446 5.21601C30.7289 6.209 31.0002 7.32424 31.0002 8.5C31.0002 12.6421 27.6423 16 23.5002 16C22.5812 16 21.6993 15.8343 20.8837 15.5307L7.62151 28.7929C6.44993 29.9645 4.55044 29.9645 3.37887 28.7929L3.20729 28.6213C2.03572 27.4497 2.03572 25.5503 3.20729 24.3787L16.4695 11.1165C16.1659 10.3009 16.0002 9.41895 16.0002 8.5ZM23.5002 3C20.4626 3 18.0002 5.46243 18.0002 8.5C18.0002 9.36537 18.1993 10.1814 18.5534 10.9073C18.7404 11.2909 18.6634 11.751 18.3617 12.0527L4.62151 25.7929C4.23098 26.1834 4.23098 26.8166 4.62151 27.2071L4.79308 27.3787C5.1836 27.7692 5.81677 27.7692 6.20729 27.3787L19.9474 13.6385C20.2492 13.3367 20.7093 13.2597 21.0929 13.4468C21.8188 13.8009 22.6348 14 23.5002 14C26.5378 14 29.0002 11.5376 29.0002 8.5C29.0002 8.15953 28.9694 7.8267 28.9104 7.504L26.7073 9.70711C26.3168 10.0976 25.6836 10.0976 25.2931 9.70711L22.2931 6.70711C22.1055 6.51957 22.0002 6.26522 22.0002 6C22.0002 5.73478 22.1055 5.48043 22.2931 5.29289L24.4962 3.08978C24.1735 3.03083 23.8407 3 23.5002 3Z" fill="white"/></svg>