<svg width="32" height="32" viewBox="0 0 32 32" fill="none" xmlns="http://www.w3.org/2000/svg"><path d="M6.29289 4.29289C6.68342 3.90237 7.31658 3.90237 7.70711 4.29289L11.7071 8.29289C12.0976 8.68342 12.0976 9.31658 11.7071 9.70711C11.3166 10.0976 10.6834 10.0976 10.2929 9.70711L8 7.41421V27C8 27.5523 7.55228 28 7 28C6.44772 28 6 27.5523 6 27V7.41421L3.70711 9.70711C3.31658 10.0976 2.68342 10.0976 2.29289 9.70711C1.90237 9.31658 1.90237 8.68342 2.29289 8.29289L6.29289 4.29289Z" fill="white"/><path fill-rule="evenodd" clip-rule="evenodd" d="M17 6C15.3431 6 14 7.34315 14 9V12C14 13.6569 15.3431 15 17 15H27C28.6569 15 30 13.6569 30 12V9C30 7.34315 28.6569 6 27 6H17ZM16 9C16 8.44772 16.4477 8 17 8H27C27.5523 8 28 8.44772 28 9V12C28 12.5523 27.5523 13 27 13H17C16.4477 13 16 12.5523 16 12V9Z" fill="white"/><path d="M17 17C15.3431 17 14 18.3431 14 20V23C14 24.6569 15.3431 26 17 26H27C28.6569 26 30 24.6569 30 23V20C30 18.3431 28.6569 17 27 17H17Z" fill="white"/></svg>