<?xml version="1.0" encoding="UTF-8" standalone="no"?><!DOCTYPE svg PUBLIC "-//W3C//DTD SVG 1.1//EN" "http://www.w3.org/Graphics/SVG/1.1/DTD/svg11.dtd"><svg width="100%" height="100%" viewBox="0 0 1200 1200" version="1.1" xmlns="http://www.w3.org/2000/svg" xmlns:xlink="http://www.w3.org/1999/xlink" xml:space="preserve" xmlns:serif="http://www.serif.com/" style="fill-rule:evenodd;clip-rule:evenodd;stroke-linejoin:round;stroke-miterlimit:2;"><g transform="matrix(1,0,0,1,-2278.52,-2704.7)"><g id="Category" transform="matrix(2.9637,0,0,1.07143,-3036.58,2704.7)"><rect x="1793.4" y="0" width="404.899" height="1120" style="fill:none;"/><clipPath id="_clip1"><rect x="1793.4" y="0" width="404.899" height="1120"/></clipPath><g clip-path="url(#_clip1)"><g transform="matrix(0.160674,0,0,0.666667,1928.37,2.61717e-12)"><path d="M1420.3,0C1489.17,-0 1555.23,18.241 1603.93,50.71C1652.64,83.179 1680,127.216 1680,173.135L1680,946.865C1680,992.784 1652.64,1036.82 1603.93,1069.29C1555.23,1101.76 1489.17,1120 1420.3,1120L259.702,1120C190.825,1120 124.769,1101.76 76.065,1069.29C27.361,1036.82 -0,992.784 -0,946.865C0,736.457 0,383.543 0,173.135C-0,127.216 27.361,83.179 76.065,50.71C124.769,18.241 190.825,-0 259.702,0L1420.3,0Z" style="fill:rgb(63,109,170);"/></g><g transform="matrix(3.99601,0,0,11.0534,2063.33,373.333)"><g transform="matrix(1,0,0,1,-21.3333,-21.3333)"><g transform="matrix(1.33333,0,0,1.33333,0,0)"><path d="M22,14C21.631,14 21.292,14.203 21.118,14.528C20.944,14.853 20.963,15.248 21.168,15.555L23.168,18.555C23.353,18.833 23.666,19 24,19C24.334,19 24.647,18.833 24.832,18.555L26.832,15.555C27.037,15.248 27.056,14.853 26.882,14.528C26.708,14.203 26.369,14 26,14L22,14Z" style="fill:white;fill-rule:nonzero;"/></g><g transform="matrix(1.33333,0,0,1.33333,0,0)"><path d="M5,10C3.343,10 2,11.343 2,13L2,19C2,20.657 3.343,22 5,22L27,22C28.657,22 30,20.657 30,19L30,13C30,11.343 28.657,10 27,10L5,10ZM18,12L5,12C4.448,12 4,12.448 4,13L4,19C4,19.552 4.448,20 5,20L18,20L18,12ZM20,20L20,12L27,12C27.552,12 28,12.448 28,13L28,19C28,19.552 27.552,20 27,20L20,20Z" style="fill:white;"/></g></g></g></g></g></g></svg>