<svg width="32" height="32" viewBox="0 0 32 32" fill="none" xmlns="http://www.w3.org/2000/svg"><path fill-rule="evenodd" clip-rule="evenodd" d="M3 6C3 4.34314 4.34315 3 6 3H26C27.6569 3 29 4.34315 29 6V26C29 27.6569 27.6569 29 26 29H6C4.34314 29 3 27.6569 3 26V6ZM24.7071 10.7071C25.0976 10.3166 25.0976 9.68342 24.7071 9.29289C24.3166 8.90237 23.6834 8.90237 23.2929 9.29289L12.5 20.0858L8.70711 16.2929C8.31658 15.9024 7.68342 15.9024 7.29289 16.2929C6.90237 16.6834 6.90237 17.3166 7.29289 17.7071L11.7929 22.2071C12.1834 22.5976 12.8166 22.5976 13.2071 22.2071L24.7071 10.7071Z" fill="black"/></svg>