<?xml version="1.0" encoding="UTF-8" standalone="no"?><!DOCTYPE svg PUBLIC "-//W3C//DTD SVG 1.1//EN" "http://www.w3.org/Graphics/SVG/1.1/DTD/svg11.dtd"><svg width="100%" height="100%" viewBox="0 0 1200 1200" version="1.1" xmlns="http://www.w3.org/2000/svg" xmlns:xlink="http://www.w3.org/1999/xlink" xml:space="preserve" xmlns:serif="http://www.serif.com/" style="fill-rule:evenodd;clip-rule:evenodd;stroke-linejoin:round;stroke-miterlimit:2;"><g transform="matrix(1,0,0,1,-3698.46,-2704.7)"><g id="CI" transform="matrix(2.9637,0,0,1.07143,-1616.65,2704.7)"><rect x="1793.4" y="0" width="404.899" height="1120" style="fill:none;"/><g transform="matrix(0.160674,0,0,0.666667,1928.37,2.61717e-12)"><path d="M1420.3,0C1489.17,-0 1555.23,18.241 1603.93,50.71C1652.64,83.179 1680,127.216 1680,173.135L1680,946.865C1680,992.784 1652.64,1036.82 1603.93,1069.29C1555.23,1101.76 1489.17,1120 1420.3,1120L259.702,1120C190.825,1120 124.769,1101.76 76.065,1069.29C27.361,1036.82 -0,992.784 -0,946.865C0,736.457 0,383.543 0,173.135C-0,127.216 27.361,83.179 76.065,50.71C124.769,18.241 190.825,-0 259.702,0L1420.3,0Z" style="fill:rgb(197,207,219);"/></g><g transform="matrix(3.99601,0,0,11.0534,2063.33,373.333)"><g transform="matrix(1,0,0,1,-21.3333,-21.3333)"><g transform="matrix(1.33333,0,0,1.33333,0,0)"><path d="M20,3C21.105,3 22,3.895 22,5L22,9C22,10.105 21.105,11 20,11L17,11L17,16L22,16C23.657,16 25,17.343 25,19L25,21L26,21C27.105,21 28,21.895 28,23L28,27C28,28.105 27.105,29 26,29L22,29C20.895,29 20,28.105 20,27L20,23C20,21.895 20.895,21 22,21L23,21L23,19C23,18.448 22.552,18 22,18L10,18C9.448,18 9,18.448 9,19L9,21L10,21C11.105,21 12,21.895 12,23L12,27C12,28.105 11.105,29 10,29L6,29C4.895,29 4,28.105 4,27L4,23C4,21.895 4.895,21 6,21L7,21L7,19C7,17.343 8.343,16 10,16L15,16L15,11L12,11C10.895,11 10,10.105 10,9L10,5C10,3.895 10.895,3 12,3L20,3ZM6,23L6,27L10,27L10,23L6,23ZM22,23L22,27L26,27L26,23L22,23ZM20,9L12,9L12,5L20,5L20,9Z" style="fill:rgb(14,48,82);"/></g></g></g></g></g></svg>