<svg xmlns="http://www.w3.org/2000/svg" width="32" height="32" fill="none" viewBox="0 0 32 32"><path fill="#000" d="M16 4a5 5 0 0 0-3.376 8.688 6.32 6.32 0 0 0-1.645 1.081c-.988.903-1.632 2.097-1.873 3.478A3.997 3.997 0 0 1 10.489 17h11.022c.478 0 .945.085 1.383.247-.24-1.38-.885-2.575-1.873-3.478a6.32 6.32 0 0 0-1.645-1.08A5 5 0 0 0 16 4ZM7 18.5v.47L6.2 20H4a3 3 0 0 1-3-3v-1c0-1.904 1.135-3.483 2.754-4.33a3.5 3.5 0 0 1 5.458-4.383A7.014 7.014 0 0 0 9 9c0 .85.151 1.664.429 2.417a3.512 3.512 0 0 1-.183.253c.128.066.252.138.373.213.045.1.092.197.141.293a8.336 8.336 0 0 0-.13.117C7.902 13.872 7 16.078 7 18.5Z"/><path fill="#000" d="M28 20h-2.2l-.8-1.03v-.47c0-2.422-.902-4.628-2.63-6.207a8.43 8.43 0 0 0-.13-.117c.049-.096.096-.194.14-.293.122-.075.246-.146.373-.213a3.515 3.515 0 0 1-.182-.253A6.987 6.987 0 0 0 23 9c0-.591-.073-1.165-.211-1.714a3.5 3.5 0 0 1 5.458 4.383C29.864 12.518 31 14.097 31 16v1a3 3 0 0 1-3 3Zm-19.09-.228A2 2 0 0 1 10.49 19h11.02a2 2 0 0 1 1.58.772l5.444 7C29.556 28.086 28.62 30 26.955 30H5.045c-1.665 0-2.6-1.914-1.58-3.228l5.445-7Z"/></svg>