<svg width="32" height="32" viewBox="0 0 32 32" fill="none" xmlns="http://www.w3.org/2000/svg"><path fill-rule="evenodd" clip-rule="evenodd" d="M21.4533 20.039C23.0434 18.1315 24 15.6775 24 13C24 6.92487 19.0751 2 13 2C6.92487 2 2 6.92487 2 13C2 19.0751 6.92487 24 13 24C15.6775 24 18.1316 23.0434 20.0391 21.4532L28.293 29.7071C28.6835 30.0976 29.3167 30.0976 29.7072 29.7071C30.0977 29.3165 30.0977 28.6834 29.7072 28.2928L21.4533 20.039ZM22 13C22 17.9706 17.9706 22 13 22C8.02944 22 4 17.9706 4 13C4 8.02944 8.02944 4 13 4C17.9706 4 22 8.02944 22 13Z" fill="black"/></svg>