<svg xmlns="http://www.w3.org/2000/svg" width="32" height="32" fill="none" viewBox="0 0 32 32"><path fill="#fff" d="M6 21a2 2 0 0 1-2-2V7a2 2 0 0 1 2-2h20a2 2 0 0 1 2 2v5.255a6.972 6.972 0 0 0-2-.965V7H6v12h11.07c.102.706.308 1.378.604 2H6Zm11.019 1H3a1 1 0 1 0 0 2h12.752a8.5 8.5 0 0 1 1.267-2Z"/><path fill="#fff" d="M20.684 10.73a1 1 0 1 0-1.368-1.46l-4.65 4.36-1.982-1.86a1 1 0 1 0-1.368 1.46l2.667 2.5a1 1 0 0 0 1.368 0l5.333-5Zm6.749 10.905a5 5 0 1 0-6.867 0A6.334 6.334 0 0 0 17 27.333 3.667 3.667 0 0 0 20.667 31h6.666A3.667 3.667 0 0 0 31 27.333a6.334 6.334 0 0 0-3.567-5.698ZM24 15a3 3 0 1 1 0 6 3 3 0 0 1 0-6Zm-.667 8h1.334A4.333 4.333 0 0 1 29 27.333c0 .92-.746 1.667-1.667 1.667h-6.666c-.92 0-1.667-.746-1.667-1.667A4.333 4.333 0 0 1 23.333 23Z"/></svg>