<svg xmlns="http://www.w3.org/2000/svg" width="32" height="32" fill="none" viewBox="0 0 32 32"><path fill="#000" d="M5 5a3 3 0 0 0-3 3v16a3 3 0 0 0 3 3h7.2c-.767-1.5-1.2-3.2-1.2-5 0-4.437 2.627-8.26 6.411-10h-9.82a3 3 0 0 0-2.923 2.325L4 17.22V8a1 1 0 0 1 1-1h4.672a1 1 0 0 1 .707.293l1.828 1.828a3 3 0 0 0 2.121.879H23a1 1 0 0 1 1 1v.181c.692.127 1.36.32 2 .569V11a3 3 0 0 0-3-3h-8.672a1 1 0 0 1-.707-.293L11.793 5.88A3 3 0 0 0 9.672 5H5Zm21.707 15.707a1 1 0 0 0-1.414-1.414L20.5 24.086l-1.793-1.793a1 1 0 0 0-1.414 1.414l2.5 2.5a1 1 0 0 0 1.414 0l5.5-5.5Z"/><path fill="#000" d="M13 22a9 9 0 1 1 18 0 9 9 0 0 1-18 0Zm9-7a7 7 0 1 0 0 14 7 7 0 0 0 0-14Z"/></svg>