<svg width="815" height="815" xmlns="http://www.w3.org/2000/svg" xmlns:xlink="http://www.w3.org/1999/xlink" xml:space="preserve" overflow="hidden"><g transform="translate(-65 -65)"><g><g><g><g><path d="M777.375 472.5C777.375 304.122 640.878 167.625 472.5 167.625 304.122 167.625 167.625 304.122 167.625 472.5 167.625 640.878 304.122 777.375 472.5 777.375 640.878 777.375 777.375 640.878 777.375 472.5ZM66 472.5C66 247.996 247.996 66 472.5 66 697.004 66 879 247.996 879 472.5 879 697.004 697.004 879 472.5 879 247.996 879 66 697.004 66 472.5ZM472.5 599.531C542.658 599.531 599.531 542.658 599.531 472.5 599.531 402.342 542.658 345.469 472.5 345.469 402.342 345.469 345.469 402.342 345.469 472.5 345.469 542.658 402.342 599.531 472.5 599.531ZM472.5 243.844C598.783 243.844 701.156 346.217 701.156 472.5 701.156 598.783 598.783 701.156 472.5 701.156 346.217 701.156 243.844 598.783 243.844 472.5 243.844 346.217 346.217 243.844 472.5 243.844ZM421.688 472.5C421.688 444.437 444.437 421.688 472.5 421.688 500.563 421.688 523.312 444.437 523.312 472.5 523.312 500.563 500.563 523.312 472.5 523.312 444.437 523.312 421.688 500.563 421.688 472.5Z" fill="#3F6DAA" fill-rule="nonzero" fill-opacity="1"/></g></g></g></g></g></svg>