<svg width="32" height="32" viewBox="0 0 32 32" fill="none" xmlns="http://www.w3.org/2000/svg"><path d="M8.19277 10.2465C8.99219 6.67165 12.1841 4 16 4C19.8159 4 23.0078 6.67165 23.8072 10.2465C22.7438 10.7078 22 11.767 22 13V20C22 21.3019 22.8293 22.4101 23.9884 22.8252C23.8272 25.0832 21.9999 26.8804 19.7291 26.9943C19.3825 26.3996 18.7379 26 18 26C16.8954 26 16 26.8954 16 28C16 29.1046 16.8954 30 18 30C18.742 30 19.3896 29.5959 19.7348 28.9958C23.1054 28.8761 25.8226 26.1901 25.9917 22.8322C26.8526 22.5308 27.5343 21.848 27.8341 20.9863C27.8881 20.9953 27.9435 21 28 21C28.5523 21 29 20.5523 29 20V14C29 13.4477 28.5523 13 28 13C28 11.6283 27.0794 10.4717 25.8224 10.1141C24.9405 5.49291 20.8782 2 16 2C11.1218 2 7.0595 5.49291 6.17756 10.1141C4.92055 10.4717 4 11.6283 4 13C3.44772 13 3 13.4477 3 14V20C3 20.5523 3.44772 21 4 21C4.05652 21 4.11194 20.9953 4.1659 20.9863C4.57384 22.1586 5.68867 23 7 23C8.65685 23 10 21.6569 10 20V13C10 11.767 9.25617 10.7078 8.19277 10.2465Z" fill="black"/></svg>