<?xml version="1.0" encoding="UTF-8" standalone="no"?><!DOCTYPE svg PUBLIC "-//W3C//DTD SVG 1.1//EN" "http://www.w3.org/Graphics/SVG/1.1/DTD/svg11.dtd"><svg width="100%" height="100%" viewBox="0 0 1200 1200" version="1.1" xmlns="http://www.w3.org/2000/svg" xmlns:xlink="http://www.w3.org/1999/xlink" xml:space="preserve" xmlns:serif="http://www.serif.com/" style="fill-rule:evenodd;clip-rule:evenodd;stroke-linejoin:round;stroke-miterlimit:2;"><g transform="matrix(1,0,0,1,-954.111,-2704.7)"><g id="Impact" transform="matrix(2.9637,0,0,1.07143,-4360.99,2704.7)"><rect x="1793.4" y="0" width="404.899" height="1120" style="fill:none;"/><g transform="matrix(0.160674,0,0,0.666667,1928.37,2.61717e-12)"><path d="M1420.3,0C1489.17,-0 1555.23,18.241 1603.93,50.71C1652.64,83.179 1680,127.216 1680,173.135L1680,946.865C1680,992.784 1652.64,1036.82 1603.93,1069.29C1555.23,1101.76 1489.17,1120 1420.3,1120L259.702,1120C190.825,1120 124.769,1101.76 76.065,1069.29C27.361,1036.82 -0,992.784 -0,946.865C0,736.457 0,383.543 0,173.135C-0,127.216 27.361,83.179 76.065,50.71C124.769,18.241 190.825,-0 259.702,0L1420.3,0Z" style="fill:rgb(14,48,82);"/></g><g transform="matrix(3.99601,0,0,11.0534,2063.33,373.333)"><g transform="matrix(1,0,0,1,-21.3333,-21.3333)"><g transform="matrix(1.33333,0,0,1.33333,0,0)"><path d="M16,30C23.732,30 30,23.732 30,16C30,14.868 29.866,13.768 29.612,12.714C29.23,13.322 28.819,13.91 28.38,14.478C28.239,14.662 28.098,14.841 27.96,15.013C28.101,16.702 27.882,18.402 27.317,20L23.677,20C23.785,19.35 23.867,18.682 23.921,17.999C23.196,17.98 22.503,17.699 21.969,17.208C21.919,18.18 21.809,19.114 21.647,20L10.353,20C10.115,18.68 9.997,17.341 10,16C10,14.592 10.125,13.247 10.353,12L17.971,12C17.694,11.49 17.355,10.791 17.16,10L10.83,10C11.104,9.059 11.472,8.148 11.93,7.282C13.128,5.06 14.612,4 16,4C16.737,4 17.5,4.299 18.234,4.91C18.877,4.026 19.719,3.305 20.692,2.806C19.186,2.271 17.599,1.998 16,2C8.268,2 2,8.268 2,16C2,23.732 8.268,30 16,30ZM10.17,6.334C9.59,7.409 9.11,8.646 8.752,10L5.605,10C6.835,7.875 8.685,6.176 10.907,5.131C10.643,5.51 10.397,5.913 10.17,6.334ZM8.323,12C8.106,13.322 7.998,14.66 8,16C8,17.386 8.112,18.729 8.323,20L4.683,20C4.23,18.715 3.999,17.362 4,16C4,14.598 4.24,13.251 4.683,12L8.323,12ZM8.752,22C9.112,23.354 9.591,24.591 10.17,25.666C10.396,26.087 10.643,26.49 10.907,26.869C8.685,25.824 6.835,24.125 5.605,22L8.752,22ZM21.17,22C20.896,22.941 20.528,23.852 20.07,24.718C18.872,26.94 17.388,28 16,28C14.611,28 13.127,26.94 11.93,24.718C11.503,23.923 11.13,23.008 10.83,22L21.17,22ZM23.248,22L26.395,22C25.165,24.125 23.315,25.824 21.093,26.869C21.357,26.49 21.603,26.087 21.83,25.666C22.41,24.591 22.889,23.354 23.248,22Z" style="fill:white;fill-rule:nonzero;"/></g><g transform="matrix(1.33333,0,0,1.33333,0,0)"><path d="M25,9C25,9.549 24.549,10 24,10C23.451,10 23,9.549 23,9C23,8.451 23.451,8 24,8C24.549,8 25,8.451 25,9Z" style="fill:white;fill-rule:nonzero;"/></g><g transform="matrix(1.33333,0,0,1.33333,0,0)"><path d="M24.737,15.677L24.723,15.691C24.535,15.889 24.273,16.002 24,16.002C23.727,16.002 23.465,15.889 23.277,15.691L23.263,15.677L23.227,15.638C23.024,15.421 22.823,15.2 22.626,14.977C22.133,14.421 21.66,13.848 21.206,13.26C20.691,12.589 20.158,11.827 19.748,11.082C19.358,10.372 19,9.534 19,8.75C19,6.067 21.3,4 24,4C26.7,4 29,6.067 29,8.75C29,9.534 28.641,10.371 28.252,11.082C27.842,11.827 27.309,12.588 26.793,13.26C26.158,14.084 25.484,14.878 24.773,15.638L24.737,15.677ZM24,6C22.281,6 21,7.291 21,8.75C21,9.001 21.141,9.463 21.502,10.119C21.842,10.739 22.309,11.411 22.793,12.043C23.223,12.603 23.653,13.114 24,13.511C24.347,13.114 24.778,12.602 25.207,12.043C25.691,11.411 26.157,10.74 26.498,10.119C26.858,9.463 27,9.001 27,8.75C27,7.291 25.719,6 24,6Z" style="fill:white;fill-rule:nonzero;"/></g></g></g></g></g></svg>