<svg xmlns="http://www.w3.org/2000/svg" width="32" height="32" fill="none" viewBox="0 0 32 32"><path fill="#000" d="M4 19a2 2 0 0 0 2 2h11.674A7 7 0 0 1 28 12.255V7a2 2 0 0 0-2-2H6a2 2 0 0 0-2 2v12Zm16.73-9.684a1 1 0 0 1-.046 1.413l-5.333 5a1 1 0 0 1-1.368 0l-2.667-2.5a1 1 0 1 1 1.368-1.458l1.983 1.858 4.65-4.359a1 1 0 0 1 1.413.046ZM17.019 22a8.5 8.5 0 0 0-1.267 2H3a1 1 0 1 1 0-2h14.019Z"/><path fill="#000" d="M27.433 21.635a5 5 0 1 0-6.867 0A6.334 6.334 0 0 0 17 27.333 3.667 3.667 0 0 0 20.667 31h6.666A3.667 3.667 0 0 0 31 27.333a6.334 6.334 0 0 0-3.567-5.698ZM24 15a3 3 0 1 1 0 6 3 3 0 0 1 0-6Zm-.667 8h1.334A4.333 4.333 0 0 1 29 27.333c0 .92-.746 1.667-1.667 1.667h-6.666c-.92 0-1.667-.746-1.667-1.667A4.333 4.333 0 0 1 23.333 23Z"/></svg>