<svg width="32" height="32" viewBox="0 0 32 32" fill="none" xmlns="http://www.w3.org/2000/svg"><path d="M16 20C17.1046 20 18 19.1046 18 18C18 17.2597 17.5978 16.6134 17 16.2676V11C17 10.4477 16.5523 10 16 10C15.4477 10 15 10.4477 15 11V16.2676C14.4022 16.6134 14 17.2597 14 18C14 19.1046 14.8954 20 16 20Z" fill="black"/><path fill-rule="evenodd" clip-rule="evenodd" d="M12.5 3C12.5 2.44772 12.9477 2 13.5 2H18.5C19.0523 2 19.5 2.44772 19.5 3C19.5 3.55228 19.0523 4 18.5 4H17V5.04107C19.5624 5.25247 21.8965 6.26893 23.7488 7.83695L24.2929 7.29289C24.6834 6.90237 25.3166 6.90237 25.7071 7.29289C26.0976 7.68342 26.0976 8.31658 25.7071 8.70711L25.1631 9.25116C26.9328 11.3418 28 14.0463 28 17C28 23.6274 22.6274 29 16 29C9.37258 29 4 23.6274 4 17C4 10.7093 8.84047 5.54922 15 5.04107V4H13.5C12.9477 4 12.5 3.55228 12.5 3ZM6 17C6 11.4772 10.4772 7 16 7C21.5228 7 26 11.4772 26 17C26 22.5228 21.5228 27 16 27C10.4772 27 6 22.5228 6 17Z" fill="black"/></svg>