<?xml version="1.0" encoding="UTF-8" standalone="no"?><!DOCTYPE svg PUBLIC "-//W3C//DTD SVG 1.1//EN" "http://www.w3.org/Graphics/SVG/1.1/DTD/svg11.dtd"><svg width="100%" height="100%" viewBox="0 0 1000 1000" version="1.1" xmlns="http://www.w3.org/2000/svg" xmlns:xlink="http://www.w3.org/1999/xlink" xml:space="preserve" xmlns:serif="http://www.serif.com/" style="fill-rule:evenodd;clip-rule:evenodd;stroke-linejoin:round;stroke-miterlimit:2;"><g transform="matrix(1,0,0,1,-3519.22,-1309.78)"><g id="Major-Incident-Manager" serif:id="Major Incident Manager" transform="matrix(2.46975,0,0,0.892857,-910.037,1309.78)"><rect x="1793.4" y="0" width="404.899" height="1120" style="fill:none;"/><g transform="matrix(0.241011,0,0,1,1793.4,-5.68434e-14)"><rect x="0" y="0" width="1680" height="1120" style="fill:rgb(249,99,56);"/></g><g transform="matrix(4.79521,0,0,13.2641,1995.85,560.004)"><g transform="matrix(1,0,0,1,-21.3333,-21.3333)"><g transform="matrix(1.33333,0,0,1.33333,0,0)"><path d="M19,9C19,11.375 17.817,13.474 16.008,14.74C20.24,16.392 23,20.623 23,25.5C23,27.985 20.985,30 18.5,30L5.5,30C3.015,30 1,27.985 1,25.5C1,20.623 3.76,16.392 7.992,14.74C6.183,13.474 5,11.375 5,9C5,5.134 8.134,2 12,2C15.866,2 19,5.134 19,9ZM12,4C9.239,4 7,6.239 7,9C7,11.761 9.239,14 12,14C14.761,14 17,11.761 17,9C17,6.239 14.761,4 12,4ZM3,25.5C3,20.188 6.816,16 12,16C17.184,16 21,20.188 21,25.5C21,26.881 19.881,28 18.5,28L5.5,28C4.119,28 3,26.881 3,25.5Z" style="fill:white;"/></g><g transform="matrix(1.33333,0,0,1.33333,0,0)"><path d="M22,13C22.552,13 23,12.552 23,12C23,11.448 22.552,11 22,11C21.448,11 21,11.448 21,12C21,12.552 21.448,13 22,13Z" style="fill:white;fill-rule:nonzero;"/></g><g transform="matrix(1.33333,0,0,1.33333,0,0)"><path d="M21,8C21,7.448 21.448,7 22,7C24.761,7 27,9.239 27,12C27,12.552 26.552,13 26,13C25.448,13 25,12.552 25,12C25,10.343 23.657,9 22,9C21.448,9 21,8.552 21,8Z" style="fill:white;fill-rule:nonzero;"/></g><g transform="matrix(1.33333,0,0,1.33333,0,0)"><path d="M22,3C21.448,3 21,3.448 21,4C21,4.552 21.448,5 22,5C25.866,5 29,8.134 29,12C29,12.552 29.448,13 30,13C30.552,13 31,12.552 31,12C31,7.029 26.971,3 22,3Z" style="fill:white;fill-rule:nonzero;"/></g></g></g></g></g></svg>