<?xml version="1.0" encoding="UTF-8" standalone="no"?><!DOCTYPE svg PUBLIC "-//W3C//DTD SVG 1.1//EN" "http://www.w3.org/Graphics/SVG/1.1/DTD/svg11.dtd"><svg width="100%" height="100%" viewBox="0 0 1000 1000" version="1.1" xmlns="http://www.w3.org/2000/svg" xmlns:xlink="http://www.w3.org/1999/xlink" xml:space="preserve" xmlns:serif="http://www.serif.com/" style="fill-rule:evenodd;clip-rule:evenodd;stroke-linejoin:round;stroke-miterlimit:2;"><g transform="matrix(1,0,0,1,-12.8848,-1309.78)"><g id="Service-Desk" serif:id="Service Desk" transform="matrix(2.46975,0,0,0.892857,-4416.37,1309.78)"><rect x="1793.4" y="0" width="404.899" height="1120" style="fill:none;"/><clipPath id="_clip1"><rect x="1793.4" y="0" width="404.899" height="1120"/></clipPath><g clip-path="url(#_clip1)"><g transform="matrix(0.241011,-2.96071e-16,1.6054e-16,1,1793.4,2.41585e-13)"><rect x="0" y="0" width="1680" height="1120" style="fill:rgb(14,48,82);"/></g><g transform="matrix(4.79513,0,0,13.2639,1995.85,560)"><g transform="matrix(1,0,0,1,-21.3333,-21.3333)"><g transform="matrix(1.33333,0,0,1.33333,0,0)"><path d="M8.193,10.246C8.992,6.672 12.184,4 16,4C19.816,4 23.008,6.672 23.807,10.246C22.744,10.708 22,11.767 22,13L22,20C22,21.302 22.829,22.41 23.988,22.825C23.827,25.083 22,26.88 19.729,26.994C19.383,26.4 18.738,26 18,26C16.895,26 16,26.895 16,28C16,29.105 16.895,30 18,30C18.742,30 19.39,29.596 19.735,28.996C23.105,28.876 25.823,26.19 25.992,22.832C26.853,22.531 27.534,21.848 27.834,20.986C27.888,20.995 27.944,21 28,21C28.552,21 29,20.552 29,20L29,14C29,13.448 28.552,13 28,13C28,11.628 27.079,10.472 25.822,10.114C24.941,5.493 20.878,2 16,2C11.122,2 7.06,5.493 6.178,10.114C4.921,10.472 4,11.628 4,13C3.448,13 3,13.448 3,14L3,20C3,20.552 3.448,21 4,21C4.057,21 4.112,20.995 4.166,20.986C4.574,22.159 5.689,23 7,23C8.657,23 10,21.657 10,20L10,13C10,11.767 9.256,10.708 8.193,10.246ZM7,12C6.448,12 6,12.448 6,13L6,20C6,20.552 6.448,21 7,21C7.552,21 8,20.552 8,20L8,13C8,12.448 7.552,12 7,12ZM25,12C24.448,12 24,12.448 24,13L24,20C24,20.552 24.448,21 25,21C25.552,21 26,20.552 26,20L26,13C26,12.448 25.552,12 25,12Z" style="fill:white;"/></g></g></g></g></g></g></svg>