<svg width="3249" height="3249" xmlns="http://www.w3.org/2000/svg" xmlns:xlink="http://www.w3.org/1999/xlink" xml:space="preserve" overflow="hidden"><g><g><rect x="0" y="0" width="3248" height="3248" fill="#3F6DAA" fill-opacity="1"/><g><g><g><path d="M826.5 1519.5 745.375 1762.19 745.375 1074C745.375 952.656 844.031 854 965.375 854L1442.16 854C1489.59 854 1536 869.469 1574.16 898L1706.16 997C1725.06 1011.44 1748.44 1019 1772.16 1019L2175.37 1019C2296.72 1019 2395.38 1117.66 2395.38 1239L2395.38 1294 1139.31 1294C997.344 1294 871.187 1384.75 826.156 1519.5ZM2276.44 2284 974.312 2284C861.562 2284 782.156 2173.66 817.906 2066.75L982.906 1571.75C1005.25 1504.37 1068.5 1459 1139.31 1459L2441.44 1459C2554.19 1459 2633.59 1569.34 2597.84 1676.25L2432.84 2171.25C2410.5 2238.62 2347.25 2284 2276.44 2284Z" fill="#FFFFFF" fill-rule="nonzero" fill-opacity="1"/></g></g></g></g></g></svg>