<svg width="4400" height="1366" xmlns="http://www.w3.org/2000/svg" xmlns:xlink="http://www.w3.org/1999/xlink" xml:space="preserve" overflow="hidden"><g transform="matrix(1 0 0 1 0 -531)"><g><rect x="0" y="535" width="4400" height="1358" fill="#FFFFFF" fill-opacity="1"/><path d="M3523.5 1141C3523.5 1087.15 3566.93 1043.5 3620.5 1043.5 3674.07 1043.5 3717.5 1087.15 3717.5 1141 3717.5 1194.85 3674.07 1238.5 3620.5 1238.5 3566.93 1238.5 3523.5 1194.85 3523.5 1141Z" stroke="#C5CFDB" stroke-width="22.9167" stroke-linecap="butt" stroke-linejoin="miter" stroke-miterlimit="8" stroke-opacity="1" fill="#FFFFFF" fill-rule="evenodd" fill-opacity="1"/><path d="M0 1140 2297.2 1140" stroke="#C5CFDB" stroke-width="13.75" stroke-linecap="butt" stroke-linejoin="miter" stroke-miterlimit="8" stroke-opacity="1" fill="none" fill-rule="evenodd"/><path d="M683.5 1141C683.5 1087.15 726.928 1043.5 780.5 1043.5 834.072 1043.5 877.5 1087.15 877.5 1141 877.5 1194.85 834.072 1238.5 780.5 1238.5 726.928 1238.5 683.5 1194.85 683.5 1141Z" stroke="#C5CFDB" stroke-width="22.9167" stroke-linecap="butt" stroke-linejoin="miter" stroke-miterlimit="8" stroke-opacity="1" fill="#FFFFFF" fill-rule="evenodd" fill-opacity="1"/><path d="M2297 1133.12 3511.92 1133.13 3511.92 1146.88 2297 1146.87ZM3475.07 1100.34 3522.66 1140 3475.07 1179.66C3472.16 1182.09 3467.82 1181.69 3465.39 1178.78 3462.96 1175.86 3463.35 1171.52 3466.27 1169.09L3507.52 1134.72 3507.52 1145.28 3466.27 1110.91C3463.35 1108.48 3462.96 1104.14 3465.39 1101.22 3467.82 1098.31 3472.16 1097.91 3475.07 1100.34Z" fill="#3F6DAA" fill-rule="nonzero" fill-opacity="1"/><path d="M0-6.875 199.374-6.875 199.374 1426.92 15.3083 1426.92 15.3083 1413.17 192.499 1413.17 185.624 1420.04 185.624 0 192.499 6.875 0 6.875ZM52.1571 1459.7 4.56924 1420.04 52.1571 1380.39C55.074 1377.96 59.4091 1378.35 61.8399 1381.27 64.2706 1384.18 63.8765 1388.52 60.9596 1390.95L19.7096 1425.32 19.7096 1414.76 60.9596 1449.14C63.8765 1451.57 64.2706 1455.9 61.8399 1458.82 59.4091 1461.74 55.074 1462.13 52.1571 1459.7Z" fill="#F96338" fill-rule="nonzero" fill-opacity="1" transform="matrix(-1.83697e-16 -1 -1 1.83697e-16 2202.04 1045.58)"/><text fill="#3F6DAA" fill-opacity="1" font-family="Inter,Inter_MSFontService,sans-serif" font-style="normal" font-variant="normal" font-weight="700" font-stretch="normal" font-size="83" text-anchor="start" direction="ltr" writing-mode="lr-tb" unicode-bidi="normal" text-decoration="none" transform="matrix(1 0 0 1 715.758 1488)">STATE</text><text fill="#3F6DAA" fill-opacity="1" font-family="Inter,Inter_MSFontService,sans-serif" font-style="normal" font-variant="normal" font-weight="700" font-stretch="normal" font-size="83" text-anchor="start" direction="ltr" writing-mode="lr-tb" unicode-bidi="normal" text-decoration="none" transform="matrix(1 0 0 1 987.321 1488)"> </text><text fill="#0E3052" fill-opacity="1" font-family="Inter,Inter_MSFontService,sans-serif" font-style="normal" font-variant="normal" font-weight="700" font-stretch="normal" font-size="128" text-anchor="start" direction="ltr" writing-mode="lr-tb" unicode-bidi="normal" text-decoration="none" transform="matrix(1 0 0 1 715.758 1685)">In Progress</text><text fill="#0E3052" fill-opacity="1" font-family="Inter,Inter_MSFontService,sans-serif" font-style="normal" font-variant="normal" font-weight="700" font-stretch="normal" font-size="128" text-anchor="start" direction="ltr" writing-mode="lr-tb" unicode-bidi="normal" text-decoration="none" transform="matrix(1 0 0 1 1422.74 1685)"> </text><text fill="#0E3052" fill-opacity="1" font-family="Inter,Inter_MSFontService,sans-serif" font-style="normal" font-variant="normal" font-weight="700" font-stretch="normal" font-size="128" text-anchor="start" direction="ltr" writing-mode="lr-tb" unicode-bidi="normal" text-decoration="none" transform="matrix(1 0 0 1 2135.8 1685)">Resolved</text><text fill="#0E3052" fill-opacity="1" font-family="Inter,Inter_MSFontService,sans-serif" font-style="normal" font-variant="normal" font-weight="700" font-stretch="normal" font-size="128" text-anchor="start" direction="ltr" writing-mode="lr-tb" unicode-bidi="normal" text-decoration="none" transform="matrix(1 0 0 1 2712.16 1685)"> </text><text fill="#3F6DAA" fill-opacity="1" font-family="Inter,Inter_MSFontService,sans-serif" font-style="normal" font-variant="normal" font-weight="700" font-stretch="normal" font-size="83" text-anchor="start" direction="ltr" writing-mode="lr-tb" unicode-bidi="normal" text-decoration="none" transform="matrix(1 0 0 1 2135.8 1488)">STATE</text><text fill="#3F6DAA" fill-opacity="1" font-family="Inter,Inter_MSFontService,sans-serif" font-style="normal" font-variant="normal" font-weight="700" font-stretch="normal" font-size="83" text-anchor="start" direction="ltr" writing-mode="lr-tb" unicode-bidi="normal" text-decoration="none" transform="matrix(1 0 0 1 2407.36 1488)"> </text><text fill="#0E3052" fill-opacity="1" font-family="Inter,Inter_MSFontService,sans-serif" font-style="normal" font-variant="normal" font-weight="700" font-stretch="normal" font-size="128" text-anchor="start" direction="ltr" writing-mode="lr-tb" unicode-bidi="normal" text-decoration="none" transform="matrix(1 0 0 1 3555.84 1685)">Closed</text><text fill="#0E3052" fill-opacity="1" font-family="Inter,Inter_MSFontService,sans-serif" font-style="normal" font-variant="normal" font-weight="700" font-stretch="normal" font-size="128" text-anchor="start" direction="ltr" writing-mode="lr-tb" unicode-bidi="normal" text-decoration="none" transform="matrix(1 0 0 1 3992.98 1685)"> </text><text fill="#3F6DAA" fill-opacity="1" font-family="Inter,Inter_MSFontService,sans-serif" font-style="normal" font-variant="normal" font-weight="700" font-stretch="normal" font-size="83" text-anchor="start" direction="ltr" writing-mode="lr-tb" unicode-bidi="normal" text-decoration="none" transform="matrix(1 0 0 1 3555.84 1488)">STATE</text><text fill="#3F6DAA" fill-opacity="1" font-family="Inter,Inter_MSFontService,sans-serif" font-style="normal" font-variant="normal" font-weight="700" font-stretch="normal" font-size="83" text-anchor="start" direction="ltr" writing-mode="lr-tb" unicode-bidi="normal" text-decoration="none" transform="matrix(1 0 0 1 3827.41 1488)"> </text><text fill="#3F6DAA" fill-opacity="1" font-family="Inter,Inter_MSFontService,sans-serif" font-style="normal" font-variant="normal" font-weight="700" font-stretch="normal" font-size="83" text-anchor="start" direction="ltr" writing-mode="lr-tb" unicode-bidi="normal" text-decoration="none" transform="matrix(1 0 0 1 2585.05 1072)">Resolution accepted</text><text fill="#3F6DAA" fill-opacity="1" font-family="Inter,Inter_MSFontService,sans-serif" font-style="normal" font-variant="normal" font-weight="700" font-stretch="normal" font-size="83" text-anchor="start" direction="ltr" writing-mode="lr-tb" unicode-bidi="normal" text-decoration="none" transform="matrix(1 0 0 1 3453.6 1072)"> </text><text fill="#F96338" fill-opacity="1" font-family="Inter,Inter_MSFontService,sans-serif" font-style="normal" font-variant="normal" font-weight="700" font-stretch="normal" font-size="83" text-anchor="start" direction="ltr" writing-mode="lr-tb" unicode-bidi="normal" text-decoration="none" transform="matrix(1 0 0 1 781.202 780)">Resolution rejected</text><text fill="#F96338" fill-opacity="1" font-family="Inter,Inter_MSFontService,sans-serif" font-style="normal" font-variant="normal" font-weight="700" font-stretch="normal" font-size="83" text-anchor="start" direction="ltr" writing-mode="lr-tb" unicode-bidi="normal" text-decoration="none" transform="matrix(1 0 0 1 1603.91 780)"> </text><path d="M2103.5 1141C2103.5 1087.15 2146.93 1043.5 2200.5 1043.5 2254.07 1043.5 2297.5 1087.15 2297.5 1141 2297.5 1194.85 2254.07 1238.5 2200.5 1238.5 2146.93 1238.5 2103.5 1194.85 2103.5 1141Z" stroke="#C5CFDB" stroke-width="22.9167" stroke-linecap="butt" stroke-linejoin="miter" stroke-miterlimit="8" stroke-opacity="1" fill="#FFFFFF" fill-rule="evenodd" fill-opacity="1"/></g></g></svg>