<svg width="3249" height="3249" xmlns="http://www.w3.org/2000/svg" xmlns:xlink="http://www.w3.org/1999/xlink" xml:space="preserve" overflow="hidden"><g><g><rect x="0" y="0" width="3248" height="3248" fill="#3F6DAA" fill-opacity="1"/><g><g><g><path d="M2162 1702.52C2184.43 1664.53 2197.12 1624 2197.12 1575 2197.12 1462.39 2101.9 1356.04 1977.55 1356.04L1884.21 1356.04C1896.8 1323.26 1906.85 1284.07 1906.85 1236.96 1906.85 1050.71 1810.42 969 1663.1 969 1505.47 969 1514.46 1211.9 1479.49 1246.86 1421.29 1305.06 1352.55 1416.87 1303.56 1460.25L1050.88 1460.25C1005.66 1460.25 969 1496.91 969 1542.12L969 2156.19C969 2201.41 1005.66 2238.06 1050.88 2238.06L1214.62 2238.06C1252.73 2238.06 1284.75 2212.03 1293.89 2176.78 1407.77 2179.35 1485.93 2278.97 1748.81 2278.97 1767.28 2278.97 1787.75 2279 1805.66 2279 2002.97 2279 2092.19 2178.13 2094.63 2035.09 2128.71 1987.95 2146.56 1924.76 2138.99 1863.69 2164.21 1816.48 2173.95 1760.47 2162 1702.52ZM2004 1840.25C2036.14 1894.32 2007.23 1966.67 1968.34 1987.55 1988.04 2112.36 1923.28 2156.16 1832.42 2156.16L1735.66 2156.16C1552.36 2156.16 1433.67 2059.4 1296.5 2059.4L1296.5 1583.06 1324.44 1583.06C1397 1583.06 1498.37 1401.68 1566.33 1333.7 1638.89 1261.14 1614.71 1140.2 1663.1 1091.81 1784.04 1091.81 1784.04 1176.19 1784.04 1236.96 1784.04 1337.18 1711.48 1382.08 1711.48 1478.85L1977.55 1478.85C2031.56 1478.85 2074.08 1527.23 2074.31 1575.62 2074.54 1623.97 2041.51 1672.36 2017.33 1672.36 2051.85 1709.6 2059.22 1788.1 2004 1840.25ZM1194.16 2074.31C1194.16 2108.23 1166.66 2135.72 1132.75 2135.72 1098.84 2135.72 1071.34 2108.23 1071.34 2074.31 1071.34 2040.4 1098.84 2012.91 1132.75 2012.91 1166.66 2012.91 1194.16 2040.4 1194.16 2074.31Z" fill="#FFFFFF" fill-rule="nonzero" fill-opacity="1"/></g></g></g></g></g></svg>