<?xml version="1.0" encoding="UTF-8" standalone="no"?><!DOCTYPE svg PUBLIC "-//W3C//DTD SVG 1.1//EN" "http://www.w3.org/Graphics/SVG/1.1/DTD/svg11.dtd"><svg width="100%" height="100%" viewBox="0 0 1000 1000" version="1.1" xmlns="http://www.w3.org/2000/svg" xmlns:xlink="http://www.w3.org/1999/xlink" xml:space="preserve" xmlns:serif="http://www.serif.com/" style="fill-rule:evenodd;clip-rule:evenodd;stroke-linejoin:round;stroke-miterlimit:2;"><g transform="matrix(1,0,0,1,-5849.69,-1309.78)"><g id="The-User" serif:id="The User" transform="matrix(2.46975,0,0,0.892857,1420.44,1309.78)"><rect x="1793.4" y="0" width="404.899" height="1120" style="fill:none;"/><g transform="matrix(0.241011,0,0,1,1793.4,-5.68434e-14)"><rect x="0" y="0" width="1680" height="1120" style="fill:white;"/></g><g transform="matrix(4.79513,0,0,13.2639,1995.85,560)"><g transform="matrix(1,0,0,1,-21.3333,-21.3333)"><g transform="matrix(1.33333,0,0,1.33333,0,0)"><path d="M19.376,14.688C20.41,13.741 21,12.402 21,11C21,8.257 18.743,6 16,6C13.257,6 11,8.257 11,11C11,12.402 11.59,13.741 12.624,14.688C12.143,14.906 11.691,15.183 11.278,15.513C10.774,14.731 10.073,14.095 9.246,13.67C9.734,13.052 10,12.288 10,11.5C10,9.58 8.42,8 6.5,8C4.579,8 3,9.58 3,11.5C3,12.288 3.265,13.052 3.753,13.67C2.136,14.517 1,16.096 1,18L1,19C1,20.646 2.354,22 4,22L9,22L9,23C9,24.646 10.354,26 12,26L20,26C21.646,26 23,24.646 23,23L23,22L28,22C29.646,22 31,20.646 31,19L31,18C31,16.096 29.865,14.517 28.247,13.67C28.735,13.052 29.001,12.288 29.001,11.5C29.001,9.58 27.421,8 25.501,8C23.58,8 22.001,9.58 22.001,11.5C22.001,12.288 22.266,13.052 22.754,13.67C21.927,14.095 21.226,14.731 20.722,15.513C20.309,15.183 19.857,14.906 19.376,14.688ZM16,8C17.646,8 19,9.354 19,11C19,12.646 17.646,14 16,14C14.354,14 13,12.646 13,11C13,9.354 14.354,8 16,8ZM16,16C17.593,16 18.837,16.483 19.672,17.245C20.497,18 21,19.099 21,20.5L21,23C21,23.549 20.549,24 20,24L12,24C11.451,24 11,23.549 11,23L11,20.5C11,19.098 11.503,18 12.328,17.245C13.163,16.483 14.407,16 16,16ZM22.984,20C22.914,18.951 22.627,17.992 22.144,17.16C22.556,15.964 23.83,15 25.5,15C27.547,15 29,16.45 29,18L29,19C29,19.549 28.549,20 28,20L22.984,20ZM9.857,17.16C9.373,17.992 9.086,18.951 9.017,20L4,20C3.451,20 3,19.549 3,19L3,18C3,16.45 4.453,15 6.5,15C8.169,15 9.443,15.964 9.857,17.16ZM6.5,10C7.323,10 8,10.677 8,11.5C8,12.323 7.323,13 6.5,13C5.677,13 5,12.323 5,11.5C5,10.677 5.677,10 6.5,10ZM27,11.5C27,12.323 26.323,13 25.5,13C24.677,13 24,12.323 24,11.5C24,10.677 24.677,10 25.5,10C26.323,10 27,10.677 27,11.5Z" style="fill:white;fill-rule:nonzero;"/></g></g></g><g transform="matrix(4.79513,0,0,13.2639,1995.85,560)"><g transform="matrix(1,0,0,1,-21.3333,-21.3333)"><g transform="matrix(1.33333,0,0,1.33333,0,0)"><path d="M6,21C4.903,21 4,20.097 4,19L4,7C4,5.903 4.903,5 6,5L26,5C27.097,5 28,5.903 28,7L28,12.255C27.389,11.829 26.714,11.503 26,11.29L26,7L6,7L6,19L17.07,19C17.172,19.706 17.378,20.378 17.674,21L6,21ZM17.019,22L3,22C2.451,22 2,22.451 2,23C2,23.549 2.451,24 3,24L15.752,24C16.079,23.277 16.505,22.604 17.019,22Z" style="fill:rgb(14,48,82);fill-rule:nonzero;"/></g><g transform="matrix(1.33333,0,0,1.33333,0,0)"><path d="M20.684,10.73C20.886,10.541 21,10.276 21,10C21,9.451 20.549,9 20,9C19.746,9 19.501,9.096 19.316,9.27L14.666,13.63L12.684,11.77C12.499,11.596 12.254,11.5 12,11.5C11.451,11.5 11,11.951 11,12.5C11,12.776 11.114,13.041 11.316,13.23L13.983,15.73C14.366,16.089 14.968,16.089 15.351,15.73L20.684,10.73ZM27.433,21.635C28.432,20.691 28.999,19.375 28.999,18C28.999,15.257 26.742,13 23.999,13C21.257,13 18.999,15.257 18.999,18C18.999,19.375 19.567,20.691 20.566,21.635C18.388,22.693 17,24.912 17,27.333C17,29.345 18.655,31 20.667,31L27.333,31C29.345,31 31,29.345 31,27.333C31,24.911 29.611,22.693 27.433,21.635ZM24,15C25.646,15 27,16.354 27,18C27,19.646 25.646,21 24,21C22.354,21 21,19.646 21,18C21,16.354 22.354,15 24,15ZM23.333,23L24.667,23C27.044,23 29,24.956 29,27.333C29,28.253 28.254,29 27.333,29L20.667,29C19.747,29 19,28.254 19,27.333C19,24.956 20.956,23 23.333,23Z" style="fill:rgb(14,48,82);fill-rule:nonzero;"/></g></g></g></g></g></svg>