<?xml version="1.0" encoding="UTF-8" standalone="no"?><!DOCTYPE svg PUBLIC "-//W3C//DTD SVG 1.1//EN" "http://www.w3.org/Graphics/SVG/1.1/DTD/svg11.dtd"><svg width="100%" height="100%" viewBox="0 0 1000 1000" version="1.1" xmlns="http://www.w3.org/2000/svg" xmlns:xlink="http://www.w3.org/1999/xlink" xml:space="preserve" xmlns:serif="http://www.serif.com/" style="fill-rule:evenodd;clip-rule:evenodd;stroke-linejoin:round;stroke-miterlimit:2;"><g transform="matrix(1,0,0,1,-2330.93,-1309.78)"><g id="Incident-Manager" serif:id="Incident Manager" transform="matrix(2.46975,0,0,0.892857,-2098.32,1309.78)"><rect x="1793.4" y="0" width="404.899" height="1120" style="fill:none;"/><g transform="matrix(0.241011,0,0,1,1793.4,-5.68434e-14)"><rect x="0" y="0" width="1680" height="1120" style="fill:rgb(197,207,219);"/></g><g transform="matrix(4.79513,0,0,13.2639,1995.85,560)"><g transform="matrix(1,0,0,1,-21.3333,-21.3333)"><g transform="matrix(1.33333,0,0,1.33333,0,0)"><path d="M15,7.5C15.002,9.183 14.23,10.776 12.908,11.817C13.719,12.232 14.448,12.791 15.059,13.466C14.541,13.888 14.062,14.356 13.628,14.865C12.584,13.68 11.079,13 9.5,13C6.483,13 4,15.482 4,18.5C4,18.5 4,19 4,19C4,20.646 5.354,22 7,22L11,22C11,22.683 11.062,23.351 11.181,24L7,24C4.257,24 2,21.743 2,19L2,18.5C1.999,15.684 3.584,13.096 6.092,11.817C4.772,10.775 4,9.182 4,7.5C4,4.483 6.483,2 9.5,2C12.517,2 15,4.483 15,7.5ZM9.5,4C7.58,4 6,5.58 6,7.5C6,9.42 7.58,11 9.5,11C11.42,11 13,9.42 13,7.5C13,5.58 11.42,4 9.5,4ZM23,18C23,17.451 22.549,17 22,17C21.451,17 21,17.451 21,18L21,22C21,22.549 21.451,23 22,23L25,23C25.549,23 26,22.549 26,22C26,21.451 25.549,21 25,21L23,21L23,18Z" style="fill:rgb(14,48,82);fill-rule:nonzero;"/></g><g transform="matrix(1.33333,0,0,1.33333,0,0)"><path d="M13,22C13,17.063 17.063,13 22,13C26.937,13 31,17.063 31,22C31,26.937 26.937,31 22,31C17.063,31 13,26.937 13,22ZM22,15C18.16,15 15,18.16 15,22C15,25.84 18.16,29 22,29C25.84,29 29,25.84 29,22C29,18.16 25.84,15 22,15Z" style="fill:rgb(14,48,82);fill-rule:nonzero;"/></g></g></g></g></g></svg>