<?xml version="1.0" encoding="UTF-8" standalone="no"?><!DOCTYPE svg PUBLIC "-//W3C//DTD SVG 1.1//EN" "http://www.w3.org/Graphics/SVG/1.1/DTD/svg11.dtd"><svg width="100%" height="100%" viewBox="0 0 1000 1000" version="1.1" xmlns="http://www.w3.org/2000/svg" xmlns:xlink="http://www.w3.org/1999/xlink" xml:space="preserve" xmlns:serif="http://www.serif.com/" style="fill-rule:evenodd;clip-rule:evenodd;stroke-linejoin:round;stroke-miterlimit:2;"><g transform="matrix(1,0,0,1,-4687.62,-1309.78)"><g id="Process-Owner" serif:id="Process Owner" transform="matrix(2.46975,0,0,0.892857,258.367,1309.78)"><rect x="1793.4" y="0" width="404.899" height="1120" style="fill:none;"/><g transform="matrix(0.241011,0,0,1,1793.4,-5.68434e-14)"><rect x="0" y="0" width="1680" height="1120" style="fill:rgb(206,209,210);"/></g><g transform="matrix(4.79521,0,0,13.2641,1995.85,560)"><g transform="matrix(1,0,0,1,-21.3333,-21.3333)"><g transform="matrix(1.33333,0,0,1.33333,0,0)"><path d="M16,7.5C16.002,9.183 15.23,10.776 13.908,11.817C15.022,12.387 15.976,13.226 16.685,14.257C16.136,14.743 15.7,15.344 15.409,16.017C14.475,14.168 12.572,12.997 10.5,12.997C7.483,12.997 5,15.48 5,18.497C5,18.498 5,19 5,19C5,20.646 6.354,22 8,22L13,22C13.768,22 14.47,21.711 15,21.236L15,23.584C14.369,23.859 13.688,24.001 13,24L8,24C5.257,24 3,21.743 3,19L3,18.5C2.999,15.684 4.584,13.096 7.092,11.817C5.772,10.775 5,9.182 5,7.5C5,4.483 7.483,2 10.5,2C13.517,2 16,4.483 16,7.5ZM10.5,4C8.58,4 7,5.58 7,7.5C7,9.42 8.58,11 10.5,11C12.42,11 14,9.42 14,7.5C14,5.58 12.42,4 10.5,4ZM20.5,15L20,15C18.354,15 17,16.354 17,18L17,28C17,29.646 18.354,31 20,31L27,31C28.646,31 30,29.646 30,28L30,18C30,16.354 28.646,15 27,15L26.5,15C26.029,14.37 25.286,13.999 24.5,14L22.5,14C21.682,14 20.956,14.393 20.5,15ZM20,17L20.05,17C20.287,18.16 21.316,19 22.5,19L24.5,19C25.684,19 26.713,18.16 26.95,17L27,17C27.549,17 28,17.451 28,18L28,28C28,28.549 27.549,29 27,29L20,29C19.451,29 19,28.549 19,28L19,18C19,17.451 19.451,17 20,17ZM22,16.5C22,16.226 22.226,16 22.5,16L24.5,16C24.774,16 25,16.226 25,16.5C25,16.774 24.774,17 24.5,17L22.5,17C22.226,17 22,16.774 22,16.5Z" style="fill:rgb(14,48,82);fill-rule:nonzero;"/></g></g></g></g></g></svg>