<svg width="3249" height="3249" xmlns="http://www.w3.org/2000/svg" xmlns:xlink="http://www.w3.org/1999/xlink" xml:space="preserve" overflow="hidden"><g><g><rect x="0" y="0" width="3248" height="3248" fill="#3F6DAA" fill-opacity="1"/><g><g><g><path d="M1384 1384C1384 1339.82 1419.82 1304 1464 1304 1508.18 1304 1544 1339.82 1544 1384L1544 1864C1544 1908.18 1508.18 1944 1464 1944 1419.82 1944 1384 1908.18 1384 1864L1384 1384Z" fill="#FFFFFF" fill-rule="nonzero" fill-opacity="1"/><path d="M1704 1384C1704 1339.82 1739.82 1304 1784 1304 1828.18 1304 1864 1339.82 1864 1384L1864 1864C1864 1908.18 1828.18 1944 1784 1944 1739.82 1944 1704 1908.18 1704 1864L1704 1384Z" fill="#FFFFFF" fill-rule="nonzero" fill-opacity="1"/><path d="M1624 2504C1137.99 2504 744 2110.01 744 1624 744 1137.99 1137.99 744 1624 744 2110.01 744 2504 1137.99 2504 1624 2504 2110.01 2110.01 2504 1624 2504ZM904 1624C904 2021.65 1226.36 2344 1624 2344 2021.65 2344 2344 2021.65 2344 1624 2344 1226.36 2021.65 904 1624 904 1226.36 904 904 1226.36 904 1624Z" fill="#FFFFFF" fill-rule="evenodd" fill-opacity="1"/></g></g></g></g></g></svg>