<?xml version="1.0" encoding="UTF-8" standalone="no"?><!DOCTYPE svg PUBLIC "-//W3C//DTD SVG 1.1//EN" "http://www.w3.org/Graphics/SVG/1.1/DTD/svg11.dtd"><svg width="100%" height="100%" viewBox="0 0 1200 1200" version="1.1" xmlns="http://www.w3.org/2000/svg" xmlns:xlink="http://www.w3.org/1999/xlink" xml:space="preserve" xmlns:serif="http://www.serif.com/" style="fill-rule:evenodd;clip-rule:evenodd;stroke-linejoin:round;stroke-miterlimit:2;"><g transform="matrix(1,0,0,1,-5095.7,-2704.7)"><g id="Resolution" transform="matrix(2.9637,0,0,1.07143,-219.4,2704.7)"><rect x="1793.4" y="0" width="404.899" height="1120" style="fill:none;"/><g transform="matrix(0.160674,0,0,0.666667,1928.37,2.61717e-12)"><path d="M1420.3,0C1489.17,-0 1555.23,18.241 1603.93,50.71C1652.64,83.179 1680,127.216 1680,173.135C1680,383.543 1680,736.457 1680,946.865C1680,992.784 1652.64,1036.82 1603.93,1069.29C1555.23,1101.76 1489.17,1120 1420.3,1120L259.702,1120C190.825,1120 124.769,1101.76 76.065,1069.29C27.361,1036.82 -0,992.784 -0,946.865C0,736.457 0,383.543 0,173.135C-0,127.216 27.361,83.179 76.065,50.71C124.769,18.241 190.825,-0 259.702,0L1420.3,0Z" style="fill:rgb(206,209,210);"/></g><g transform="matrix(3.99601,0,0,11.0534,2063.33,373.333)"><g transform="matrix(1,0,0,1,-21.3333,-21.3333)"><g transform="matrix(1.33333,0,0,1.33333,0,0)"><path d="M11,30L7,30C5.354,30 4,28.646 4,27L4,9C4,7.354 5.354,6 7,6L8,6L8,5C8,3.354 9.354,2 11,2L20.172,2C20.967,2 21.73,2.317 22.292,2.879L28.122,8.707C28.684,9.269 29,10.033 29,10.828L29,11L23,11C21.354,11 20,9.646 20,8L20,4L11,4C10.451,4 10,4.451 10,5L10,23C10,23.549 10.451,24 11,24L13.288,24L12.438,26L11,26C9.354,26 8,24.646 8,23L8,8L7,8C6.451,8 6,8.451 6,9L6,27C6,27.549 6.451,28 7,28L11.59,28L11.239,28.828C11.081,29.199 10.999,29.597 10.999,30L11,30ZM25.586,9L22,5.414L22,8C22,8.549 22.451,9 23,9L25.586,9Z" style="fill:rgb(14,48,82);fill-rule:nonzero;"/></g><g transform="matrix(1.33333,0,0,1.33333,0,0)"><path d="M18.929,18L16.929,20L13,20C12.451,20 12,19.549 12,19C12,18.451 12.451,18 13,18L18.929,18ZM20.929,16L22.929,14L13,14C12.451,14 12,14.451 12,15C12,15.549 12.451,16 13,16L20.929,16ZM25.879,13.879C26.444,13.294 27.223,12.963 28.037,12.963C29.683,12.963 31.037,14.317 31.037,15.963C31.037,16.777 30.706,17.556 30.121,18.121L19.621,28.621C19.53,28.712 19.423,28.785 19.305,28.835L14.39,30.92C14.266,30.973 14.133,31 13.999,31C13.45,31 12.999,30.548 12.999,30C12.999,29.866 13.026,29.733 13.078,29.61L15.164,24.695C15.214,24.577 15.287,24.47 15.378,24.379L25.878,13.879L25.879,13.879ZM28.707,15.293C28.319,14.905 27.681,14.905 27.293,15.293L26.5,16.086L27.914,17.5L28.707,16.707C29.095,16.319 29.095,15.681 28.707,15.293ZM16.93,25.655L15.887,28.112L18.345,27.07L26.5,18.914L25.086,17.5L16.93,25.655Z" style="fill:rgb(14,48,82);fill-rule:nonzero;"/></g></g></g></g></g></svg>