<svg xmlns="http://www.w3.org/2000/svg" width="32" height="32" fill="none" viewBox="0 0 32 32"><path fill="#000" d="M16 7.5a5.49 5.49 0 0 1-2.092 4.317 7.533 7.533 0 0 1 3.25 3.225l-1.278 2.31A5.502 5.502 0 0 0 5 18.5v.5a3 3 0 0 0 3 3h5c.108 0 .214-.006.319-.017L12.204 24H8a5 5 0 0 1-5-5v-.5a7.5 7.5 0 0 1 4.092-6.683A5.5 5.5 0 1 1 16 7.5ZM10.5 4a3.5 3.5 0 1 0 0 7 3.5 3.5 0 0 0 0-7ZM21 20a1 1 0 1 1 2 0v4a1 1 0 0 1-2 0v-4Zm2 7a1 1 0 1 1-2 0 1 1 0 0 1 2 0Z"/><path fill="#000" d="M19.462 15.523c1.104-1.995 3.972-1.995 5.076 0l6.055 10.951C31.717 28.507 30.247 31 27.924 31H16.076c-2.323 0-3.793-2.493-2.669-4.526l6.055-10.95Zm3.326.968a.9.9 0 0 0-1.576 0l-6.055 10.95c-.387.7.12 1.559.92 1.559h11.847c.8 0 1.306-.858.919-1.558L22.788 16.49Z"/></svg>