<?xml version="1.0" encoding="UTF-8" standalone="no"?><!DOCTYPE svg PUBLIC "-//W3C//DTD SVG 1.1//EN" "http://www.w3.org/Graphics/SVG/1.1/DTD/svg11.dtd"><svg width="100%" height="100%" viewBox="0 0 1680 973" version="1.1" xmlns="http://www.w3.org/2000/svg" xmlns:xlink="http://www.w3.org/1999/xlink" xml:space="preserve" xmlns:serif="http://www.serif.com/" style="fill-rule:evenodd;clip-rule:evenodd;stroke-linejoin:round;stroke-miterlimit:2;"><g><g transform="matrix(1.7832,0,0,1.46319,-158.921,-182.831)"><rect x="89.121" y="124.954" width="942.125" height="664.551" style="fill:white;"/></g><g transform="matrix(-1.38146,1.6918e-16,-1.6918e-16,-1.38146,1654.84,1913.38)"><path d="M589.843,738.748L861.771,1028.79L317.914,1028.79L589.843,738.748Z" style="fill:rgb(63,109,170);"/></g><g transform="matrix(1,0,0,0.808656,12.6205,0)"><rect x="614.788" y="0" width="425.184" height="670.025" style="fill:rgb(63,109,170);"/></g><g transform="matrix(5.58101,0,0,5.58101,756.177,530.645)"><path d="M17,23C17,23.552 16.552,24 16,24C15.448,24 15,23.552 15,23C15,22.448 15.448,22 16,22C16.552,22 17,22.448 17,23Z" style="fill:white;fill-rule:nonzero;"/></g><g transform="matrix(5.58101,0,0,5.58101,756.177,530.645)"><path d="M16,9C15.448,9 15,9.448 15,10L15,19C15,19.552 15.448,20 16,20C16.552,20 17,19.552 17,19L17,10C17,9.448 16.552,9 16,9Z" style="fill:white;fill-rule:nonzero;"/></g><g transform="matrix(5.58101,0,0,5.58101,756.177,530.645)"><path d="M13.395,3.514C14.547,1.498 17.453,1.498 18.605,3.514L30.599,24.512C31.742,26.512 30.298,29 27.994,29L4.006,29C1.703,29 0.259,26.512 1.401,24.512L13.395,3.514ZM16.868,4.506C16.485,3.834 15.516,3.834 15.132,4.506L3.138,25.504C2.757,26.171 3.238,27 4.006,27L27.994,27C28.762,27 29.244,26.171 28.863,25.504L16.868,4.506Z" style="fill:white;"/></g><g transform="matrix(1,0,0,1,506.891,35.5197)"><text x="166.47px" y="326.613px" style="font-family:'PTSerif-Italic', 'PT Serif', sans-serif;font-style:italic;font-size:74.667px;fill:white;">Something</text><g transform="matrix(74.6667,0,0,74.6667,477.569,401.28)"/><text x="190.475px" y="401.28px" style="font-family:'PTSerif-Italic', 'PT Serif', sans-serif;font-style:italic;font-size:74.667px;fill:white;">is broken</text></g></g></svg>