<svg width="32" height="32" viewBox="0 0 32 32" fill="none" xmlns="http://www.w3.org/2000/svg"><path d="M12 9C11.4477 9 11 9.44772 11 10C11 10.5523 11.4477 11 12 11H24C24.5523 11 25 10.5523 25 10C25 9.44772 24.5523 9 24 9H12Z" fill="black"/><path d="M11 15C11 14.4477 11.4477 14 12 14H24C24.5523 14 25 14.4477 25 15C25 15.5523 24.5523 16 24 16H12C11.4477 16 11 15.5523 11 15Z" fill="black"/><path d="M12 19C11.4477 19 11 19.4477 11 20C11 20.5523 11.4477 21 12 21H20C20.5523 21 21 20.5523 21 20C21 19.4477 20.5523 19 20 19H12Z" fill="black"/><path fill-rule="evenodd" clip-rule="evenodd" d="M10 3C8.34315 3 7 4.34315 7 6V9.43381L2.4855 12.1425C2.1843 12.3232 2 12.6487 2 13C2 13.3513 2.1843 13.6768 2.4855 13.8575L7 16.5662V26C7 27.6569 8.34315 29 10 29H26C27.6569 29 29 27.6569 29 26V6C29 4.34315 27.6569 3 26 3H10ZM9 6C9 5.44772 9.44772 5 10 5H26C26.5523 5 27 5.44772 27 6V26C27 26.5523 26.5523 27 26 27H10C9.44771 27 9 26.5523 9 26V16C9 15.6487 8.8157 15.3232 8.5145 15.1425L4.94365 13L8.5145 10.8575C8.8157 10.6768 9 10.3513 9 10V6Z" fill="black"/></svg>