<svg xmlns="http://www.w3.org/2000/svg" width="32" height="32" fill="none" viewBox="0 0 32 32"><path fill="#000" d="M4 7.5a5.5 5.5 0 1 1 8.908 4.317 7.525 7.525 0 0 1 2.151 1.649A10.979 10.979 0 0 0 11 22c0 .683.062 1.351.181 2H7a5 5 0 0 1-5-5v-.5a7.5 7.5 0 0 1 4.092-6.683A5.49 5.49 0 0 1 4 7.5Zm22.707 13.207a1 1 0 0 0-1.414-1.414L20.5 24.086l-1.793-1.793a1 1 0 0 0-1.414 1.414l2.5 2.5a1 1 0 0 0 1.414 0l5.5-5.5Z"/><path fill="#000" d="M13 22a9 9 0 1 1 18 0 9 9 0 0 1-18 0Zm9-7a7 7 0 1 0 0 14 7 7 0 0 0 0-14Z"/></svg>