<svg xmlns="http://www.w3.org/2000/svg" width="12" height="12" fill="none" viewBox="0 0 12 12"><path fill="#000" d="M4.758 11H2.5A1.5 1.5 0 0 1 1 9.5v-.75c0-1.43.758-2.705 1.894-3.334a2.5 2.5 0 1 1 3.974-1.11c-.87.338-1.61.94-2.12 1.708A2.266 2.266 0 0 0 4.5 6C3.156 6 2 7.193 2 8.75v.75a.5.5 0 0 0 .5.5h1.756c.126.356.295.691.502 1ZM4.5 2a1.5 1.5 0 1 0 0 3 1.5 1.5 0 0 0 0-3ZM9 7.5a.5.5 0 0 0-1 0v1a.5.5 0 0 0 .5.5h1a.5.5 0 0 0 0-1H9v-.5Z"/><path fill="#000" d="M5 8.5a3.5 3.5 0 1 1 7 0 3.5 3.5 0 0 1-7 0ZM8.5 6a2.5 2.5 0 1 0 0 5 2.5 2.5 0 0 0 0-5Z"/></svg>