<svg width="32" height="32" viewBox="0 0 32 32" fill="none" xmlns="http://www.w3.org/2000/svg"><path fill-rule="evenodd" clip-rule="evenodd" d="M22.965 9.71033C23.3023 9.22515 23.5 8.63566 23.5 8C23.5 6.34315 22.1569 5 20.5 5C18.8431 5 17.5 6.34315 17.5 8C17.5 8.63558 17.6977 9.225 18.0348 9.71015C17.2288 10.3949 16.7968 11.492 17.0404 12.6286L17.7077 15.7428C17.9899 17.0594 19.1534 18 20.4998 18C21.8463 18 23.0098 17.0594 23.2919 15.7428L23.9593 12.6286C24.2028 11.4921 23.7709 10.3951 22.965 9.71033ZM20.5 7C19.9477 7 19.5 7.44772 19.5 8C19.5 8.55228 19.9477 9 20.5 9C21.0523 9 21.5 8.55228 21.5 8C21.5 7.44772 21.0523 7 20.5 7ZM19.9738 11C19.3372 11 18.8626 11.587 18.996 12.2095L19.6633 15.3238C19.7479 15.7182 20.0964 16 20.4998 16C20.9032 16 21.2518 15.7182 21.3363 15.3238L22.0037 12.2095C22.1371 11.587 21.6625 11 21.0259 11H19.9738Z" fill="#ffffff"/><path fill-rule="evenodd" clip-rule="evenodd" d="M14.965 12.7103C15.3023 12.2252 15.5 11.6357 15.5 11C15.5 9.34315 14.1569 8 12.5 8C10.8431 8 9.5 9.34315 9.5 11C9.5 11.6356 9.69765 12.225 10.0348 12.7101C9.22883 13.3949 8.79684 14.492 9.04039 15.6286L9.70773 18.7428C9.98985 20.0594 11.1534 21 12.4998 21C13.8463 21 15.0098 20.0594 15.2919 18.7428L15.9593 15.6286C16.2028 14.4921 15.7709 13.3951 14.965 12.7103ZM12.5 10C11.9477 10 11.5 10.4477 11.5 11C11.5 11.5523 11.9477 12 12.5 12C13.0523 12 13.5 11.5523 13.5 11C13.5 10.4477 13.0523 10 12.5 10ZM11.9738 14C11.3372 14 10.8626 14.587 10.996 15.2095L11.6633 18.3238C11.7479 18.7182 12.0964 19 12.4998 19C12.9032 19 13.2518 18.7182 13.3363 18.3238L14.0037 15.2095C14.1371 14.587 13.6625 14 13.0259 14H11.9738Z" fill="#ffffff"/><path fill-rule="evenodd" clip-rule="evenodd" d="M7.46503 15.7103C7.8023 15.2252 8 14.6357 8 14C8 12.3431 6.65685 11 5 11C3.34315 11 2 12.3431 2 14C2 14.6356 2.19765 15.225 2.53484 15.7101C1.72883 16.3949 1.29684 17.492 1.54039 18.6286L2.20773 21.7428C2.48986 23.0594 3.65336 24 4.99983 24C6.3463 24 7.5098 23.0594 7.79192 21.7428L8.45926 18.6286C8.70279 17.4921 8.2709 16.3951 7.46503 15.7103ZM4 14C4 13.4477 4.44772 13 5 13C5.55228 13 6 13.4477 6 14C6 14.5523 5.55228 15 5 15C4.44772 15 4 14.5523 4 14ZM4.4738 17C3.83716 17 3.3626 17.587 3.496 18.2095L4.16334 21.3238C4.24786 21.7182 4.59644 22 4.99983 22C5.40322 22 5.7518 21.7182 5.83632 21.3238L6.50366 18.2095C6.63705 17.587 6.1625 17 5.52585 17H4.4738Z" fill="#ffffff"/><path d="M25 16C24.4477 16 24 16.4477 24 17C24 17.5523 24.4477 18 25 18H26.9649C24.0442 22.1999 20.8059 24.6451 17.2296 26.0713C13.3357 27.624 8.96626 28.0001 4 28.0001C3.44772 28.0001 3 28.4478 3 29.0001C3 29.5524 3.44772 30.0001 4 30.0001C9.03374 30.0001 13.7143 29.6262 17.9704 27.929C21.6887 26.4463 25.0265 23.9773 28 19.9852V21C28 21.5523 28.4477 22 29 22C29.5523 22 30 21.5523 30 21V17C30 16.4477 29.5523 16 29 16H25Z" fill="#ffffff"/></svg>