<svg width="32" height="32" viewBox="0 0 32 32" fill="none" xmlns="http://www.w3.org/2000/svg"><path fill-rule="evenodd" clip-rule="evenodd" d="M24.0251 3.02513C25.392 1.65829 27.6081 1.65829 28.9749 3.02513C30.3417 4.39196 30.3417 6.60804 28.9749 7.97487L13.9749 22.9749C13.8642 23.0856 13.7289 23.1688 13.5802 23.2177L8.31241 24.95C7.95398 25.0678 7.55972 24.9739 7.29292 24.7071C7.02612 24.4403 6.9322 24.0461 7.05007 23.6876L8.7823 18.4199C8.83122 18.2711 8.91441 18.1359 9.02515 18.0251L24.0251 3.02513ZM27.5607 4.43934C26.9749 3.85355 26.0251 3.85355 25.4394 4.43934L24.1465 5.73221L26.2678 7.85353L27.5607 6.56066C28.1465 5.97487 28.1465 5.02513 27.5607 4.43934ZM24.8536 9.26775L22.7323 7.14643L10.6078 19.2709L9.56846 22.4316L12.7291 21.3922L24.8536 9.26775Z" fill="black"/><path d="M5 8C4.44771 8 4 8.44772 4 9V27C4 27.5523 4.44772 28 5 28H23C23.5523 28 24 27.5523 24 27V16C24 15.4477 24.4477 15 25 15C25.5523 15 26 15.4477 26 16V27C26 28.6569 24.6569 30 23 30H5C3.34314 30 2 28.6569 2 27V9C2 7.34314 3.34315 6 5 6H16C16.5523 6 17 6.44772 17 7C17 7.55228 16.5523 8 16 8H5Z" fill="black"/></svg>