<?xml version="1.0" encoding="UTF-8" standalone="no"?><!DOCTYPE svg PUBLIC "-//W3C//DTD SVG 1.1//EN" "http://www.w3.org/Graphics/SVG/1.1/DTD/svg11.dtd"><svg width="100%" height="100%" viewBox="0 0 31 31" version="1.1" xmlns="http://www.w3.org/2000/svg" xmlns:xlink="http://www.w3.org/1999/xlink" xml:space="preserve" xmlns:serif="http://www.serif.com/" style="fill-rule:evenodd;clip-rule:evenodd;stroke-linejoin:round;stroke-miterlimit:2;"><g transform="matrix(1,0,0,1,-72431.9,-33080.6)"><g transform="matrix(1,0,0,1,-1706.77,-0.465929)"><g transform="matrix(1,0,0,1,1673.48,2.40265)"><rect x="72465.2" y="33078.7" width="30.616" height="30.616" style="fill:rgb(14,48,82);fill-opacity:0;"/></g></g><g transform="matrix(1,0,0,1,-1706.77,-0.465929)"><g transform="matrix(1,0,0,1,74134.7,33084.4)"><path d="M10,5C9.448,5 9,5.448 9,6C9,6.552 9.448,7 10,7L14,7C14.552,7 15,6.552 15,6C15,5.448 14.552,5 14,5L10,5Z" style="fill:rgb(14,48,82);fill-rule:nonzero;"/></g><g transform="matrix(1,0,0,1,74134.7,33084.4)"><path d="M14.378,12.829C14.768,12.323 15,11.689 15,11C15,9.343 13.657,8 12,8C10.343,8 9,9.343 9,11C9,11.689 9.232,12.323 9.622,12.829C8.625,13.616 8,14.88 8,16.25C8,17.769 9.231,19 10.75,19L13.25,19C14.769,19 16,17.769 16,16.25C16,14.88 15.375,13.616 14.378,12.829ZM12,10C11.448,10 11,10.448 11,11C11,11.552 11.448,12 12,12C12.552,12 13,11.552 13,11C13,10.448 12.552,10 12,10ZM12,14C10.969,14 10,14.93 10,16.25C10,16.664 10.336,17 10.75,17L13.25,17C13.664,17 14,16.664 14,16.25C14,14.93 13.031,14 12,14Z" style="fill:rgb(14,48,82);"/></g><g transform="matrix(1,0,0,1,74134.7,33084.4)"><path d="M7,2C5.343,2 4,3.343 4,5L4,19C4,20.657 5.343,22 7,22L17,22C18.657,22 20,20.657 20,19L20,5C20,3.343 18.657,2 17,2L7,2ZM6,5C6,4.448 6.448,4 7,4L17,4C17.552,4 18,4.448 18,5L18,19C18,19.552 17.552,20 17,20L7,20C6.448,20 6,19.552 6,19L6,5Z" style="fill:rgb(14,48,82);"/></g></g></g></svg>