<svg width="261" height="266" xmlns="http://www.w3.org/2000/svg" xmlns:xlink="http://www.w3.org/1999/xlink" xml:space="preserve" overflow="hidden"><g transform="translate(-2264 -114)"><g><path d="M2265 248C2265 176.203 2323.2 118 2395 118 2466.8 118 2525 176.203 2525 248 2525 319.797 2466.8 378 2395 378 2323.2 378 2265 319.797 2265 248Z" fill="#3F6DAA" fill-rule="evenodd" fill-opacity="1"/><g><g><g><path d="M2388.62 198.6C2400.04 187.184 2418.56 187.184 2429.98 198.6 2441.39 210.016 2441.39 228.541 2429.98 239.956L2396.67 273.269C2389.68 280.256 2378.36 280.256 2371.38 273.269 2364.39 266.281 2364.39 254.967 2371.38 247.98L2402.41 216.983C2404.95 214.444 2409.08 214.444 2411.62 216.983 2414.15 219.522 2414.15 223.645 2411.62 226.184L2380.58 257.202C2378.67 259.111 2378.67 262.198 2380.58 264.088 2382.49 265.977 2385.57 265.997 2387.46 264.088L2420.78 230.775C2427.11 224.437 2427.11 214.139 2420.78 207.801 2414.44 201.464 2404.14 201.464 2397.8 207.801L2364.49 241.114C2353.7 251.9 2353.7 269.389 2364.49 280.175 2375.28 290.961 2392.77 290.961 2403.55 280.175L2430 253.748C2432.54 251.209 2436.66 251.209 2439.2 253.748 2441.74 256.288 2441.74 260.411 2439.2 262.95L2412.75 289.356C2396.89 305.22 2371.17 305.22 2355.31 289.356 2339.45 273.492 2339.45 247.777 2355.31 231.912L2388.62 198.6Z" fill="#FFFFFF" fill-rule="nonzero" fill-opacity="1"/></g></g></g></g></g></svg>