<svg width="32" height="32" viewBox="0 0 32 32" fill="none" xmlns="http://www.w3.org/2000/svg">
<path fill-rule="evenodd" clip-rule="evenodd" d="M9.5 4C5.57557 4 3.42491 5.66087 2.29289 6.79289C2.10536 6.98043 2 7.23478 2 7.5V26C2 26.4045 2.24364 26.7691 2.61732 26.9239C2.99099 27.0787 3.42111 26.9931 3.70711 26.7071C4.47159 25.9426 6.09879 25 9.5 25C12.9012 25 14.5284 25.9426 15.2929 26.7071C15.6834 27.0976 16.3166 27.0976 16.7071 26.7071C17.4716 25.9426 19.0988 25 22.5 25C25.9012 25 27.5284 25.9426 28.2929 26.7071C28.5789 26.9931 29.009 27.0787 29.3827 26.9239C29.7564 26.7691 30 26.4045 30 26V7.5C30 7.23478 29.8946 6.98043 29.7071 6.79289C28.5751 5.66087 26.4244 4 22.5 4C19.2754 4 17.2484 5.12131 16 6.14922C14.7516 5.12131 12.7246 4 9.5 4ZM4 24.0832V7.92741C4.93388 7.07877 6.57826 6 9.5 6C12.4217 6 14.0661 7.07877 15 7.92741V24.0832C13.7136 23.4396 11.9364 23 9.5 23C7.0636 23 5.28637 23.4396 4 24.0832ZM17 24.0832C18.2864 23.4396 20.0636 23 22.5 23C24.9364 23 26.7136 23.4396 28 24.0832V7.92741C27.0661 7.07877 25.4217 6 22.5 6C19.5783 6 17.9339 7.07877 17 7.92741V24.0832Z" fill="black"/>
</svg>
