<svg width="266" height="266" xmlns="http://www.w3.org/2000/svg" xmlns:xlink="http://www.w3.org/1999/xlink" xml:space="preserve" overflow="hidden"><g transform="translate(-96 -114)"><g><path d="M99 248C99 176.203 156.979 118 228.5 118 300.021 118 358 176.203 358 248 358 319.797 300.021 378 228.5 378 156.979 378 99 319.797 99 248Z" fill="#3F6DAA" fill-rule="evenodd" fill-opacity="1"/><g><g><g><path d="M119.167 27.0833 119.167 102.917 70.4166 102.917 70.4166 27.0833 119.167 27.0833ZM59.5833 92.0833 59.5833 102.917 10.8333 102.917 10.8333 92.0833 59.5833 92.0833ZM59.5833 70.4166 59.5833 81.25 10.8333 81.25 10.8333 70.4166 59.5833 70.4166ZM59.5833 48.75 59.5833 59.5833 10.8333 59.5833 10.8333 48.75 59.5833 48.75ZM59.5833 27.0833 59.5833 37.9166 10.8333 37.9166 10.8333 27.0833 59.5833 27.0833Z" fill="#FFFFFF" fill-rule="nonzero" fill-opacity="1" transform="matrix(1 0 0 1 163 183)"/></g></g></g></g></g></svg>