<svg width="266" height="266" xmlns="http://www.w3.org/2000/svg" xmlns:xlink="http://www.w3.org/1999/xlink" xml:space="preserve" overflow="hidden"><g transform="translate(-1191 -114)"><g><path d="M1195 248C1195 176.203 1253.2 118 1325 118 1396.8 118 1455 176.203 1455 248 1455 319.797 1396.8 378 1325 378 1253.2 378 1195 319.797 1195 248Z" fill="#3F6DAA" fill-rule="evenodd" fill-opacity="1"/><g><g><g><path d="M1276.25 195.187C1274.71 195.187 1273.3 196.057 1272.62 197.433 1271.93 198.809 1272.08 200.456 1273 201.687L1308.75 249.354 1308.75 296.75C1308.75 298.109 1309.43 299.377 1310.56 300.131 1311.69 300.884 1313.12 301.023 1314.37 300.5L1338.75 290.344C1340.26 289.713 1341.25 288.234 1341.25 286.594L1341.25 249.354 1377 201.687C1377.92 200.456 1378.07 198.809 1377.38 197.433 1376.7 196.057 1375.29 195.187 1373.75 195.187L1276.25 195.187Z" fill="#FFFFFF" fill-rule="nonzero" fill-opacity="1"/></g></g></g></g></g></svg>