<svg width="266" height="266" xmlns="http://www.w3.org/2000/svg" xmlns:xlink="http://www.w3.org/1999/xlink" xml:space="preserve" overflow="hidden"><g transform="translate(-1879 -114)"><g><path d="M1883 248C1883 176.203 1940.98 118 2012.5 118 2084.02 118 2142 176.203 2142 248 2142 319.797 2084.02 378 2012.5 378 1940.98 378 1883 319.797 1883 248Z" fill="#3F6DAA" fill-rule="evenodd" fill-opacity="1"/><g><g><g><path d="M40.3125 64.5C40.3125 71.1793 34.8979 76.5937 28.2187 76.5937 21.5396 76.5937 16.125 71.1793 16.125 64.5 16.125 57.8206 21.5396 52.4062 28.2187 52.4062 34.8979 52.4062 40.3125 57.8206 40.3125 64.5Z" fill="#FFFFFF" fill-rule="nonzero" fill-opacity="1" transform="matrix(1 0 0 1.00775 1948 183)"/><path d="M76.5937 64.5C76.5937 71.1793 71.1793 76.5937 64.5 76.5937 57.8206 76.5937 52.4062 71.1793 52.4062 64.5 52.4062 57.8206 57.8206 52.4062 64.5 52.4062 71.1793 52.4062 76.5937 57.8206 76.5937 64.5Z" fill="#FFFFFF" fill-rule="nonzero" fill-opacity="1" transform="matrix(1 0 0 1.00775 1948 183)"/><path d="M100.781 76.5937C107.461 76.5937 112.875 71.1793 112.875 64.5 112.875 57.8206 107.461 52.4062 100.781 52.4062 94.1018 52.4062 88.6874 57.8206 88.6874 64.5 88.6874 71.1793 94.1018 76.5937 100.781 76.5937Z" fill="#FFFFFF" fill-rule="nonzero" fill-opacity="1" transform="matrix(1 0 0 1.00775 1948 183)"/></g></g></g></g></g></svg>