<svg width="266" height="266" xmlns="http://www.w3.org/2000/svg" xmlns:xlink="http://www.w3.org/1999/xlink" xml:space="preserve" overflow="hidden"><g transform="translate(-792 -114)"><g><path d="M795 248C795 176.203 853.203 118 925 118 996.797 118 1055 176.203 1055 248 1055 319.797 996.797 378 925 378 853.203 378 795 319.797 795 248Z" fill="#3F6DAA" fill-rule="evenodd" fill-opacity="1"/><g><g><g><path d="M119.167 92.0833 119.167 102.917 10.8333 102.917 10.8333 92.0833 119.167 92.0833ZM119.167 70.4166 119.167 81.25 10.8333 81.25 10.8333 70.4166 119.167 70.4166ZM119.167 48.75 119.167 59.5833 10.8333 59.5833 10.8333 48.75 119.167 48.75ZM119.167 27.0833 119.167 37.9166 10.8333 37.9166 10.8333 27.0833 119.167 27.0833Z" fill="#FFFFFF" fill-rule="nonzero" fill-opacity="1" transform="matrix(1 0 0 1 860 183)"/></g></g></g></g></g></svg>