<svg width="261" height="266" xmlns="http://www.w3.org/2000/svg" xmlns:xlink="http://www.w3.org/1999/xlink" xml:space="preserve" overflow="hidden"><defs><clipPath id="clip0"><rect x="3318" y="114" width="261" height="266"/></clipPath><clipPath id="clip1"><rect x="3318" y="114" width="261" height="266"/></clipPath></defs><g clip-path="url(#clip0)" transform="translate(-3318 -114)"><g clip-path="url(#clip1)"><path d="M3319 248C3319 176.203 3377.2 118 3449 118 3520.8 118 3579 176.203 3579 248 3579 319.797 3520.8 378 3449 378 3377.2 378 3319 319.797 3319 248Z" fill="#3F6DAA" fill-rule="evenodd" fill-opacity="1"/><g><g><g><path d="M3389.42 248C3389.42 215.093 3416.09 188.417 3449 188.417 3481.91 188.417 3508.58 215.093 3508.58 248 3508.58 280.907 3481.91 307.583 3449 307.583 3416.09 307.583 3389.42 280.907 3389.42 248ZM3470.09 218.494C3469.16 216.619 3467.22 215.454 3465.13 215.501 3463.03 215.549 3461.15 216.801 3460.3 218.717L3443.3 256.978 3432.18 234.744C3431.31 233.017 3429.6 231.88 3427.67 231.76 3425.74 231.64 3423.9 232.555 3422.83 234.162L3413.6 248 3405.67 248C3402.68 248 3400.25 250.425 3400.25 253.417 3400.25 256.408 3402.68 258.833 3405.67 258.833L3416.5 258.833C3418.31 258.833 3420 257.928 3421.01 256.421L3426.66 247.938 3438.74 272.089C3439.68 273.964 3441.61 275.129 3443.71 275.082 3445.8 275.035 3447.68 273.782 3448.53 271.866L3465.54 233.605 3476.66 255.839C3477.57 257.674 3479.45 258.833 3481.5 258.833L3492.33 258.833C3495.32 258.833 3497.75 256.408 3497.75 253.417 3497.75 250.425 3495.32 248 3492.33 248L3484.85 248 3470.09 218.494Z" fill="#FFFFFF" fill-rule="evenodd" fill-opacity="1"/></g></g></g></g></g></svg>