<svg width="225" height="220" xmlns="http://www.w3.org/2000/svg" xmlns:xlink="http://www.w3.org/1999/xlink" xml:space="preserve" overflow="hidden"><g transform="translate(-916 -270)"><g><path d="M921 380.5C921 320.577 969.577 272 1029.5 272 1089.42 272 1138 320.577 1138 380.5 1138 440.423 1089.42 489 1029.5 489 969.577 489 921 440.423 921 380.5Z" fill="#3F6DAA" fill-rule="evenodd" fill-opacity="1"/><g><g><g><path d="M1003.16 361.222C1005.91 348.934 1016.88 339.75 1030 339.75 1043.12 339.75 1054.09 348.934 1056.84 361.222 1053.18 362.808 1050.62 366.449 1050.62 370.687L1050.62 394.75C1050.62 399.225 1053.48 403.035 1057.46 404.461 1056.91 412.223 1050.62 418.401 1042.82 418.793 1041.63 416.749 1039.41 415.375 1036.87 415.375 1033.08 415.375 1030 418.453 1030 422.25 1030 426.047 1033.08 429.125 1036.87 429.125 1039.43 429.125 1041.65 427.736 1042.84 425.673 1054.42 425.261 1063.77 416.028 1064.35 404.486 1067.31 403.449 1069.65 401.102 1070.68 398.14 1070.87 398.171 1071.06 398.187 1071.25 398.187 1073.15 398.187 1074.69 396.648 1074.69 394.75L1074.69 374.125C1074.69 372.226 1073.15 370.687 1071.25 370.687 1071.25 365.972 1068.09 361.996 1063.76 360.767 1060.73 344.882 1046.77 332.875 1030 332.875 1013.23 332.875 999.267 344.882 996.235 360.767 991.914 361.996 988.75 365.972 988.75 370.687 986.851 370.687 985.312 372.226 985.312 374.125L985.312 394.75C985.312 396.648 986.851 398.187 988.75 398.187 988.944 398.187 989.135 398.171 989.32 398.14 990.722 402.17 994.555 405.062 999.062 405.062 1004.76 405.062 1009.37 400.445 1009.37 394.75L1009.37 370.687C1009.37 366.449 1006.82 362.808 1003.16 361.222ZM999.062 367.25C997.164 367.25 995.625 368.789 995.625 370.687L995.625 394.75C995.625 396.648 997.164 398.187 999.062 398.187 1000.96 398.187 1002.5 396.648 1002.5 394.75L1002.5 370.687C1002.5 368.789 1000.96 367.25 999.062 367.25ZM1060.94 367.25C1059.04 367.25 1057.5 368.789 1057.5 370.687L1057.5 394.75C1057.5 396.648 1059.04 398.187 1060.94 398.187 1062.84 398.187 1064.37 396.648 1064.37 394.75L1064.37 370.687C1064.37 368.789 1062.84 367.25 1060.94 367.25Z" fill="#FFFFFF" fill-rule="evenodd" fill-opacity="1"/></g></g></g></g></g></svg>