<svg width="224" height="220" xmlns="http://www.w3.org/2000/svg" xmlns:xlink="http://www.w3.org/1999/xlink" xml:space="preserve" overflow="hidden"><g transform="translate(-1682 -664)"><g><path d="M1686 773.5C1686 713.577 1734.58 665 1794.5 665 1854.42 665 1903 713.577 1903 773.5 1903 833.423 1854.42 882 1794.5 882 1734.58 882 1686 833.423 1686 773.5Z" fill="#C5CFDB" fill-rule="evenodd" fill-opacity="1"/><g><g><g><path d="M1770.94 752.375C1770.94 750.477 1772.48 748.938 1774.38 748.938L1829.38 748.938C1831.27 748.938 1832.81 750.477 1832.81 752.375 1832.81 754.274 1831.27 755.813 1829.38 755.813L1774.38 755.813C1772.48 755.813 1770.94 754.274 1770.94 752.375Z" fill="#0E3052" fill-rule="nonzero" fill-opacity="1"/><path d="M1774.38 769.563C1772.48 769.563 1770.94 771.102 1770.94 773 1770.94 774.899 1772.48 776.438 1774.38 776.438L1829.38 776.438C1831.27 776.438 1832.81 774.899 1832.81 773 1832.81 771.102 1831.27 769.563 1829.38 769.563L1774.38 769.563Z" fill="#0E3052" fill-rule="nonzero" fill-opacity="1"/><path d="M1774.38 790.188C1772.48 790.188 1770.94 791.727 1770.94 793.625 1770.94 795.524 1772.48 797.063 1774.38 797.063L1829.38 797.063C1831.27 797.063 1832.81 795.524 1832.81 793.625 1832.81 791.727 1831.27 790.188 1829.38 790.188L1774.38 790.188Z" fill="#0E3052" fill-rule="nonzero" fill-opacity="1"/><path d="M1760.63 797.063C1762.52 797.063 1764.06 795.524 1764.06 793.625 1764.06 791.727 1762.52 790.188 1760.63 790.188 1758.73 790.188 1757.19 791.727 1757.19 793.625 1757.19 795.524 1758.73 797.063 1760.63 797.063Z" fill="#0E3052" fill-rule="nonzero" fill-opacity="1"/><path d="M1764.06 773C1764.06 774.899 1762.52 776.438 1760.63 776.438 1758.73 776.438 1757.19 774.899 1757.19 773 1757.19 771.102 1758.73 769.563 1760.63 769.563 1762.52 769.563 1764.06 771.102 1764.06 773Z" fill="#0E3052" fill-rule="nonzero" fill-opacity="1"/><path d="M1760.63 755.813C1762.52 755.813 1764.06 754.274 1764.06 752.375 1764.06 750.477 1762.52 748.938 1760.63 748.938 1758.73 748.938 1757.19 750.477 1757.19 752.375 1757.19 754.274 1758.73 755.813 1760.63 755.813Z" fill="#0E3052" fill-rule="nonzero" fill-opacity="1"/></g></g></g></g></g></svg>