<svg width="225" height="220" xmlns="http://www.w3.org/2000/svg" xmlns:xlink="http://www.w3.org/1999/xlink" xml:space="preserve" overflow="hidden"><g transform="translate(-563 -673)"><g><path d="M568 782.5C568 722.577 616.577 674 676.5 674 736.423 674 785 722.577 785 782.5 785 842.423 736.423 891 676.5 891 616.577 891 568 842.423 568 782.5Z" fill="#0E3052" fill-rule="evenodd" fill-opacity="1"/><g><g><g><path d="M682.013 727.242C678.089 724.007 672.393 724.115 668.595 727.497L632.33 759.788C630.132 761.745 628.875 764.547 628.875 767.49L628.875 810.812C628.875 816.508 633.492 821.125 639.187 821.125L656.375 821.125C662.07 821.125 666.687 816.508 666.687 810.812L666.687 790.187C666.687 788.289 668.226 786.75 670.125 786.75L683.875 786.75C685.773 786.75 687.312 788.289 687.312 790.187L687.312 810.812C687.312 816.508 691.929 821.125 697.625 821.125L714.812 821.125C720.508 821.125 725.125 816.508 725.125 810.812L725.125 767.648C725.125 764.569 723.748 761.65 721.372 759.691L682.013 727.242Z" fill="#FFFFFF" fill-rule="nonzero" fill-opacity="1"/></g></g></g></g></g></svg>