<?xml version="1.0" encoding="UTF-8" standalone="no"?><!DOCTYPE svg PUBLIC "-//W3C//DTD SVG 1.1//EN" "http://www.w3.org/Graphics/SVG/1.1/DTD/svg11.dtd"><svg width="100%" height="100%" viewBox="0 0 200 200" version="1.1" xmlns="http://www.w3.org/2000/svg" xmlns:xlink="http://www.w3.org/1999/xlink" xml:space="preserve" xmlns:serif="http://www.serif.com/" style="fill-rule:evenodd;clip-rule:evenodd;stroke-linejoin:round;stroke-miterlimit:2;"><g transform="matrix(1,0,0,1,-75199.4,-32148.5)"><g transform="matrix(1,0,0,1,-0.19063,-0.465929)"><g transform="matrix(2.00733,0,0,2.00733,-74738.4,-32495.2)"><circle cx="74745.1" cy="32253.9" r="49.817" style="fill:rgb(63,109,170);"/></g></g><g transform="matrix(1,0,0,1,-0.19063,-0.465929)"><g transform="matrix(4.99943,0,0,4.99943,-294559,-132260)"><g transform="matrix(1,0,0,1,73968.2,32893.6)"><path d="M3,2C2.448,2 2,2.448 2,3C2,3.552 2.448,4 3,4L3.306,4C3.795,4 4.212,4.353 4.292,4.836L4.512,6.153L5.265,11.424C5.343,11.97 5.564,12.464 5.888,12.869C5.34,13.413 5,14.167 5,15C5,16.657 6.343,18 8,18L18.5,18C19.052,18 19.5,17.552 19.5,17C19.5,16.448 19.052,16 18.5,16L8,16C7.448,16 7,15.552 7,15C7,14.448 7.448,14 8,14L18.04,14C19.345,14 20.5,13.157 20.897,11.914L21.857,8.914C22.477,6.979 21.033,5 19,5L6.347,5L6.265,4.507C6.024,3.06 4.772,2 3.306,2L3,2Z" style="fill:white;fill-rule:nonzero;"/></g><g transform="matrix(1,0,0,1,73968.2,32893.6)"><path d="M12,20.5C12,21.328 11.328,22 10.5,22C9.672,22 9,21.328 9,20.5C9,19.672 9.672,19 10.5,19C11.328,19 12,19.672 12,20.5Z" style="fill:white;fill-rule:nonzero;"/></g><g transform="matrix(1,0,0,1,73968.2,32893.6)"><path d="M19,20.5C19,21.328 18.328,22 17.5,22C16.672,22 16,21.328 16,20.5C16,19.672 16.672,19 17.5,19C18.328,19 19,19.672 19,20.5Z" style="fill:white;fill-rule:nonzero;"/></g></g></g></g></svg>