<svg width="220" height="220" xmlns="http://www.w3.org/2000/svg" xmlns:xlink="http://www.w3.org/1999/xlink" xml:space="preserve" overflow="hidden"><g transform="translate(-2291 -664)"><g><path d="M2294 774.5C2294 714.577 2342.58 666 2402.5 666 2462.42 666 2511 714.577 2511 774.5 2511 834.423 2462.42 883 2402.5 883 2342.58 883 2294 834.423 2294 774.5Z" fill="#C5CFDB" fill-rule="evenodd" fill-opacity="1"/><path d="M2402 788.167C2409.73 788.167 2416 782.048 2416 774.5 2416 766.952 2409.73 760.833 2402 760.833 2394.27 760.833 2388 766.952 2388 774.5 2388 782.048 2394.27 788.167 2402 788.167ZM2402 795C2413.6 795 2423 785.822 2423 774.5 2423 763.178 2413.6 754 2402 754 2390.4 754 2381 763.178 2381 774.5 2381 785.822 2390.4 795 2402 795Z" fill="#0E3052" fill-rule="evenodd" fill-opacity="1"/><path d="M2395.14 726C2391.36 726 2388.29 729.102 2388.29 732.929L2388.29 735.206C2388.28 735.209 2388.28 735.221 2388.27 735.24 2388.24 735.281 2388.18 735.334 2388.09 735.367 2386.85 735.817 2385.63 736.326 2384.45 736.889 2384.37 736.93 2384.29 736.935 2384.24 736.928 2384.21 736.924 2384.2 736.919 2384.2 736.918L2382.6 735.306C2379.93 732.6 2375.59 732.6 2372.91 735.306L2363.21 745.105C2360.53 747.81 2360.53 752.197 2363.21 754.903L2364.81 756.514C2364.81 756.518 2364.81 756.529 2364.82 756.553 2364.82 756.604 2364.82 756.684 2364.78 756.77 2364.22 757.963 2363.72 759.188 2363.27 760.441 2363.24 760.531 2363.19 760.592 2363.14 760.623 2363.13 760.637 2363.11 760.642 2363.11 760.643L2360.86 760.643C2357.07 760.643 2354 763.745 2354 767.571L2354 781.429C2354 785.255 2357.07 788.357 2360.86 788.357L2363.11 788.357C2363.11 788.358 2363.13 788.363 2363.14 788.377 2363.19 788.408 2363.24 788.469 2363.27 788.559 2363.72 789.812 2364.22 791.036 2364.78 792.229 2364.82 792.316 2364.82 792.396 2364.82 792.447 2364.81 792.471 2364.81 792.482 2364.81 792.485L2364.81 792.486 2363.21 794.097C2360.53 796.803 2360.53 801.19 2363.21 803.895L2372.91 813.694C2375.59 816.399 2379.93 816.399 2382.6 813.694L2384.2 812.082C2384.2 812.081 2384.21 812.076 2384.24 812.072 2384.29 812.064 2384.37 812.07 2384.45 812.111 2385.63 812.674 2386.85 813.183 2388.09 813.633 2388.18 813.665 2388.24 813.719 2388.27 813.76 2388.28 813.779 2388.28 813.791 2388.29 813.794L2388.29 816.071C2388.29 819.898 2391.36 823 2395.14 823L2408.86 823C2412.64 823 2415.71 819.898 2415.71 816.071L2415.71 813.794C2415.72 813.791 2415.72 813.779 2415.73 813.76 2415.76 813.719 2415.82 813.665 2415.91 813.633 2416.95 813.255 2417.98 812.837 2418.97 812.378 2417.64 810.52 2416.66 808.383 2416.14 806.07 2415.31 806.45 2414.46 806.798 2413.6 807.112 2410.92 808.083 2408.86 810.645 2408.86 813.793L2408.86 816.071 2395.14 816.071 2395.14 813.793C2395.14 810.645 2393.08 808.083 2390.4 807.112 2389.37 806.738 2388.36 806.315 2387.38 805.845 2384.81 804.619 2381.56 804.955 2379.35 807.182L2377.76 808.795 2368.06 798.996 2369.65 797.384C2371.86 795.157 2372.19 791.869 2370.98 789.271 2370.51 788.278 2370.09 787.259 2369.72 786.216 2368.76 783.515 2366.23 781.429 2363.11 781.429L2360.86 781.429 2360.86 767.571 2363.11 767.571C2366.23 767.571 2368.76 765.485 2369.72 762.784 2370.09 761.741 2370.51 760.722 2370.98 759.728 2372.19 757.131 2371.86 753.843 2369.65 751.616L2368.06 750.004 2377.76 740.205 2379.35 741.818C2381.56 744.044 2384.81 744.381 2387.38 743.154 2388.36 742.685 2389.37 742.262 2390.4 741.887 2393.08 740.917 2395.14 738.355 2395.14 735.207L2395.14 732.929 2408.86 732.929 2408.86 735.207C2408.86 738.355 2410.92 740.917 2413.6 741.887 2414.63 742.262 2415.64 742.685 2416.62 743.154 2419.19 744.381 2422.44 744.044 2424.65 741.818L2426.24 740.205 2435.94 750.004 2434.35 751.616C2432.14 753.843 2431.81 757.131 2433.02 759.728 2433.49 760.722 2433.91 761.741 2434.28 762.784 2435.24 765.485 2437.77 767.571 2440.89 767.571L2443.14 767.571 2443.14 781.429 2440.89 781.429C2438.26 781.429 2436.04 782.917 2434.83 785.007 2437.93 785.366 2440.78 786.559 2443.14 788.357 2446.93 788.356 2450 785.254 2450 781.429L2450 767.571C2450 763.745 2446.93 760.643 2443.14 760.643L2440.89 760.643C2440.89 760.642 2440.87 760.637 2440.86 760.623 2440.81 760.592 2440.76 760.531 2440.73 760.441 2440.28 759.188 2439.78 757.963 2439.22 756.77 2439.18 756.684 2439.18 756.604 2439.18 756.553 2439.19 756.539 2439.19 756.53 2439.19 756.523 2439.19 756.518 2439.19 756.516 2439.19 756.514L2440.79 754.903C2443.47 752.197 2443.47 747.81 2440.79 745.105L2431.09 735.306C2428.41 732.6 2424.07 732.6 2421.4 735.306L2419.8 736.918 2419.8 736.918C2419.8 736.919 2419.79 736.924 2419.76 736.928 2419.71 736.935 2419.63 736.93 2419.55 736.889 2418.37 736.326 2417.15 735.817 2415.91 735.367 2415.82 735.334 2415.76 735.281 2415.73 735.24 2415.72 735.221 2415.72 735.209 2415.71 735.206L2415.71 732.929C2415.71 729.102 2412.64 726 2408.86 726L2395.14 726Z" fill="#0E3052" fill-rule="evenodd" fill-opacity="1"/><path d="M2443 802C2443 807.523 2438.52 812 2433 812 2427.48 812 2423 807.523 2423 802 2423 796.477 2427.48 792 2433 792 2438.52 792 2443 796.477 2443 802Z" fill="#3F6DAA" fill-rule="evenodd" fill-opacity="1"/></g></g></svg>