<?xml version="1.0" encoding="UTF-8" standalone="no"?><!DOCTYPE svg PUBLIC "-//W3C//DTD SVG 1.1//EN" "http://www.w3.org/Graphics/SVG/1.1/DTD/svg11.dtd"><svg width="100%" height="100%" viewBox="0 0 31 31" version="1.1" xmlns="http://www.w3.org/2000/svg" xmlns:xlink="http://www.w3.org/1999/xlink" xml:space="preserve" xmlns:serif="http://www.serif.com/" style="fill-rule:evenodd;clip-rule:evenodd;stroke-linejoin:round;stroke-miterlimit:2;"><g transform="matrix(1,0,0,1,-72465.2,-33080.6)"><g transform="matrix(1,0,0,1,-1706.77,-0.465929)"><g transform="matrix(1,0,0,1,1706.77,2.40265)"><rect x="72465.2" y="33078.7" width="30.616" height="30.616" style="fill:rgb(14,48,82);fill-opacity:0;"/></g></g><g transform="matrix(1,0,0,1,-1706.77,-0.465929)"><g transform="matrix(1,0,0,1,74171,33084.4)"><path d="M15,7C14.448,7 14,7.448 14,8C14,8.552 14.448,9 15,9L19,9C19.552,9 20,8.552 20,8C20,7.448 19.552,7 19,7L15,7Z" style="fill:white;fill-rule:nonzero;"/></g><g transform="matrix(1,0,0,1,74171,33084.4)"><path d="M15,11C14.448,11 14,11.448 14,12C14,12.552 14.448,13 15,13L19,13C19.552,13 20,12.552 20,12C20,11.448 19.552,11 19,11L15,11Z" style="fill:white;fill-rule:nonzero;"/></g><g transform="matrix(1,0,0,1,74171,33084.4)"><path d="M15,15C14.448,15 14,15.448 14,16C14,16.552 14.448,17 15,17L19,17C19.552,17 20,16.552 20,16C20,15.448 19.552,15 19,15L15,15Z" style="fill:white;fill-rule:nonzero;"/></g><g transform="matrix(1,0,0,1,74171,33084.4)"><path d="M10.405,10.794C10.778,10.294 11,9.673 11,9C11,7.343 9.657,6 8,6C6.343,6 5,7.343 5,9C5,9.673 5.221,10.294 5.595,10.794C4.634,11.507 4,12.641 4,13.95C4,15.634 5.366,17 7.05,17L8.95,17C10.634,17 12,15.634 12,13.95C12,12.641 11.366,11.507 10.405,10.794ZM8,8C7.448,8 7,8.448 7,9C7,9.552 7.448,10 8,10C8.552,10 9,9.552 9,9C9,8.448 8.552,8 8,8ZM10,13.95C10,14.53 9.53,15 8.95,15L7.05,15C6.47,15 6,14.53 6,13.95C6,12.873 6.895,12 8,12C9.105,12 10,12.873 10,13.95Z" style="fill:white;"/></g><g transform="matrix(1,0,0,1,74171,33084.4)"><path d="M4,3C2.343,3 1,4.343 1,6L1,18C1,19.657 2.343,21 4,21L20,21C21.657,21 23,19.657 23,18L23,6C23,4.343 21.657,3 20,3L4,3ZM3,6C3,5.448 3.448,5 4,5L20,5C20.552,5 21,5.448 21,6L21,18C21,18.552 20.552,19 20,19L4,19C3.448,19 3,18.552 3,18L3,6Z" style="fill:white;"/></g></g></g></svg>