<?xml version="1.0" encoding="UTF-8" standalone="no"?><!DOCTYPE svg PUBLIC "-//W3C//DTD SVG 1.1//EN" "http://www.w3.org/Graphics/SVG/1.1/DTD/svg11.dtd"><svg width="100%" height="100%" viewBox="0 0 200 200" version="1.1" xmlns="http://www.w3.org/2000/svg" xmlns:xlink="http://www.w3.org/1999/xlink" xml:space="preserve" xmlns:serif="http://www.serif.com/" style="fill-rule:evenodd;clip-rule:evenodd;stroke-linejoin:round;stroke-miterlimit:2;"><g transform="matrix(1,0,0,1,-74908.5,-32148.5)"><g transform="matrix(1,0,0,1,-0.19063,-0.465929)"><g transform="matrix(2.00733,0,0,2.00733,-75029.3,-32495.2)"><circle cx="74745.1" cy="32253.9" r="49.817" style="fill:rgb(63,109,170);"/></g></g><g transform="matrix(1,0,0,1,-0.19063,-0.465929)"><g transform="matrix(3.57307,0,0,3.57307,74951.6,32191.8)"><path d="M2,8C2,6.343 3.343,5 5,5L9.672,5C10.467,5 11.23,5.316 11.793,5.879L13.621,7.707C13.809,7.895 14.063,8 14.328,8L23,8C24.657,8 26,9.343 26,11L26,12L26.986,12C28.915,12 30.343,13.795 29.909,15.675L27.832,24.675C27.518,26.036 26.306,27 24.909,27L5,27C3.343,27 2,25.657 2,24L2,8ZM24,12L7.591,12C6.194,12 4.982,12.964 4.668,14.325L4,17.219L4,8C4,7.448 4.448,7 5,7L9.672,7C9.937,7 10.191,7.105 10.379,7.293L12.207,9.121C12.77,9.684 13.533,10 14.328,10L23,10C23.552,10 24,10.448 24,11L24,12Z" style="fill:white;"/></g></g></g></svg>