<?xml version="1.0" encoding="UTF-8" standalone="no"?><!DOCTYPE svg PUBLIC "-//W3C//DTD SVG 1.1//EN" "http://www.w3.org/Graphics/SVG/1.1/DTD/svg11.dtd"><svg width="100%" height="100%" viewBox="0 0 200 200" version="1.1" xmlns="http://www.w3.org/2000/svg" xmlns:xlink="http://www.w3.org/1999/xlink" xml:space="preserve" xmlns:serif="http://www.serif.com/" style="fill-rule:evenodd;clip-rule:evenodd;stroke-linejoin:round;stroke-miterlimit:2;"><g transform="matrix(1,0,0,1,-75199.4,-32381.5)"><g transform="matrix(1,0,0,1,-0.19063,-0.465929)"><g transform="matrix(2.00733,0,0,2.00733,-74738.4,-32262.2)"><circle cx="74745.1" cy="32253.9" r="49.817" style="fill:rgb(63,109,170);"/></g></g><g transform="matrix(1,0,0,1,-0.19063,-0.465929)"><g transform="matrix(0.195297,0,0,0.192302,75238.2,32415.5)"><path d="M320,64C334.7,64 348.2,72.1 355.2,85L571.2,485C577.9,497.4 577.6,512.4 570.4,524.5C563.2,536.6 550.1,544 536,544L104,544C89.9,544 76.8,536.6 69.6,524.5C62.4,512.4 62.1,497.4 68.8,485L284.8,85C291.8,72.1 305.3,64 320,64ZM320,416C302.3,416 288,430.3 288,448C288,465.7 302.3,480 320,480C337.7,480 352,465.7 352,448C352,430.3 337.7,416 320,416ZM320,224C301.8,224 287.3,239.5 288.6,257.7L296,361.7C296.9,374.2 307.4,384 319.9,384C332.5,384 342.9,374.3 343.8,361.7L351.2,257.7C352.5,239.5 338.1,224 319.8,224L320,224Z" style="fill:white;fill-rule:nonzero;"/></g></g></g></svg>