<svg width="225" height="220" xmlns="http://www.w3.org/2000/svg" xmlns:xlink="http://www.w3.org/1999/xlink" xml:space="preserve" overflow="hidden"><g transform="translate(-916 -664)"><g><path d="M921 773.5C921 713.577 969.577 665 1029.5 665 1089.42 665 1138 713.577 1138 773.5 1138 833.423 1089.42 882 1029.5 882 969.577 882 921 833.423 921 773.5Z" fill="#C5CFDB" fill-rule="evenodd" fill-opacity="1"/><g><g><g><path d="M985.312 738.625C983.414 738.625 981.875 740.164 981.875 742.063 981.875 743.961 983.414 745.5 985.312 745.5L1026.56 745.5C1028.46 745.5 1030 743.961 1030 742.063 1030 740.164 1028.46 738.625 1026.56 738.625L985.312 738.625Z" fill="#0E3052" fill-rule="nonzero" fill-opacity="1"/><path d="M985.312 759.25C983.414 759.25 981.875 760.789 981.875 762.688 981.875 764.586 983.414 766.125 985.312 766.125L1026.56 766.125C1028.46 766.125 1030 764.586 1030 762.688 1030 760.789 1028.46 759.25 1026.56 759.25L985.312 759.25Z" fill="#0E3052" fill-rule="nonzero" fill-opacity="1"/><path d="M985.312 779.875C983.414 779.875 981.875 781.414 981.875 783.313 981.875 785.211 983.414 786.75 985.312 786.75L1026.56 786.75C1028.46 786.75 1030 785.211 1030 783.313 1030 781.414 1028.46 779.875 1026.56 779.875L985.312 779.875Z" fill="#0E3052" fill-rule="nonzero" fill-opacity="1"/><path d="M985.312 800.5C983.414 800.5 981.875 802.039 981.875 803.938 981.875 805.836 983.414 807.375 985.312 807.375L1026.56 807.375C1028.46 807.375 1030 805.836 1030 803.938 1030 802.039 1028.46 800.5 1026.56 800.5L985.312 800.5Z" fill="#0E3052" fill-rule="nonzero" fill-opacity="1"/><path d="M1036.87 742.063C1036.87 740.164 1038.41 738.625 1040.31 738.625L1074.69 738.625C1076.59 738.625 1078.12 740.164 1078.12 742.063L1078.12 803.938C1078.12 805.836 1076.59 807.375 1074.69 807.375L1040.31 807.375C1038.41 807.375 1036.87 805.836 1036.87 803.938L1036.87 742.063Z" fill="#0E3052" fill-rule="nonzero" fill-opacity="1"/></g></g></g></g></g></svg>