<svg width="266" height="266" xmlns="http://www.w3.org/2000/svg" xmlns:xlink="http://www.w3.org/1999/xlink" xml:space="preserve" overflow="hidden"><g transform="translate(-2644 -114)"><g><path d="M2647 248C2647 176.203 2705.2 118 2777 118 2848.8 118 2907 176.203 2907 248 2907 319.797 2848.8 378 2777 378 2705.2 378 2647 319.797 2647 248Z" fill="#3F6DAA" fill-rule="evenodd" fill-opacity="1"/><g><g><g><path d="M2749.92 248C2749.92 245.008 2752.34 242.583 2755.33 242.583L2798.67 242.583C2801.66 242.583 2804.08 245.008 2804.08 248 2804.08 250.992 2801.66 253.417 2798.67 253.417L2755.33 253.417C2752.34 253.417 2749.92 250.992 2749.92 248Z" fill="#FFFFFF" fill-rule="nonzero" fill-opacity="1"/><path d="M2755.33 264.25C2752.34 264.25 2749.92 266.675 2749.92 269.667 2749.92 272.658 2752.34 275.083 2755.33 275.083L2798.67 275.083C2801.66 275.083 2804.08 272.658 2804.08 269.667 2804.08 266.675 2801.66 264.25 2798.67 264.25L2755.33 264.25Z" fill="#FFFFFF" fill-rule="nonzero" fill-opacity="1"/><path d="M2744.5 193.833C2735.53 193.833 2728.25 201.109 2728.25 210.083L2728.25 285.917C2728.25 294.892 2735.53 302.167 2744.5 302.167L2809.5 302.167C2818.47 302.167 2825.75 294.892 2825.75 285.917L2825.75 227.686C2825.75 223.201 2823.9 218.915 2820.63 215.843L2801.89 198.24C2798.88 195.409 2794.9 193.833 2790.76 193.833L2744.5 193.833ZM2739.08 210.083C2739.08 207.092 2741.51 204.667 2744.5 204.667L2787.83 204.667 2787.83 215.5C2787.83 224.475 2795.11 231.75 2804.08 231.75L2814.92 231.75 2814.92 285.917C2814.92 288.908 2812.49 291.333 2809.5 291.333L2744.5 291.333C2741.51 291.333 2739.08 288.908 2739.08 285.917L2739.08 210.083ZM2810.21 220.917 2798.67 210.075 2798.67 215.5C2798.67 218.491 2801.09 220.917 2804.08 220.917L2810.21 220.917Z" fill="#FFFFFF" fill-rule="evenodd" fill-opacity="1"/></g></g></g></g></g></svg>