<svg xmlns="http://www.w3.org/2000/svg" width="24" height="24" fill="none" viewBox="0 0 24 24">
  <path fill="#000" d="M10.55 8.809a4.5 4.5 0 1 0-6.1 0c-.452.24-.88.526-1.27.849C1.964 10.665 1 12.143 1 13.875V15a4 4 0 0 0 4 4h3.223A9.029 9.029 0 0 1 8 17H5a2 2 0 0 1-2-2v-1.125c0-.96.543-1.92 1.456-2.677C5.37 10.44 6.526 10 7.5 10c.886 0 1.923.364 2.791 1 .453-.505.961-.96 1.517-1.352a7.515 7.515 0 0 0-1.258-.84ZM5 5.5a2.5 2.5 0 1 1 5 0 2.5 2.5 0 0 1-5 0ZM14 18h3.586l-.293.293a1 1 0 0 0 1.414 1.414l2-2a1 1 0 0 0 0-1.414l-2-2a1 1 0 0 0-1.414 1.414l.293.293H14a1 1 0 1 0 0 2Z"/>
  <path fill="#000" d="M17 10a7 7 0 1 0 0 14 7 7 0 0 0 0-14Zm-5 7a5 5 0 1 1 10 0 5 5 0 0 1-10 0Z"/>
</svg>
